<ttFont>
    <TTGlyph name=".notdef" xMin="221" yMin="0" xMax="1637" yMax="1416">
      <contour>
        <pt x="1637" y="1416" on="1"/>
        <pt x="1637" y="0" on="1"/>
        <pt x="221" y="0" on="1"/>
        <pt x="221" y="1416" on="1"/>
      </contour>
      <contour>
        <pt x="926" y="587" on="1"/>
        <pt x="1288" y="219" on="1"/>
        <pt x="1410" y="341" on="1"/>
        <pt x="1047" y="709" on="1"/>
        <pt x="1410" y="1067" on="1"/>
        <pt x="1282" y="1191" on="1"/>
        <pt x="930" y="825" on="1"/>
        <pt x="573" y="1193" on="1"/>
        <pt x="450" y="1068" on="1"/>
        <pt x="809" y="705" on="1"/>
        <pt x="451" y="363" on="1"/>
        <pt x="579" y="219" on="1"/>
      </contour>
    </TTGlyph>
    <TTGlyph name="A" xMin="-100" yMin="-1" xMax="1235" yMax="1530">
      <contour>
        <pt x="910" y="341" on="1"/>
        <pt x="349" y="341" on="1"/>
        <pt x="201" y="0" on="1"/>
        <pt x="-100" y="-1" on="1"/>
        <pt x="644" y="1530" on="1"/>
        <pt x="978" y="1530" on="1"/>
        <pt x="1235" y="0" on="1"/>
        <pt x="958" y="-1" on="1"/>
      </contour>
      <contour>
        <pt x="883" y="537" on="1"/>
        <pt x="787" y="1219" on="1"/>
        <pt x="777" y="1337" on="1"/>
        <pt x="730" y="1216" on="1"/>
        <pt x="435" y="537" on="1"/>
      </contour>
    </TTGlyph>
    <TTGlyph name="AE" xMin="-125" yMin="0" xMax="1840" yMax="1530">
      <contour>
        <pt x="1247" y="1319" on="1"/>
        <pt x="1189" y="887" on="1"/>
        <pt x="1618" y="893" on="1"/>
        <pt x="1594" y="672" on="1"/>
        <pt x="1162" y="684" on="1"/>
        <pt x="1098" y="210" on="1"/>
        <pt x="1765" y="223" on="1"/>
        <pt x="1739" y="0" on="1"/>
        <pt x="794" y="0" on="1"/>
        <pt x="842" y="356" on="1"/>
        <pt x="367" y="356" on="1"/>
        <pt x="178" y="0" on="1"/>
        <pt x="-125" y="0" on="1"/>
        <pt x="642" y="1368" on="1"/>
        <pt x="375" y="1395" on="1"/>
        <pt x="396" y="1530" on="1"/>
        <pt x="1840" y="1530" on="1"/>
        <pt x="1818" y="1314" on="1"/>
      </contour>
      <contour>
        <pt x="869" y="557" on="1"/>
        <pt x="973" y="1328" on="1"/>
        <pt x="887" y="1336" on="1"/>
        <pt x="474" y="557" on="1"/>
      </contour>
    </TTGlyph>
    <TTGlyph name="AEacute" xMin="-119" yMin="0" xMax="1846" yMax="2007">
      <component glyphName="acute.cap" x="983" y="0" flags="0x0"/>
      <component glyphName="AE" x="6" y="0" flags="0x0"/>
    </TTGlyph>
    <TTGlyph name="Aacute" xMin="-100" yMin="-1" xMax="1235" yMax="2007">
      <component glyphName="A" x="0" y="0" flags="0x0"/>
      <component glyphName="acute.cap" x="686" y="0" flags="0x0"/>
    </TTGlyph>
    <TTGlyph name="Abreve" xMin="-100" yMin="-1" xMax="1235" yMax="1997">
      <component glyphName="A" x="0" y="0" flags="0x0"/>
      <component glyphName="breve.cap" x="470" y="0" flags="0x0"/>
    </TTGlyph>
    <TTGlyph name="Acircumflex" xMin="-100" yMin="-1" xMax="1235" yMax="2007">
      <component glyphName="A" x="0" y="0" flags="0x0"/>
      <component glyphName="circumflex.cap" x="425" y="0" flags="0x0"/>
    </TTGlyph>
    <TTGlyph name="Adieresis" xMin="-100" yMin="-1" xMax="1235" yMax="1977">
      <component glyphName="A" x="0" y="0" flags="0x0"/>
      <component glyphName="dieresis.cap" x="341" y="0" flags="0x0"/>
    </TTGlyph>
    <TTGlyph name="Agrave" xMin="-100" yMin="-1" xMax="1235" yMax="2007">
      <component glyphName="A" x="0" y="0" flags="0x0"/>
      <component glyphName="grave.cap" x="446" y="0" flags="0x0"/>
    </TTGlyph>
    <TTGlyph name="Amacron" xMin="-100" yMin="-1" xMax="1235" yMax="1897">
      <component glyphName="A" x="0" y="0" flags="0x0"/>
      <component glyphName="macron.cap" x="499" y="0" flags="0x0"/>
    </TTGlyph>
    <TTGlyph name="Aogonek" xMin="-94" yMin="-473" xMax="1241" yMax="1530">
      <contour>
        <pt x="1067" y="-282" on="0"/>
        <pt x="1132" y="-257" on="0"/>
        <pt x="1173" y="-227" on="1"/>
        <pt x="1219" y="-364" on="1"/>
        <pt x="1169" y="-413" on="0"/>
        <pt x="1024" y="-473" on="0"/>
        <pt x="932" y="-473" on="1"/>
        <pt x="869" y="-473" on="0"/>
        <pt x="777" y="-423" on="0"/>
        <pt x="729" y="-343" on="0"/>
        <pt x="729" y="-299" on="1"/>
        <pt x="729" y="-235" on="0"/>
        <pt x="816" y="-116" on="0"/>
        <pt x="935" y="-28" on="0"/>
        <pt x="989" y="-1" on="1"/>
        <pt x="964" y="-1" on="1"/>
        <pt x="916" y="341" on="1"/>
        <pt x="355" y="341" on="1"/>
        <pt x="207" y="0" on="1"/>
        <pt x="-94" y="-1" on="1"/>
        <pt x="650" y="1530" on="1"/>
        <pt x="984" y="1530" on="1"/>
        <pt x="1241" y="0" on="1"/>
        <pt x="1193" y="0" on="1"/>
        <pt x="1102" y="-47" on="0"/>
        <pt x="967" y="-165" on="0"/>
        <pt x="967" y="-213" on="1"/>
        <pt x="967" y="-251" on="0"/>
        <pt x="1004" y="-282" on="0"/>
        <pt x="1032" y="-282" on="1"/>
      </contour>
      <contour>
        <pt x="889" y="537" on="1"/>
        <pt x="793" y="1219" on="1"/>
        <pt x="783" y="1337" on="1"/>
        <pt x="736" y="1216" on="1"/>
        <pt x="441" y="537" on="1"/>
      </contour>
    </TTGlyph>
    <TTGlyph name="Aring" xMin="-100" yMin="-1" xMax="1235" yMax="2007">
      <contour>
        <pt x="910" y="341" on="1"/>
        <pt x="349" y="341" on="1"/>
        <pt x="201" y="0" on="1"/>
        <pt x="-100" y="-1" on="1"/>
        <pt x="631" y="1503" on="1"/>
        <pt x="568" y="1533" on="0"/>
        <pt x="500" y="1643" on="0"/>
        <pt x="500" y="1718" on="1"/>
        <pt x="500" y="1816" on="0"/>
        <pt x="612" y="1947" on="0"/>
        <pt x="782" y="2007" on="0"/>
        <pt x="869" y="2007" on="1"/>
        <pt x="1001" y="2007" on="0"/>
        <pt x="1160" y="1877" on="0"/>
        <pt x="1160" y="1758" on="1"/>
        <pt x="1160" y="1666" on="0"/>
        <pt x="1064" y="1536" on="0"/>
        <pt x="983" y="1502" on="1"/>
        <pt x="1235" y="0" on="1"/>
        <pt x="958" y="-1" on="1"/>
      </contour>
      <contour>
        <pt x="774" y="1885" on="0"/>
        <pt x="668" y="1811" on="0"/>
        <pt x="668" y="1727" on="1"/>
        <pt x="668" y="1690" on="0"/>
        <pt x="708" y="1628" on="0"/>
        <pt x="775" y="1592" on="0"/>
        <pt x="814" y="1592" on="1"/>
        <pt x="991" y="1592" on="0"/>
        <pt x="991" y="1753" on="1"/>
        <pt x="991" y="1810" on="0"/>
        <pt x="909" y="1885" on="0"/>
        <pt x="848" y="1885" on="1"/>
      </contour>
      <contour>
        <pt x="883" y="537" on="1"/>
        <pt x="787" y="1219" on="1"/>
        <pt x="777" y="1337" on="1"/>
        <pt x="730" y="1216" on="1"/>
        <pt x="435" y="537" on="1"/>
      </contour>
    </TTGlyph>
    <TTGlyph name="Atilde" xMin="-100" yMin="-1" xMax="1279" yMax="1975">
      <component glyphName="A" x="0" y="0" flags="0x0"/>
      <component glyphName="tilde.cap" x="434" y="0" flags="0x0"/>
    </TTGlyph>
    <TTGlyph name="B" xMin="91" yMin="-15" xMax="1218" yMax="1546">
      <contour>
        <pt x="1002" y="789" on="0"/>
        <pt x="1132" y="702" on="0"/>
        <pt x="1203" y="568" on="0"/>
        <pt x="1203" y="484" on="1"/>
        <pt x="1203" y="226" on="0"/>
        <pt x="828" y="-15" on="0"/>
        <pt x="495" y="-15" on="1"/>
        <pt x="453" y="-15" on="0"/>
        <pt x="349" y="-7" on="1"/>
        <pt x="330" y="-6" on="0"/>
        <pt x="241" y="0" on="0"/>
        <pt x="215" y="0" on="1"/>
        <pt x="91" y="0" on="1"/>
        <pt x="297" y="1530" on="1"/>
        <pt x="423" y="1530" on="1"/>
        <pt x="471" y="1530" on="0"/>
        <pt x="573" y="1538" on="1"/>
        <pt x="683" y="1546" on="0"/>
        <pt x="739" y="1546" on="1"/>
        <pt x="1000" y="1546" on="0"/>
        <pt x="1218" y="1356" on="0"/>
        <pt x="1218" y="1203" on="1"/>
        <pt x="1218" y="1050" on="0"/>
        <pt x="1060" y="842" on="0"/>
        <pt x="915" y="803" on="1"/>
      </contour>
      <contour>
        <pt x="937" y="1270" on="0"/>
        <pt x="815" y="1354" on="0"/>
        <pt x="685" y="1354" on="1"/>
        <pt x="599" y="1354" on="0"/>
        <pt x="549" y="1348" on="1"/>
        <pt x="486" y="886" on="1"/>
        <pt x="529" y="884" on="0"/>
        <pt x="617" y="884" on="1"/>
        <pt x="765" y="884" on="0"/>
        <pt x="937" y="1030" on="0"/>
        <pt x="937" y="1173" on="1"/>
      </contour>
      <contour>
        <pt x="718" y="180" on="0"/>
        <pt x="910" y="309" on="0"/>
        <pt x="910" y="467" on="1"/>
        <pt x="910" y="589" on="0"/>
        <pt x="766" y="696" on="0"/>
        <pt x="616" y="696" on="1"/>
        <pt x="542" y="696" on="0"/>
        <pt x="460" y="691" on="1"/>
        <pt x="393" y="192" on="1"/>
        <pt x="422" y="186" on="0"/>
        <pt x="508" y="180" on="0"/>
        <pt x="541" y="180" on="1"/>
      </contour>
    </TTGlyph>
    <TTGlyph name="C" xMin="95" yMin="-16" xMax="1195" yMax="1546">
      <contour>
        <pt x="950" y="1546" on="0"/>
        <pt x="1076" y="1518" on="0"/>
        <pt x="1141" y="1494" on="1"/>
        <pt x="1195" y="1478" on="1"/>
        <pt x="1109" y="1228" on="1"/>
        <pt x="1063" y="1262" on="0"/>
        <pt x="936" y="1314" on="0"/>
        <pt x="834" y="1314" on="1"/>
        <pt x="675" y="1314" on="0"/>
        <pt x="469" y="1114" on="0"/>
        <pt x="377" y="810" on="0"/>
        <pt x="377" y="648" on="1"/>
        <pt x="377" y="438" on="0"/>
        <pt x="526" y="207" on="0"/>
        <pt x="683" y="207" on="1"/>
        <pt x="754" y="207" on="0"/>
        <pt x="889" y="240" on="0"/>
        <pt x="990" y="286" on="0"/>
        <pt x="1016" y="306" on="1"/>
        <pt x="1054" y="98" on="1"/>
        <pt x="1027" y="77" on="0"/>
        <pt x="909" y="25" on="0"/>
        <pt x="728" y="-16" on="0"/>
        <pt x="618" y="-16" on="1"/>
        <pt x="429" y="-16" on="0"/>
        <pt x="195" y="170" on="0"/>
        <pt x="95" y="464" on="0"/>
        <pt x="95" y="638" on="1"/>
        <pt x="95" y="894" on="0"/>
        <pt x="292" y="1308" on="0"/>
        <pt x="639" y="1546" on="0"/>
        <pt x="856" y="1546" on="1"/>
      </contour>
    </TTGlyph>
    <TTGlyph name="Cacute" xMin="95" yMin="-16" xMax="1205" yMax="2007">
      <component glyphName="C" x="0" y="0" flags="0x0"/>
      <component glyphName="acute.cap" x="711" y="0" flags="0x0"/>
    </TTGlyph>
    <TTGlyph name="Ccaron" xMin="95" yMin="-16" xMax="1250" yMax="2007">
      <component glyphName="C" x="0" y="0" flags="0x0"/>
      <component glyphName="caron.cap" x="449" y="0" flags="0x0"/>
    </TTGlyph>
    <TTGlyph name="Ccedilla" xMin="95" yMin="-466" xMax="1195" yMax="1546">
      <contour>
        <pt x="675" y="1314" on="0"/>
        <pt x="469" y="1114" on="0"/>
        <pt x="377" y="810" on="0"/>
        <pt x="377" y="648" on="1"/>
        <pt x="377" y="438" on="0"/>
        <pt x="526" y="207" on="0"/>
        <pt x="683" y="207" on="1"/>
        <pt x="754" y="207" on="0"/>
        <pt x="889" y="240" on="0"/>
        <pt x="990" y="286" on="0"/>
        <pt x="1016" y="306" on="1"/>
        <pt x="1054" y="98" on="1"/>
        <pt x="1017" y="69" on="0"/>
        <pt x="838" y="1" on="0"/>
        <pt x="716" y="-11" on="1"/>
        <pt x="730" y="-51" on="0"/>
        <pt x="748" y="-154" on="0"/>
        <pt x="748" y="-200" on="1"/>
        <pt x="748" y="-332" on="0"/>
        <pt x="599" y="-466" on="0"/>
        <pt x="459" y="-466" on="1"/>
        <pt x="416" y="-466" on="0"/>
        <pt x="280" y="-445" on="0"/>
        <pt x="264" y="-434" on="1"/>
        <pt x="295" y="-257" on="1"/>
        <pt x="323" y="-272" on="0"/>
        <pt x="370" y="-272" on="1"/>
        <pt x="450" y="-272" on="0"/>
        <pt x="539" y="-207" on="0"/>
        <pt x="541" y="-120" on="1"/>
        <pt x="542" y="-73" on="1"/>
        <pt x="542" y="-49" on="0"/>
        <pt x="540" y="-11" on="1"/>
        <pt x="380" y="8" on="0"/>
        <pt x="181" y="199" on="0"/>
        <pt x="95" y="477" on="0"/>
        <pt x="95" y="638" on="1"/>
        <pt x="95" y="894" on="0"/>
        <pt x="292" y="1308" on="0"/>
        <pt x="639" y="1546" on="0"/>
        <pt x="856" y="1546" on="1"/>
        <pt x="950" y="1546" on="0"/>
        <pt x="1076" y="1518" on="0"/>
        <pt x="1141" y="1494" on="1"/>
        <pt x="1195" y="1478" on="1"/>
        <pt x="1109" y="1228" on="1"/>
        <pt x="1063" y="1262" on="0"/>
        <pt x="936" y="1314" on="0"/>
        <pt x="834" y="1314" on="1"/>
      </contour>
    </TTGlyph>
    <TTGlyph name="Ccircumflex" xMin="95" yMin="-16" xMax="1213" yMax="2007">
      <component glyphName="C" x="0" y="0" flags="0x0"/>
      <component glyphName="circumflex.cap" x="450" y="0" flags="0x0"/>
    </TTGlyph>
    <TTGlyph name="Cdotaccent" xMin="101" yMin="-16" xMax="1201" yMax="1967">
      <component glyphName="dotaccent.cap" x="671" y="0" flags="0x0"/>
      <component glyphName="C" x="6" y="0" flags="0x0"/>
    </TTGlyph>
    <TTGlyph name="D" xMin="91" yMin="-16" xMax="1357" yMax="1546">
      <contour>
        <pt x="1357" y="659" on="0"/>
        <pt x="1167" y="234" on="0"/>
        <pt x="804" y="-16" on="0"/>
        <pt x="557" y="-16" on="1"/>
        <pt x="503" y="-16" on="0"/>
        <pt x="417" y="-9" on="1"/>
        <pt x="289" y="0" on="0"/>
        <pt x="214" y="0" on="1"/>
        <pt x="91" y="0" on="1"/>
        <pt x="297" y="1530" on="1"/>
        <pt x="422" y="1530" on="1"/>
        <pt x="464" y="1530" on="0"/>
        <pt x="594" y="1538" on="1"/>
        <pt x="728" y="1546" on="0"/>
        <pt x="778" y="1546" on="1"/>
        <pt x="1079" y="1546" on="0"/>
        <pt x="1357" y="1212" on="0"/>
        <pt x="1357" y="914" on="1"/>
      </contour>
      <contour>
        <pt x="750" y="192" on="0"/>
        <pt x="966" y="394" on="0"/>
        <pt x="1072" y="721" on="0"/>
        <pt x="1072" y="911" on="1"/>
        <pt x="1072" y="1077" on="0"/>
        <pt x="998" y="1264" on="0"/>
        <pt x="843" y="1343" on="0"/>
        <pt x="712" y="1343" on="1"/>
        <pt x="676" y="1343" on="0"/>
        <pt x="575" y="1334" on="0"/>
        <pt x="546" y="1327" on="1"/>
        <pt x="396" y="215" on="1"/>
        <pt x="435" y="202" on="0"/>
        <pt x="539" y="188" on="0"/>
        <pt x="592" y="189" on="1"/>
      </contour>
    </TTGlyph>
    <TTGlyph name="Dcaron" xMin="97" yMin="-16" xMax="1363" yMax="2007">
      <component glyphName="caron.cap" x="422" y="0" flags="0x0"/>
      <component glyphName="D" x="6" y="0" flags="0x0"/>
    </TTGlyph>
    <TTGlyph name="Dcroat" xMin="36" yMin="-15" xMax="1363" yMax="1547">
      <component glyphName="Eth" x="0" y="0" flags="0x0"/>
    </TTGlyph>
    <TTGlyph name="E" xMin="91" yMin="0" xMax="1138" yMax="1530">
      <contour>
        <pt x="1138" y="1530" on="1"/>
        <pt x="1116" y="1314" on="1"/>
        <pt x="544" y="1319" on="1"/>
        <pt x="487" y="887" on="1"/>
        <pt x="915" y="893" on="1"/>
        <pt x="891" y="672" on="1"/>
        <pt x="459" y="684" on="1"/>
        <pt x="396" y="210" on="1"/>
        <pt x="1062" y="223" on="1"/>
        <pt x="1037" y="0" on="1"/>
        <pt x="91" y="0" on="1"/>
        <pt x="297" y="1530" on="1"/>
      </contour>
    </TTGlyph>
    <TTGlyph name="Eacute" xMin="91" yMin="0" xMax="1138" yMax="2007">
      <component glyphName="acute.cap" x="609" y="0" flags="0x0"/>
      <component glyphName="E" x="0" y="0" flags="0x0"/>
    </TTGlyph>
    <TTGlyph name="Ebreve" xMin="91" yMin="0" xMax="1138" yMax="1997">
      <component glyphName="breve.cap" x="393" y="0" flags="0x0"/>
      <component glyphName="E" x="0" y="0" flags="0x0"/>
    </TTGlyph>
    <TTGlyph name="Ecaron" xMin="91" yMin="0" xMax="1148" yMax="2007">
      <component glyphName="caron.cap" x="347" y="0" flags="0x0"/>
      <component glyphName="E" x="0" y="0" flags="0x0"/>
    </TTGlyph>
    <TTGlyph name="Ecircumflex" xMin="91" yMin="0" xMax="1138" yMax="2007">
      <component glyphName="E" x="0" y="0" flags="0x0"/>
      <component glyphName="circumflex.cap" x="348" y="0" flags="0x0"/>
    </TTGlyph>
    <TTGlyph name="Edieresis" xMin="91" yMin="0" xMax="1138" yMax="1977">
      <component glyphName="dieresis.cap" x="264" y="0" flags="0x0"/>
      <component glyphName="E" x="0" y="0" flags="0x0"/>
    </TTGlyph>
    <TTGlyph name="Edotaccent" xMin="91" yMin="0" xMax="1138" yMax="1967">
      <component glyphName="dotaccent.cap" x="564" y="0" flags="0x0"/>
      <component glyphName="E" x="0" y="0" flags="0x0"/>
    </TTGlyph>
    <TTGlyph name="Egrave" xMin="91" yMin="0" xMax="1138" yMax="2007">
      <component glyphName="grave.cap" x="369" y="0" flags="0x0"/>
      <component glyphName="E" x="0" y="0" flags="0x0"/>
    </TTGlyph>
    <TTGlyph name="Emacron" xMin="91" yMin="0" xMax="1138" yMax="1897">
      <component glyphName="macron.cap" x="422" y="0" flags="0x0"/>
      <component glyphName="E" x="0" y="0" flags="0x0"/>
    </TTGlyph>
    <TTGlyph name="Eng" xMin="97" yMin="-365" xMax="1420" yMax="1530">
      <contour>
        <pt x="1420" y="1530" on="1"/>
        <pt x="1214" y="0" on="1"/>
        <pt x="1212" y="0" on="1"/>
        <pt x="1167" y="-148" on="0"/>
        <pt x="900" y="-343" on="0"/>
        <pt x="698" y="-365" on="1"/>
        <pt x="652" y="-257" on="1"/>
        <pt x="783" y="-208" on="0"/>
        <pt x="929" y="-64" on="0"/>
        <pt x="955" y="33" on="1"/>
        <pt x="567" y="954" on="1"/>
        <pt x="491" y="1208" on="1"/>
        <pt x="479" y="921" on="1"/>
        <pt x="359" y="0" on="1"/>
        <pt x="97" y="0" on="1"/>
        <pt x="303" y="1530" on="1"/>
        <pt x="560" y="1530" on="1"/>
        <pt x="958" y="603" on="1"/>
        <pt x="1029" y="370" on="1"/>
        <pt x="1045" y="624" on="1"/>
        <pt x="1155" y="1530" on="1"/>
      </contour>
    </TTGlyph>
    <TTGlyph name="Eogonek" xMin="97" yMin="-473" xMax="1144" yMax="1530">
      <contour>
        <pt x="550" y="1319" on="1"/>
        <pt x="493" y="887" on="1"/>
        <pt x="921" y="893" on="1"/>
        <pt x="897" y="672" on="1"/>
        <pt x="465" y="684" on="1"/>
        <pt x="402" y="210" on="1"/>
        <pt x="1068" y="223" on="1"/>
        <pt x="1043" y="0" on="1"/>
        <pt x="1021" y="0" on="1"/>
        <pt x="930" y="-47" on="0"/>
        <pt x="795" y="-165" on="0"/>
        <pt x="795" y="-213" on="1"/>
        <pt x="795" y="-251" on="0"/>
        <pt x="832" y="-282" on="0"/>
        <pt x="860" y="-282" on="1"/>
        <pt x="895" y="-282" on="0"/>
        <pt x="960" y="-257" on="0"/>
        <pt x="1001" y="-227" on="1"/>
        <pt x="1047" y="-364" on="1"/>
        <pt x="997" y="-413" on="0"/>
        <pt x="852" y="-473" on="0"/>
        <pt x="760" y="-473" on="1"/>
        <pt x="697" y="-473" on="0"/>
        <pt x="605" y="-423" on="0"/>
        <pt x="557" y="-343" on="0"/>
        <pt x="557" y="-299" on="1"/>
        <pt x="557" y="-234" on="0"/>
        <pt x="645" y="-115" on="0"/>
        <pt x="764" y="-27" on="0"/>
        <pt x="819" y="0" on="1"/>
        <pt x="97" y="0" on="1"/>
        <pt x="303" y="1530" on="1"/>
        <pt x="1144" y="1530" on="1"/>
        <pt x="1122" y="1314" on="1"/>
      </contour>
    </TTGlyph>
    <TTGlyph name="Eth" xMin="36" yMin="-15" xMax="1363" yMax="1547">
      <contour>
        <pt x="1363" y="660" on="0"/>
        <pt x="1173" y="235" on="0"/>
        <pt x="810" y="-15" on="0"/>
        <pt x="563" y="-15" on="1"/>
        <pt x="509" y="-15" on="0"/>
        <pt x="423" y="-8" on="1"/>
        <pt x="295" y="1" on="0"/>
        <pt x="220" y="1" on="1"/>
        <pt x="97" y="1" on="1"/>
        <pt x="191" y="698" on="1"/>
        <pt x="36" y="698" on="1"/>
        <pt x="56" y="888" on="1"/>
        <pt x="216" y="888" on="1"/>
        <pt x="303" y="1531" on="1"/>
        <pt x="428" y="1531" on="1"/>
        <pt x="470" y="1531" on="0"/>
        <pt x="600" y="1539" on="1"/>
        <pt x="734" y="1547" on="0"/>
        <pt x="784" y="1547" on="1"/>
        <pt x="1085" y="1547" on="0"/>
        <pt x="1363" y="1213" on="0"/>
        <pt x="1363" y="915" on="1"/>
      </contour>
      <contour>
        <pt x="756" y="193" on="0"/>
        <pt x="972" y="395" on="0"/>
        <pt x="1078" y="722" on="0"/>
        <pt x="1078" y="912" on="1"/>
        <pt x="1078" y="1078" on="0"/>
        <pt x="1004" y="1265" on="0"/>
        <pt x="849" y="1344" on="0"/>
        <pt x="718" y="1344" on="1"/>
        <pt x="682" y="1344" on="0"/>
        <pt x="581" y="1335" on="0"/>
        <pt x="552" y="1328" on="1"/>
        <pt x="492" y="888" on="1"/>
        <pt x="831" y="888" on="1"/>
        <pt x="810" y="698" on="1"/>
        <pt x="467" y="698" on="1"/>
        <pt x="402" y="216" on="1"/>
        <pt x="441" y="203" on="0"/>
        <pt x="545" y="189" on="0"/>
        <pt x="598" y="190" on="1"/>
      </contour>
    </TTGlyph>
    <TTGlyph name="Euro" xMin="24" yMin="-16" xMax="1277" yMax="1546">
      <contour>
        <pt x="1057" y="1546" on="0"/>
        <pt x="1180" y="1522" on="0"/>
        <pt x="1252" y="1500" on="1"/>
        <pt x="1277" y="1492" on="1"/>
        <pt x="1208" y="1278" on="1"/>
        <pt x="1194" y="1293" on="0"/>
        <pt x="1116" y="1324" on="0"/>
        <pt x="1000" y="1345" on="0"/>
        <pt x="934" y="1345" on="1"/>
        <pt x="808" y="1345" on="0"/>
        <pt x="623" y="1184" on="0"/>
        <pt x="569" y="1038" on="1"/>
        <pt x="1075" y="1038" on="1"/>
        <pt x="1056" y="877" on="1"/>
        <pt x="527" y="877" on="1"/>
        <pt x="511" y="791" on="0"/>
        <pt x="507" y="701" on="1"/>
        <pt x="1033" y="701" on="1"/>
        <pt x="1016" y="539" on="1"/>
        <pt x="507" y="539" on="1"/>
        <pt x="531" y="174" on="0"/>
        <pt x="783" y="174" on="1"/>
        <pt x="888" y="174" on="0"/>
        <pt x="1041" y="237" on="0"/>
        <pt x="1118" y="294" on="1"/>
        <pt x="1181" y="125" on="1"/>
        <pt x="1126" y="63" on="0"/>
        <pt x="886" y="-16" on="0"/>
        <pt x="736" y="-16" on="1"/>
        <pt x="574" y="-16" on="0"/>
        <pt x="355" y="138" on="0"/>
        <pt x="241" y="388" on="0"/>
        <pt x="227" y="539" on="1"/>
        <pt x="24" y="539" on="1"/>
        <pt x="44" y="701" on="1"/>
        <pt x="223" y="701" on="1"/>
        <pt x="228" y="800" on="0"/>
        <pt x="243" y="877" on="1"/>
        <pt x="69" y="877" on="1"/>
        <pt x="89" y="1038" on="1"/>
        <pt x="287" y="1038" on="1"/>
        <pt x="344" y="1195" on="0"/>
        <pt x="544" y="1424" on="0"/>
        <pt x="810" y="1546" on="0"/>
        <pt x="963" y="1546" on="1"/>
      </contour>
    </TTGlyph>
    <TTGlyph name="F" xMin="91" yMin="0" xMax="1121" yMax="1530">
      <contour>
        <pt x="1121" y="1530" on="1"/>
        <pt x="1093" y="1314" on="1"/>
        <pt x="544" y="1320" on="1"/>
        <pt x="485" y="871" on="1"/>
        <pt x="934" y="878" on="1"/>
        <pt x="910" y="648" on="1"/>
        <pt x="456" y="660" on="1"/>
        <pt x="367" y="0" on="1"/>
        <pt x="91" y="0" on="1"/>
        <pt x="297" y="1530" on="1"/>
      </contour>
    </TTGlyph>
    <TTGlyph name="G" xMin="89" yMin="-16" xMax="1296" yMax="1546">
      <contour>
        <pt x="781" y="790" on="1"/>
        <pt x="1282" y="790" on="1"/>
        <pt x="1188" y="87" on="1"/>
        <pt x="1142" y="81" on="0"/>
        <pt x="1065" y="59" on="1"/>
        <pt x="981" y="35" on="0"/>
        <pt x="872" y="7" on="0"/>
        <pt x="722" y="-16" on="0"/>
        <pt x="643" y="-16" on="1"/>
        <pt x="452" y="-16" on="0"/>
        <pt x="205" y="165" on="0"/>
        <pt x="93" y="452" on="0"/>
        <pt x="92" y="617" on="1"/>
        <pt x="89" y="888" on="0"/>
        <pt x="293" y="1311" on="0"/>
        <pt x="649" y="1546" on="0"/>
        <pt x="865" y="1546" on="1"/>
        <pt x="988" y="1546" on="0"/>
        <pt x="1158" y="1514" on="0"/>
        <pt x="1230" y="1490" on="1"/>
        <pt x="1296" y="1468" on="1"/>
        <pt x="1228" y="1218" on="1"/>
        <pt x="1200" y="1239" on="0"/>
        <pt x="1092" y="1287" on="0"/>
        <pt x="942" y="1322" on="0"/>
        <pt x="859" y="1322" on="1"/>
        <pt x="690" y="1322" on="0"/>
        <pt x="471" y="1117" on="0"/>
        <pt x="372" y="807" on="0"/>
        <pt x="372" y="645" on="1"/>
        <pt x="372" y="443" on="0"/>
        <pt x="525" y="194" on="0"/>
        <pt x="687" y="194" on="1"/>
        <pt x="746" y="194" on="0"/>
        <pt x="895" y="222" on="0"/>
        <pt x="948" y="248" on="1"/>
        <pt x="994" y="570" on="1"/>
        <pt x="754" y="570" on="1"/>
      </contour>
    </TTGlyph>
    <TTGlyph name="Gbreve" xMin="95" yMin="-16" xMax="1302" yMax="1997">
      <component glyphName="breve.cap" x="545" y="0" flags="0x0"/>
      <component glyphName="G" x="6" y="0" flags="0x0"/>
    </TTGlyph>
    <TTGlyph name="Gcaron" xMin="89" yMin="-16" xMax="1296" yMax="2007">
      <component glyphName="G" x="0" y="0" flags="0x0"/>
      <component glyphName="caron.cap" x="494" y="0" flags="0x0"/>
    </TTGlyph>
    <TTGlyph name="Gcircumflex" xMin="89" yMin="-16" xMax="1296" yMax="2007">
      <component glyphName="G" x="0" y="0" flags="0x0"/>
      <component glyphName="circumflex.cap" x="495" y="0" flags="0x0"/>
    </TTGlyph>
    <TTGlyph name="Gcommaaccent" xMin="95" yMin="-560" xMax="1302" yMax="1546">
      <component glyphName="uni0326" x="900" y="0" flags="0x0"/>
      <component glyphName="G" x="6" y="0" flags="0x0"/>
    </TTGlyph>
    <TTGlyph name="Gdotaccent" xMin="95" yMin="-16" xMax="1302" yMax="1967">
      <component glyphName="dotaccent.cap" x="716" y="0" flags="0x0"/>
      <component glyphName="G" x="6" y="0" flags="0x0"/>
    </TTGlyph>
    <TTGlyph name="Gtilde" xMin="89" yMin="-16" xMax="1349" yMax="1975">
      <component glyphName="G" x="0" y="0" flags="0x0"/>
      <component glyphName="tilde.cap" x="504" y="0" flags="0x0"/>
    </TTGlyph>
    <TTGlyph name="H" xMin="85" yMin="0" xMax="1413" yMax="1530">
      <contour>
        <pt x="1413" y="1530" on="1"/>
        <pt x="1207" y="0" on="1"/>
        <pt x="929" y="0" on="1"/>
        <pt x="1018" y="658" on="1"/>
        <pt x="450" y="658" on="1"/>
        <pt x="361" y="0" on="1"/>
        <pt x="85" y="0" on="1"/>
        <pt x="291" y="1530" on="1"/>
        <pt x="567" y="1530" on="1"/>
        <pt x="476" y="855" on="1"/>
        <pt x="1044" y="855" on="1"/>
        <pt x="1135" y="1530" on="1"/>
      </contour>
    </TTGlyph>
    <TTGlyph name="Hbar" xMin="26" yMin="0" xMax="1577" yMax="1530">
      <contour>
        <pt x="1557" y="958" on="1"/>
        <pt x="1348" y="958" on="1"/>
        <pt x="1219" y="0" on="1"/>
        <pt x="941" y="0" on="1"/>
        <pt x="1011" y="517" on="1"/>
        <pt x="443" y="517" on="1"/>
        <pt x="373" y="0" on="1"/>
        <pt x="97" y="0" on="1"/>
        <pt x="226" y="958" on="1"/>
        <pt x="26" y="958" on="1"/>
        <pt x="45" y="1158" on="1"/>
        <pt x="253" y="1158" on="1"/>
        <pt x="303" y="1530" on="1"/>
        <pt x="579" y="1530" on="1"/>
        <pt x="529" y="1158" on="1"/>
        <pt x="1097" y="1158" on="1"/>
        <pt x="1147" y="1530" on="1"/>
        <pt x="1425" y="1530" on="1"/>
        <pt x="1375" y="1158" on="1"/>
        <pt x="1577" y="1158" on="1"/>
      </contour>
      <contour>
        <pt x="1070" y="958" on="1"/>
        <pt x="502" y="958" on="1"/>
        <pt x="470" y="717" on="1"/>
        <pt x="1038" y="717" on="1"/>
      </contour>
    </TTGlyph>
    <TTGlyph name="Hcircumflex" xMin="85" yMin="0" xMax="1413" yMax="2007">
      <component glyphName="H" x="0" y="0" flags="0x0"/>
      <component glyphName="circumflex.cap" x="468" y="0" flags="0x0"/>
    </TTGlyph>
    <TTGlyph name="I" xMin="113" yMin="0" xMax="595" yMax="1530">
      <contour>
        <pt x="595" y="1530" on="1"/>
        <pt x="389" y="0" on="1"/>
        <pt x="113" y="0" on="1"/>
        <pt x="319" y="1530" on="1"/>
      </contour>
    </TTGlyph>
    <TTGlyph name="I.uc" xMin="113" yMin="0" xMax="656" yMax="1967">
      <component glyphName="I" x="0" y="0" flags="0x0"/>
      <component glyphName="dotaccent.cap" x="300" y="0" flags="0x0"/>
    </TTGlyph>
    <TTGlyph name="IJ" xMin="113" yMin="-336" xMax="1235" yMax="1530">
      <component glyphName="I" x="0" y="0" flags="0x0"/>
      <component glyphName="J" x="643" y="0" flags="0x0"/>
    </TTGlyph>
    <TTGlyph name="IJ_acutecomb" xMin="113" yMin="-336" xMax="1464" yMax="2007">
      <contour>
        <pt x="672" y="2007" on="1"/>
        <pt x="839" y="1850" on="1"/>
        <pt x="812" y="1800" on="0"/>
        <pt x="690" y="1684" on="0"/>
        <pt x="552" y="1590" on="0"/>
        <pt x="503" y="1572" on="1"/>
        <pt x="395" y="1665" on="1"/>
      </contour>
      <contour>
        <pt x="1297" y="2006" on="1"/>
        <pt x="1464" y="1849" on="1"/>
        <pt x="1437" y="1799" on="0"/>
        <pt x="1315" y="1683" on="0"/>
        <pt x="1177" y="1589" on="0"/>
        <pt x="1128" y="1571" on="1"/>
        <pt x="1020" y="1664" on="1"/>
      </contour>
      <contour>
        <pt x="595" y="1530" on="1"/>
        <pt x="389" y="0" on="1"/>
        <pt x="113" y="0" on="1"/>
        <pt x="319" y="1530" on="1"/>
      </contour>
      <contour>
        <pt x="1235" y="1530" on="1"/>
        <pt x="1152" y="887" on="0"/>
        <pt x="1050" y="140" on="0"/>
        <pt x="1030" y="75" on="1"/>
        <pt x="971" y="-137" on="0"/>
        <pt x="697" y="-321" on="0"/>
        <pt x="507" y="-336" on="1"/>
        <pt x="468" y="-233" on="1"/>
        <pt x="547" y="-210" on="0"/>
        <pt x="670" y="-111" on="0"/>
        <pt x="747" y="18" on="0"/>
        <pt x="760" y="86" on="1"/>
        <pt x="801" y="276" on="0"/>
        <pt x="868" y="775" on="0"/>
        <pt x="912" y="1150" on="1"/>
        <pt x="950" y="1467" on="0"/>
        <pt x="958" y="1530" on="1"/>
      </contour>
    </TTGlyph>
    <TTGlyph name="Iacute" xMin="113" yMin="0" xMax="839" yMax="2007">
      <component glyphName="I" x="0" y="0" flags="0x0"/>
      <component glyphName="acute.cap" x="345" y="0" flags="0x0"/>
    </TTGlyph>
    <TTGlyph name="Ibreve" xMin="113" yMin="0" xMax="835" yMax="1997">
      <component glyphName="I" x="0" y="0" flags="0x0"/>
      <component glyphName="breve.cap" x="129" y="0" flags="0x0"/>
    </TTGlyph>
    <TTGlyph name="Icircumflex" xMin="113" yMin="0" xMax="847" yMax="2007">
      <component glyphName="I" x="0" y="0" flags="0x0"/>
      <component glyphName="circumflex.cap" x="84" y="0" flags="0x0"/>
    </TTGlyph>
    <TTGlyph name="Idieresis" xMin="113" yMin="0" xMax="864" yMax="1977">
      <component glyphName="I" x="0" y="0" flags="0x0"/>
      <component glyphName="dieresis.cap" x="0" y="0" flags="0x0"/>
    </TTGlyph>
    <TTGlyph name="Idotaccent" xMin="113" yMin="0" xMax="656" yMax="1967">
      <component glyphName="I" x="0" y="0" flags="0x0"/>
      <component glyphName="dotaccent.cap" x="300" y="0" flags="0x0"/>
    </TTGlyph>
    <TTGlyph name="Igrave" xMin="113" yMin="0" xMax="595" yMax="2007">
      <component glyphName="I" x="0" y="0" flags="0x0"/>
      <component glyphName="grave.cap" x="105" y="0" flags="0x0"/>
    </TTGlyph>
    <TTGlyph name="Imacron" xMin="113" yMin="0" xMax="750" yMax="1897">
      <component glyphName="I" x="0" y="0" flags="0x0"/>
      <component glyphName="macron.cap" x="158" y="0" flags="0x0"/>
    </TTGlyph>
    <TTGlyph name="Iogonek" xMin="-142" yMin="-473" xMax="595" yMax="1530">
      <contour>
        <pt x="231" y="-47" on="0"/>
        <pt x="96" y="-165" on="0"/>
        <pt x="96" y="-213" on="1"/>
        <pt x="96" y="-251" on="0"/>
        <pt x="133" y="-282" on="0"/>
        <pt x="161" y="-282" on="1"/>
        <pt x="196" y="-282" on="0"/>
        <pt x="261" y="-257" on="0"/>
        <pt x="302" y="-227" on="1"/>
        <pt x="348" y="-364" on="1"/>
        <pt x="298" y="-413" on="0"/>
        <pt x="153" y="-473" on="0"/>
        <pt x="61" y="-473" on="1"/>
        <pt x="-2" y="-473" on="0"/>
        <pt x="-94" y="-423" on="0"/>
        <pt x="-142" y="-343" on="0"/>
        <pt x="-142" y="-299" on="1"/>
        <pt x="-142" y="-234" on="0"/>
        <pt x="-54" y="-115" on="0"/>
        <pt x="65" y="-27" on="0"/>
        <pt x="120" y="0" on="1"/>
        <pt x="113" y="0" on="1"/>
        <pt x="319" y="1530" on="1"/>
        <pt x="595" y="1530" on="1"/>
        <pt x="389" y="0" on="1"/>
        <pt x="322" y="0" on="1"/>
      </contour>
    </TTGlyph>
    <TTGlyph name="Itilde" xMin="94" yMin="0" xMax="938" yMax="1975">
      <component glyphName="I" x="0" y="0" flags="0x0"/>
      <component glyphName="tilde.cap" x="93" y="0" flags="0x0"/>
    </TTGlyph>
    <TTGlyph name="J" xMin="-175" yMin="-336" xMax="592" yMax="1530">
      <contour>
        <pt x="592" y="1530" on="1"/>
        <pt x="509" y="887" on="0"/>
        <pt x="407" y="140" on="0"/>
        <pt x="387" y="75" on="1"/>
        <pt x="328" y="-137" on="0"/>
        <pt x="54" y="-321" on="0"/>
        <pt x="-136" y="-336" on="1"/>
        <pt x="-175" y="-233" on="1"/>
        <pt x="-96" y="-210" on="0"/>
        <pt x="27" y="-111" on="0"/>
        <pt x="104" y="18" on="0"/>
        <pt x="117" y="86" on="1"/>
        <pt x="158" y="276" on="0"/>
        <pt x="225" y="775" on="0"/>
        <pt x="269" y="1150" on="1"/>
        <pt x="307" y="1467" on="0"/>
        <pt x="315" y="1530" on="1"/>
      </contour>
    </TTGlyph>
    <TTGlyph name="Jcircumflex" xMin="-175" yMin="-336" xMax="833" yMax="2007">
      <component glyphName="J" x="0" y="0" flags="0x0"/>
      <component glyphName="circumflex.cap" x="70" y="0" flags="0x0"/>
    </TTGlyph>
    <TTGlyph name="K" xMin="91" yMin="-1" xMax="1394" yMax="1530">
      <contour>
        <pt x="849" y="740" on="0"/>
        <pt x="975" y="501" on="1"/>
        <pt x="1059" y="342" on="1"/>
        <pt x="1167" y="137" on="0"/>
        <pt x="1256" y="-1" on="1"/>
        <pt x="928" y="1" on="1"/>
        <pt x="916" y="18" on="0"/>
        <pt x="821" y="210" on="0"/>
        <pt x="766" y="323" on="1"/>
        <pt x="748" y="357" on="0"/>
        <pt x="664" y="533" on="0"/>
        <pt x="649" y="564" on="1"/>
        <pt x="606" y="655" on="1"/>
        <pt x="429" y="458" on="1"/>
        <pt x="367" y="0" on="1"/>
        <pt x="91" y="0" on="1"/>
        <pt x="297" y="1530" on="1"/>
        <pt x="573" y="1530" on="1"/>
        <pt x="476" y="811" on="1"/>
        <pt x="1076" y="1530" on="1"/>
        <pt x="1394" y="1530" on="1"/>
        <pt x="784" y="853" on="1"/>
      </contour>
    </TTGlyph>
    <TTGlyph name="Kcommaaccent" xMin="97" yMin="-558" xMax="1400" yMax="1530">
      <component glyphName="uni0326" x="827" y="2" flags="0x4"/>
      <component glyphName="K" x="6" y="0" flags="0x0"/>
    </TTGlyph>
    <TTGlyph name="L" xMin="91" yMin="0" xMax="931" yMax="1530">
      <contour>
        <pt x="573" y="1530" on="1"/>
        <pt x="397" y="221" on="1"/>
        <pt x="931" y="229" on="1"/>
        <pt x="899" y="0" on="1"/>
        <pt x="91" y="0" on="1"/>
        <pt x="297" y="1530" on="1"/>
      </contour>
    </TTGlyph>
    <TTGlyph name="Lacute" xMin="97" yMin="0" xMax="937" yMax="2009">
      <component glyphName="acute.cap" x="353" y="2" flags="0x4"/>
      <component glyphName="L" x="6" y="0" flags="0x0"/>
    </TTGlyph>
    <TTGlyph name="Lcaron" xMin="91" yMin="0" xMax="1076" yMax="1651">
      <component glyphName="L" x="0" y="0" flags="0x0"/>
      <component glyphName="caronvertical" x="616" y="-30" flags="0x4"/>
    </TTGlyph>
    <TTGlyph name="Lcommaaccent" xMin="97" yMin="-558" xMax="937" yMax="1530">
      <component glyphName="uni0326" x="683" y="2" flags="0x4"/>
      <component glyphName="L" x="6" y="0" flags="0x0"/>
    </TTGlyph>
    <TTGlyph name="Ldot" xMin="91" yMin="0" xMax="1106" yMax="1530">
      <component glyphName="L" x="0" y="0" flags="0x0"/>
      <component glyphName="period" x="724" y="774" flags="0x4"/>
    </TTGlyph>
    <TTGlyph name="Lslash" xMin="-41" yMin="1" xMax="937" yMax="1531">
      <contour>
        <pt x="937" y="230" on="1"/>
        <pt x="905" y="1" on="1"/>
        <pt x="97" y="1" on="1"/>
        <pt x="171" y="550" on="1"/>
        <pt x="6" y="488" on="1"/>
        <pt x="-41" y="639" on="1"/>
        <pt x="195" y="731" on="1"/>
        <pt x="303" y="1531" on="1"/>
        <pt x="579" y="1531" on="1"/>
        <pt x="487" y="844" on="1"/>
        <pt x="851" y="985" on="1"/>
        <pt x="897" y="825" on="1"/>
        <pt x="462" y="660" on="1"/>
        <pt x="403" y="222" on="1"/>
      </contour>
    </TTGlyph>
    <TTGlyph name="M" xMin="9" yMin="-18" xMax="1760" yMax="1530">
      <contour>
        <pt x="793" y="1530" on="1"/>
        <pt x="907" y="474" on="1"/>
        <pt x="918" y="277" on="1"/>
        <pt x="967" y="474" on="1"/>
        <pt x="1358" y="1530" on="1"/>
        <pt x="1760" y="1530" on="1"/>
        <pt x="1730" y="0" on="1"/>
        <pt x="1453" y="0" on="1"/>
        <pt x="1522" y="1080" on="1"/>
        <pt x="1548" y="1388" on="1"/>
        <pt x="1443" y="1104" on="1"/>
        <pt x="1006" y="-3" on="1"/>
        <pt x="741" y="-18" on="1"/>
        <pt x="601" y="1091" on="1"/>
        <pt x="582" y="1388" on="1"/>
        <pt x="526" y="1086" on="1"/>
        <pt x="283" y="0" on="1"/>
        <pt x="9" y="0" on="1"/>
        <pt x="408" y="1530" on="1"/>
      </contour>
    </TTGlyph>
    <TTGlyph name="N" xMin="91" yMin="0" xMax="1414" yMax="1530">
      <contour>
        <pt x="554" y="1530" on="1"/>
        <pt x="952" y="603" on="1"/>
        <pt x="1023" y="370" on="1"/>
        <pt x="1039" y="624" on="1"/>
        <pt x="1149" y="1530" on="1"/>
        <pt x="1414" y="1530" on="1"/>
        <pt x="1208" y="0" on="1"/>
        <pt x="963" y="0" on="1"/>
        <pt x="561" y="954" on="1"/>
        <pt x="485" y="1208" on="1"/>
        <pt x="473" y="921" on="1"/>
        <pt x="353" y="0" on="1"/>
        <pt x="91" y="0" on="1"/>
        <pt x="297" y="1530" on="1"/>
      </contour>
    </TTGlyph>
    <TTGlyph name="Nacute" xMin="97" yMin="0" xMax="1420" yMax="2007">
      <component glyphName="acute.cap" x="744" y="0" flags="0x0"/>
      <component glyphName="N" x="6" y="0" flags="0x0"/>
    </TTGlyph>
    <TTGlyph name="Ncaron" xMin="97" yMin="0" xMax="1420" yMax="2007">
      <component glyphName="caron.cap" x="482" y="0" flags="0x0"/>
      <component glyphName="N" x="6" y="0" flags="0x0"/>
    </TTGlyph>
    <TTGlyph name="Ncommaaccent" xMin="97" yMin="-560" xMax="1420" yMax="1530">
      <component glyphName="uni0326" x="867" y="0" flags="0x0"/>
      <component glyphName="N" x="6" y="0" flags="0x0"/>
    </TTGlyph>
    <TTGlyph name="Ntilde" xMin="97" yMin="0" xMax="1420" yMax="1975">
      <component glyphName="tilde.cap" x="492" y="0" flags="0x0"/>
      <component glyphName="N" x="6" y="0" flags="0x0"/>
    </TTGlyph>
    <TTGlyph name="O" xMin="87" yMin="-16" xMax="1335" yMax="1546">
      <contour>
        <pt x="87" y="866" on="0"/>
        <pt x="271" y="1296" on="0"/>
        <pt x="604" y="1546" on="0"/>
        <pt x="818" y="1546" on="1"/>
        <pt x="985" y="1546" on="0"/>
        <pt x="1218" y="1379" on="0"/>
        <pt x="1335" y="1097" on="0"/>
        <pt x="1335" y="923" on="1"/>
        <pt x="1335" y="664" on="0"/>
        <pt x="1155" y="235" on="0"/>
        <pt x="824" y="-16" on="0"/>
        <pt x="609" y="-16" on="1"/>
        <pt x="440" y="-16" on="0"/>
        <pt x="204" y="150" on="0"/>
        <pt x="87" y="432" on="0"/>
        <pt x="87" y="607" on="1"/>
      </contour>
      <contour>
        <pt x="1050" y="1056" on="0"/>
        <pt x="991" y="1248" on="0"/>
        <pt x="874" y="1335" on="0"/>
        <pt x="783" y="1335" on="1"/>
        <pt x="663" y="1335" on="0"/>
        <pt x="475" y="1130" on="0"/>
        <pt x="372" y="805" on="0"/>
        <pt x="372" y="631" on="1"/>
        <pt x="372" y="399" on="0"/>
        <pt x="503" y="193" on="0"/>
        <pt x="639" y="193" on="1"/>
        <pt x="760" y="193" on="0"/>
        <pt x="947" y="394" on="0"/>
        <pt x="1050" y="720" on="0"/>
        <pt x="1050" y="899" on="1"/>
      </contour>
    </TTGlyph>
    <TTGlyph name="OE" xMin="87" yMin="-16" xMax="2124" yMax="1546">
      <contour>
        <pt x="1530" y="1319" on="1"/>
        <pt x="1473" y="887" on="1"/>
        <pt x="1901" y="893" on="1"/>
        <pt x="1877" y="672" on="1"/>
        <pt x="1445" y="684" on="1"/>
        <pt x="1382" y="210" on="1"/>
        <pt x="2048" y="223" on="1"/>
        <pt x="2023" y="0" on="1"/>
        <pt x="1077" y="0" on="1"/>
        <pt x="1108" y="227" on="1"/>
        <pt x="1013" y="111" on="0"/>
        <pt x="760" y="-16" on="0"/>
        <pt x="609" y="-16" on="1"/>
        <pt x="440" y="-16" on="0"/>
        <pt x="204" y="150" on="0"/>
        <pt x="87" y="432" on="0"/>
        <pt x="87" y="607" on="1"/>
        <pt x="87" y="866" on="0"/>
        <pt x="271" y="1296" on="0"/>
        <pt x="604" y="1546" on="0"/>
        <pt x="818" y="1546" on="1"/>
        <pt x="971" y="1546" on="0"/>
        <pt x="1188" y="1407" on="0"/>
        <pt x="1250" y="1283" on="1"/>
        <pt x="1283" y="1530" on="1"/>
        <pt x="2124" y="1530" on="1"/>
        <pt x="2102" y="1314" on="1"/>
      </contour>
      <contour>
        <pt x="760" y="193" on="0"/>
        <pt x="947" y="394" on="0"/>
        <pt x="1050" y="720" on="0"/>
        <pt x="1050" y="899" on="1"/>
        <pt x="1050" y="1056" on="0"/>
        <pt x="991" y="1248" on="0"/>
        <pt x="874" y="1335" on="0"/>
        <pt x="783" y="1335" on="1"/>
        <pt x="663" y="1335" on="0"/>
        <pt x="475" y="1130" on="0"/>
        <pt x="372" y="805" on="0"/>
        <pt x="372" y="631" on="1"/>
        <pt x="372" y="399" on="0"/>
        <pt x="503" y="193" on="0"/>
        <pt x="639" y="193" on="1"/>
      </contour>
    </TTGlyph>
    <TTGlyph name="Oacute" xMin="87" yMin="-16" xMax="1335" yMax="2007">
      <component glyphName="acute.cap" x="726" y="0" flags="0x0"/>
      <component glyphName="O" x="0" y="0" flags="0x0"/>
    </TTGlyph>
    <TTGlyph name="Obreve" xMin="87" yMin="-16" xMax="1335" yMax="1997">
      <component glyphName="breve.cap" x="509" y="0" flags="0x0"/>
      <component glyphName="O" x="0" y="0" flags="0x0"/>
    </TTGlyph>
    <TTGlyph name="Ocircumflex" xMin="87" yMin="-16" xMax="1335" yMax="2007">
      <component glyphName="O" x="0" y="0" flags="0x0"/>
      <component glyphName="circumflex.cap" x="465" y="0" flags="0x0"/>
    </TTGlyph>
    <TTGlyph name="Odieresis" xMin="87" yMin="-16" xMax="1335" yMax="1977">
      <component glyphName="dieresis.cap" x="380" y="0" flags="0x0"/>
      <component glyphName="O" x="0" y="0" flags="0x0"/>
    </TTGlyph>
    <TTGlyph name="Ograve" xMin="87" yMin="-16" xMax="1335" yMax="2007">
      <component glyphName="grave.cap" x="486" y="0" flags="0x0"/>
      <component glyphName="O" x="0" y="0" flags="0x0"/>
    </TTGlyph>
    <TTGlyph name="Ohungarumlaut" xMin="87" yMin="-16" xMax="1425" yMax="2007">
      <component glyphName="O" x="0" y="0" flags="0x0"/>
      <component glyphName="hungarumlaut.cap" x="510" y="0" flags="0x0"/>
    </TTGlyph>
    <TTGlyph name="Omacron" xMin="87" yMin="-16" xMax="1335" yMax="1897">
      <component glyphName="macron.cap" x="539" y="0" flags="0x0"/>
      <component glyphName="O" x="0" y="0" flags="0x0"/>
    </TTGlyph>
    <TTGlyph name="Oslash" xMin="87" yMin="-132" xMax="1335" yMax="1670">
      <contour>
        <pt x="1335" y="665" on="0"/>
        <pt x="1155" y="236" on="0"/>
        <pt x="824" y="-15" on="0"/>
        <pt x="609" y="-15" on="1"/>
        <pt x="440" y="-15" on="0"/>
        <pt x="319" y="70" on="1"/>
        <pt x="188" y="-132" on="1"/>
        <pt x="99" y="-83" on="1"/>
        <pt x="243" y="137" on="1"/>
        <pt x="166" y="222" on="0"/>
        <pt x="87" y="464" on="0"/>
        <pt x="87" y="608" on="1"/>
        <pt x="87" y="867" on="0"/>
        <pt x="271" y="1297" on="0"/>
        <pt x="604" y="1547" on="0"/>
        <pt x="818" y="1547" on="1"/>
        <pt x="977" y="1547" on="0"/>
        <pt x="1093" y="1470" on="1"/>
        <pt x="1218" y="1670" on="1"/>
        <pt x="1307" y="1621" on="1"/>
        <pt x="1172" y="1404" on="1"/>
        <pt x="1252" y="1319" on="0"/>
        <pt x="1335" y="1071" on="0"/>
        <pt x="1335" y="924" on="1"/>
      </contour>
      <contour>
        <pt x="663" y="1336" on="0"/>
        <pt x="475" y="1131" on="0"/>
        <pt x="372" y="806" on="0"/>
        <pt x="372" y="632" on="1"/>
        <pt x="372" y="470" on="0"/>
        <pt x="406" y="368" on="1"/>
        <pt x="953" y="1274" on="1"/>
        <pt x="891" y="1336" on="0"/>
        <pt x="783" y="1336" on="1"/>
      </contour>
      <contour>
        <pt x="760" y="194" on="0"/>
        <pt x="947" y="395" on="0"/>
        <pt x="1050" y="721" on="0"/>
        <pt x="1050" y="900" on="1"/>
        <pt x="1050" y="1075" on="0"/>
        <pt x="1012" y="1177" on="1"/>
        <pt x="460" y="267" on="1"/>
        <pt x="523" y="194" on="0"/>
        <pt x="639" y="194" on="1"/>
      </contour>
    </TTGlyph>
    <TTGlyph name="Oslashacute" xMin="87" yMin="-132" xMax="1335" yMax="2007">
      <component glyphName="Oslash" x="0" y="0" flags="0x0"/>
      <component glyphName="acute.cap" x="678" y="0" flags="0x0"/>
    </TTGlyph>
    <TTGlyph name="Otilde" xMin="87" yMin="-16" xMax="1335" yMax="1975">
      <component glyphName="tilde.cap" x="473" y="0" flags="0x0"/>
      <component glyphName="O" x="0" y="0" flags="0x0"/>
    </TTGlyph>
    <TTGlyph name="P" xMin="91" yMin="0" xMax="1244" yMax="1546">
      <contour>
        <pt x="433" y="1530" on="1"/>
        <pt x="482" y="1530" on="0"/>
        <pt x="564" y="1537" on="1"/>
        <pt x="574" y="1538" on="0"/>
        <pt x="688" y="1546" on="0"/>
        <pt x="745" y="1546" on="1"/>
        <pt x="985" y="1546" on="0"/>
        <pt x="1241" y="1339" on="0"/>
        <pt x="1242" y="1132" on="1"/>
        <pt x="1244" y="949" on="0"/>
        <pt x="1090" y="664" on="0"/>
        <pt x="801" y="504" on="0"/>
        <pt x="607" y="504" on="1"/>
        <pt x="484" y="504" on="0"/>
        <pt x="436" y="510" on="1"/>
        <pt x="367" y="0" on="1"/>
        <pt x="91" y="0" on="1"/>
        <pt x="297" y="1530" on="1"/>
      </contour>
      <contour>
        <pt x="954" y="717" on="0"/>
        <pt x="967" y="1108" on="1"/>
        <pt x="972" y="1228" on="0"/>
        <pt x="843" y="1349" on="0"/>
        <pt x="697" y="1349" on="1"/>
        <pt x="668" y="1349" on="0"/>
        <pt x="580" y="1340" on="0"/>
        <pt x="546" y="1334" on="1"/>
        <pt x="465" y="727" on="1"/>
        <pt x="487" y="722" on="0"/>
        <pt x="575" y="714" on="0"/>
        <pt x="613" y="714" on="1"/>
      </contour>
    </TTGlyph>
    <TTGlyph name="Q" xMin="87" yMin="-390" xMax="1335" yMax="1546">
      <contour>
        <pt x="716" y="-72" on="0"/>
        <pt x="786" y="-139" on="0"/>
        <pt x="899" y="-159" on="0"/>
        <pt x="985" y="-159" on="1"/>
        <pt x="1057" y="-159" on="0"/>
        <pt x="1192" y="-146" on="0"/>
        <pt x="1237" y="-132" on="1"/>
        <pt x="1237" y="-310" on="1"/>
        <pt x="1198" y="-343" on="0"/>
        <pt x="984" y="-390" on="0"/>
        <pt x="890" y="-390" on="1"/>
        <pt x="792" y="-390" on="0"/>
        <pt x="627" y="-334" on="0"/>
        <pt x="525" y="-209" on="0"/>
        <pt x="525" y="-113" on="1"/>
        <pt x="525" y="-65" on="0"/>
        <pt x="538" y="-12" on="1"/>
        <pt x="391" y="5" on="0"/>
        <pt x="188" y="177" on="0"/>
        <pt x="87" y="445" on="0"/>
        <pt x="87" y="607" on="1"/>
        <pt x="87" y="866" on="0"/>
        <pt x="271" y="1296" on="0"/>
        <pt x="604" y="1546" on="0"/>
        <pt x="818" y="1546" on="1"/>
        <pt x="985" y="1546" on="0"/>
        <pt x="1218" y="1379" on="0"/>
        <pt x="1335" y="1096" on="0"/>
        <pt x="1335" y="922" on="1"/>
        <pt x="1335" y="686" on="0"/>
        <pt x="1183" y="285" on="0"/>
        <pt x="903" y="24" on="0"/>
        <pt x="717" y="-7" on="1"/>
      </contour>
      <contour>
        <pt x="372" y="399" on="0"/>
        <pt x="503" y="193" on="0"/>
        <pt x="639" y="193" on="1"/>
        <pt x="760" y="193" on="0"/>
        <pt x="947" y="394" on="0"/>
        <pt x="1050" y="720" on="0"/>
        <pt x="1050" y="899" on="1"/>
        <pt x="1050" y="1056" on="0"/>
        <pt x="991" y="1248" on="0"/>
        <pt x="874" y="1335" on="0"/>
        <pt x="783" y="1335" on="1"/>
        <pt x="663" y="1335" on="0"/>
        <pt x="475" y="1130" on="0"/>
        <pt x="372" y="805" on="0"/>
        <pt x="372" y="631" on="1"/>
      </contour>
    </TTGlyph>
    <TTGlyph name="R" xMin="90" yMin="-1" xMax="1256" yMax="1546">
      <contour>
        <pt x="954" y="624" on="0"/>
        <pt x="1032" y="474" on="0"/>
        <pt x="1055" y="393" on="1"/>
        <pt x="1129" y="191" on="0"/>
        <pt x="1193" y="39" on="0"/>
        <pt x="1221" y="-1" on="1"/>
        <pt x="912" y="1" on="1"/>
        <pt x="895" y="26" on="0"/>
        <pt x="859" y="129" on="0"/>
        <pt x="819" y="258" on="1"/>
        <pt x="804" y="306" on="1"/>
        <pt x="766" y="444" on="0"/>
        <pt x="675" y="610" on="0"/>
        <pt x="630" y="612" on="1"/>
        <pt x="450" y="613" on="1"/>
        <pt x="366" y="0" on="1"/>
        <pt x="90" y="0" on="1"/>
        <pt x="296" y="1530" on="1"/>
        <pt x="448" y="1530" on="1"/>
        <pt x="506" y="1530" on="0"/>
        <pt x="592" y="1538" on="1"/>
        <pt x="684" y="1546" on="0"/>
        <pt x="747" y="1546" on="1"/>
        <pt x="1256" y="1546" on="0"/>
        <pt x="1256" y="1166" on="1"/>
        <pt x="1256" y="982" on="0"/>
        <pt x="1084" y="711" on="0"/>
        <pt x="914" y="660" on="1"/>
      </contour>
      <contour>
        <pt x="786" y="827" on="0"/>
        <pt x="916" y="916" on="0"/>
        <pt x="976" y="1061" on="0"/>
        <pt x="976" y="1146" on="1"/>
        <pt x="976" y="1251" on="0"/>
        <pt x="849" y="1347" on="0"/>
        <pt x="719" y="1347" on="1"/>
        <pt x="681" y="1347" on="0"/>
        <pt x="572" y="1339" on="0"/>
        <pt x="546" y="1334" on="1"/>
        <pt x="478" y="830" on="1"/>
        <pt x="531" y="827" on="0"/>
        <pt x="687" y="827" on="1"/>
      </contour>
    </TTGlyph>
    <TTGlyph name="Racute" xMin="90" yMin="-1" xMax="1256" yMax="2007">
      <component glyphName="R" x="0" y="0" flags="0x0"/>
      <component glyphName="acute.cap" x="657" y="0" flags="0x0"/>
    </TTGlyph>
    <TTGlyph name="Rcaron" xMin="96" yMin="-1" xMax="1262" yMax="2007">
      <component glyphName="caron.cap" x="401" y="0" flags="0x0"/>
      <component glyphName="R" x="6" y="0" flags="0x0"/>
    </TTGlyph>
    <TTGlyph name="Rcommaaccent" xMin="96" yMin="-560" xMax="1262" yMax="1546">
      <component glyphName="uni0326" x="829" y="0" flags="0x0"/>
      <component glyphName="R" x="6" y="0" flags="0x0"/>
    </TTGlyph>
    <TTGlyph name="S" xMin="12" yMin="-16" xMax="1027" yMax="1546">
      <contour>
        <pt x="125" y="279" on="0"/>
        <pt x="227" y="233" on="0"/>
        <pt x="349" y="203" on="0"/>
        <pt x="403" y="203" on="1"/>
        <pt x="524" y="203" on="0"/>
        <pt x="664" y="304" on="0"/>
        <pt x="664" y="400" on="1"/>
        <pt x="664" y="450" on="0"/>
        <pt x="626" y="535" on="0"/>
        <pt x="538" y="623" on="0"/>
        <pt x="461" y="677" on="1"/>
        <pt x="333" y="768" on="0"/>
        <pt x="176" y="978" on="0"/>
        <pt x="176" y="1119" on="1"/>
        <pt x="176" y="1249" on="0"/>
        <pt x="302" y="1443" on="0"/>
        <pt x="528" y="1546" on="0"/>
        <pt x="675" y="1546" on="1"/>
        <pt x="798" y="1546" on="0"/>
        <pt x="981" y="1495" on="0"/>
        <pt x="1027" y="1461" on="1"/>
        <pt x="940" y="1245" on="1"/>
        <pt x="901" y="1285" on="0"/>
        <pt x="748" y="1331" on="0"/>
        <pt x="677" y="1331" on="1"/>
        <pt x="577" y="1331" on="0"/>
        <pt x="447" y="1246" on="0"/>
        <pt x="444" y="1160" on="1"/>
        <pt x="442" y="1098" on="0"/>
        <pt x="488" y="1003" on="0"/>
        <pt x="577" y="919" on="0"/>
        <pt x="656" y="862" on="1"/>
        <pt x="742" y="798" on="0"/>
        <pt x="864" y="684" on="0"/>
        <pt x="948" y="529" on="0"/>
        <pt x="948" y="436" on="1"/>
        <pt x="948" y="290" on="0"/>
        <pt x="808" y="86" on="0"/>
        <pt x="557" y="-16" on="0"/>
        <pt x="393" y="-16" on="1"/>
        <pt x="317" y="-16" on="0"/>
        <pt x="158" y="14" on="0"/>
        <pt x="36" y="59" on="0"/>
        <pt x="12" y="78" on="1"/>
        <pt x="100" y="302" on="1"/>
      </contour>
    </TTGlyph>
    <TTGlyph name="Sacute" xMin="12" yMin="-16" xMax="1045" yMax="2007">
      <component glyphName="S" x="0" y="0" flags="0x0"/>
      <component glyphName="acute.cap" x="551" y="0" flags="0x0"/>
    </TTGlyph>
    <TTGlyph name="Scaron" xMin="12" yMin="-16" xMax="1090" yMax="2007">
      <component glyphName="S" x="0" y="0" flags="0x0"/>
      <component glyphName="caron.cap" x="289" y="0" flags="0x0"/>
    </TTGlyph>
    <TTGlyph name="Scedilla" xMin="12" yMin="-468" xMax="1027" yMax="1546">
      <contour>
        <pt x="742" y="798" on="0"/>
        <pt x="864" y="684" on="0"/>
        <pt x="948" y="529" on="0"/>
        <pt x="948" y="435" on="1"/>
        <pt x="948" y="252" on="0"/>
        <pt x="732" y="29" on="0"/>
        <pt x="544" y="-4" on="1"/>
        <pt x="559" y="-42" on="0"/>
        <pt x="579" y="-152" on="0"/>
        <pt x="579" y="-202" on="1"/>
        <pt x="579" y="-334" on="0"/>
        <pt x="430" y="-468" on="0"/>
        <pt x="290" y="-468" on="1"/>
        <pt x="247" y="-468" on="0"/>
        <pt x="111" y="-447" on="0"/>
        <pt x="95" y="-436" on="1"/>
        <pt x="126" y="-259" on="1"/>
        <pt x="154" y="-274" on="0"/>
        <pt x="201" y="-274" on="1"/>
        <pt x="281" y="-274" on="0"/>
        <pt x="370" y="-209" on="0"/>
        <pt x="372" y="-122" on="1"/>
        <pt x="373" y="-77" on="1"/>
        <pt x="373" y="-52" on="0"/>
        <pt x="371" y="-16" on="1"/>
        <pt x="298" y="-14" on="0"/>
        <pt x="149" y="17" on="0"/>
        <pt x="34" y="60" on="0"/>
        <pt x="12" y="78" on="1"/>
        <pt x="100" y="302" on="1"/>
        <pt x="125" y="279" on="0"/>
        <pt x="227" y="233" on="0"/>
        <pt x="349" y="203" on="0"/>
        <pt x="403" y="203" on="1"/>
        <pt x="524" y="203" on="0"/>
        <pt x="664" y="304" on="0"/>
        <pt x="664" y="400" on="1"/>
        <pt x="664" y="450" on="0"/>
        <pt x="626" y="535" on="0"/>
        <pt x="538" y="623" on="0"/>
        <pt x="461" y="677" on="1"/>
        <pt x="333" y="768" on="0"/>
        <pt x="176" y="978" on="0"/>
        <pt x="176" y="1119" on="1"/>
        <pt x="176" y="1249" on="0"/>
        <pt x="302" y="1443" on="0"/>
        <pt x="528" y="1546" on="0"/>
        <pt x="675" y="1546" on="1"/>
        <pt x="798" y="1546" on="0"/>
        <pt x="981" y="1495" on="0"/>
        <pt x="1027" y="1461" on="1"/>
        <pt x="940" y="1245" on="1"/>
        <pt x="901" y="1285" on="0"/>
        <pt x="748" y="1331" on="0"/>
        <pt x="677" y="1331" on="1"/>
        <pt x="577" y="1331" on="0"/>
        <pt x="447" y="1246" on="0"/>
        <pt x="444" y="1160" on="1"/>
        <pt x="442" y="1098" on="0"/>
        <pt x="488" y="1003" on="0"/>
        <pt x="577" y="919" on="0"/>
        <pt x="656" y="862" on="1"/>
      </contour>
    </TTGlyph>
    <TTGlyph name="Scircumflex" xMin="12" yMin="-16" xMax="1053" yMax="2007">
      <component glyphName="S" x="0" y="0" flags="0x0"/>
      <component glyphName="circumflex.cap" x="290" y="0" flags="0x0"/>
    </TTGlyph>
    <TTGlyph name="Scommaaccent" xMin="18" yMin="-560" xMax="1033" yMax="1546">
      <component glyphName="uni0326" x="657" y="0" flags="0x0"/>
      <component glyphName="S" x="6" y="0" flags="0x0"/>
    </TTGlyph>
    <TTGlyph name="T" xMin="133" yMin="0" xMax="1221" yMax="1530">
      <contour>
        <pt x="133" y="1314" on="1"/>
        <pt x="166" y="1530" on="1"/>
        <pt x="1221" y="1530" on="1"/>
        <pt x="1191" y="1314" on="1"/>
        <pt x="805" y="1325" on="1"/>
        <pt x="627" y="0" on="1"/>
        <pt x="348" y="0" on="1"/>
        <pt x="526" y="1325" on="1"/>
      </contour>
    </TTGlyph>
    <TTGlyph name="Tbar" xMin="139" yMin="0" xMax="1227" yMax="1530">
      <contour>
        <pt x="811" y="1325" on="1"/>
        <pt x="750" y="869" on="1"/>
        <pt x="1008" y="869" on="1"/>
        <pt x="985" y="679" on="1"/>
        <pt x="724" y="679" on="1"/>
        <pt x="633" y="0" on="1"/>
        <pt x="354" y="0" on="1"/>
        <pt x="445" y="679" on="1"/>
        <pt x="196" y="679" on="1"/>
        <pt x="219" y="869" on="1"/>
        <pt x="471" y="869" on="1"/>
        <pt x="532" y="1325" on="1"/>
        <pt x="139" y="1314" on="1"/>
        <pt x="172" y="1530" on="1"/>
        <pt x="1227" y="1530" on="1"/>
        <pt x="1197" y="1314" on="1"/>
      </contour>
    </TTGlyph>
    <TTGlyph name="Tcaron" xMin="139" yMin="0" xMax="1227" yMax="2007">
      <component glyphName="caron.cap" x="332" y="0" flags="0x0"/>
      <component glyphName="T" x="6" y="0" flags="0x0"/>
    </TTGlyph>
    <TTGlyph name="Thorn" xMin="93" yMin="0" xMax="1215" yMax="1530">
      <contour>
        <pt x="1215" y="705" on="0"/>
        <pt x="1061" y="423" on="0"/>
        <pt x="771" y="264" on="0"/>
        <pt x="578" y="264" on="1"/>
        <pt x="504" y="264" on="0"/>
        <pt x="409" y="275" on="1"/>
        <pt x="373" y="0" on="1"/>
        <pt x="93" y="0" on="1"/>
        <pt x="297" y="1530" on="1"/>
        <pt x="576" y="1530" on="1"/>
        <pt x="543" y="1284" on="1"/>
        <pt x="638" y="1293" on="0"/>
        <pt x="716" y="1293" on="1"/>
        <pt x="956" y="1293" on="0"/>
        <pt x="1212" y="1088" on="0"/>
        <pt x="1213" y="885" on="1"/>
      </contour>
      <contour>
        <pt x="944" y="976" on="0"/>
        <pt x="814" y="1095" on="0"/>
        <pt x="668" y="1095" on="1"/>
        <pt x="634" y="1095" on="0"/>
        <pt x="548" y="1088" on="0"/>
        <pt x="517" y="1082" on="1"/>
        <pt x="517" y="1083" on="1"/>
        <pt x="438" y="488" on="1"/>
        <pt x="461" y="482" on="0"/>
        <pt x="547" y="474" on="0"/>
        <pt x="584" y="475" on="1"/>
        <pt x="758" y="476" on="0"/>
        <pt x="933" y="674" on="0"/>
        <pt x="939" y="861" on="1"/>
      </contour>
    </TTGlyph>
    <TTGlyph name="U" xMin="131" yMin="-16" xMax="1381" yMax="1530">
      <contour>
        <pt x="269" y="1530" on="1"/>
        <pt x="545" y="1530" on="1"/>
        <pt x="425" y="635" on="1"/>
        <pt x="413" y="538" on="0"/>
        <pt x="413" y="443" on="1"/>
        <pt x="415" y="315" on="0"/>
        <pt x="532" y="200" on="0"/>
        <pt x="653" y="200" on="1"/>
        <pt x="749" y="200" on="0"/>
        <pt x="881" y="285" on="0"/>
        <pt x="967" y="477" on="0"/>
        <pt x="989" y="639" on="1"/>
        <pt x="1108" y="1530" on="1"/>
        <pt x="1381" y="1530" on="1"/>
        <pt x="1259" y="612" on="1"/>
        <pt x="1228" y="385" on="0"/>
        <pt x="1070" y="109" on="0"/>
        <pt x="807" y="-16" on="0"/>
        <pt x="612" y="-16" on="1"/>
        <pt x="371" y="-16" on="0"/>
        <pt x="131" y="223" on="0"/>
        <pt x="131" y="441" on="1"/>
        <pt x="131" y="493" on="0"/>
        <pt x="144" y="595" on="1"/>
      </contour>
    </TTGlyph>
    <TTGlyph name="Uacute" xMin="131" yMin="-16" xMax="1381" yMax="2007">
      <component glyphName="acute.cap" x="709" y="0" flags="0x0"/>
      <component glyphName="U" x="0" y="0" flags="0x0"/>
    </TTGlyph>
    <TTGlyph name="Ubreve" xMin="131" yMin="-16" xMax="1381" yMax="1997">
      <component glyphName="breve.cap" x="493" y="0" flags="0x0"/>
      <component glyphName="U" x="0" y="0" flags="0x0"/>
    </TTGlyph>
    <TTGlyph name="Ucircumflex" xMin="131" yMin="-16" xMax="1381" yMax="2007">
      <component glyphName="U" x="0" y="0" flags="0x0"/>
      <component glyphName="circumflex.cap" x="448" y="0" flags="0x0"/>
    </TTGlyph>
    <TTGlyph name="Udieresis" xMin="131" yMin="-16" xMax="1381" yMax="1977">
      <component glyphName="dieresis.cap" x="364" y="0" flags="0x0"/>
      <component glyphName="U" x="0" y="0" flags="0x0"/>
    </TTGlyph>
    <TTGlyph name="Ugrave" xMin="131" yMin="-16" xMax="1381" yMax="2007">
      <component glyphName="grave.cap" x="469" y="0" flags="0x0"/>
      <component glyphName="U" x="0" y="0" flags="0x0"/>
    </TTGlyph>
    <TTGlyph name="Uhungarumlaut" xMin="131" yMin="-16" xMax="1408" yMax="2007">
      <component glyphName="U" x="0" y="0" flags="0x0"/>
      <component glyphName="hungarumlaut.cap" x="493" y="0" flags="0x0"/>
    </TTGlyph>
    <TTGlyph name="Umacron" xMin="131" yMin="-16" xMax="1381" yMax="1897">
      <component glyphName="macron.cap" x="522" y="0" flags="0x0"/>
      <component glyphName="U" x="0" y="0" flags="0x0"/>
    </TTGlyph>
    <TTGlyph name="Uogonek" xMin="137" yMin="-473" xMax="1387" yMax="1530">
      <contour>
        <pt x="1387" y="1530" on="1"/>
        <pt x="1265" y="612" on="1"/>
        <pt x="1233" y="375" on="0"/>
        <pt x="1064" y="95" on="0"/>
        <pt x="919" y="35" on="1"/>
        <pt x="834" y="-40" on="0"/>
        <pt x="713" y="-178" on="0"/>
        <pt x="713" y="-213" on="1"/>
        <pt x="713" y="-251" on="0"/>
        <pt x="750" y="-282" on="0"/>
        <pt x="778" y="-282" on="1"/>
        <pt x="814" y="-282" on="0"/>
        <pt x="879" y="-258" on="0"/>
        <pt x="920" y="-227" on="1"/>
        <pt x="966" y="-364" on="1"/>
        <pt x="915" y="-413" on="0"/>
        <pt x="771" y="-473" on="0"/>
        <pt x="679" y="-473" on="1"/>
        <pt x="616" y="-473" on="0"/>
        <pt x="524" y="-423" on="0"/>
        <pt x="476" y="-343" on="0"/>
        <pt x="476" y="-299" on="1"/>
        <pt x="476" y="-215" on="0"/>
        <pt x="624" y="-62" on="0"/>
        <pt x="714" y="-12" on="1"/>
        <pt x="673" y="-16" on="0"/>
        <pt x="618" y="-16" on="1"/>
        <pt x="377" y="-16" on="0"/>
        <pt x="137" y="223" on="0"/>
        <pt x="137" y="441" on="1"/>
        <pt x="137" y="493" on="0"/>
        <pt x="150" y="595" on="1"/>
        <pt x="275" y="1530" on="1"/>
        <pt x="551" y="1530" on="1"/>
        <pt x="431" y="635" on="1"/>
        <pt x="419" y="538" on="0"/>
        <pt x="419" y="443" on="1"/>
        <pt x="421" y="315" on="0"/>
        <pt x="538" y="200" on="0"/>
        <pt x="659" y="200" on="1"/>
        <pt x="755" y="200" on="0"/>
        <pt x="887" y="285" on="0"/>
        <pt x="973" y="477" on="0"/>
        <pt x="995" y="639" on="1"/>
        <pt x="1114" y="1530" on="1"/>
      </contour>
    </TTGlyph>
    <TTGlyph name="Uring" xMin="131" yMin="-16" xMax="1381" yMax="2007">
      <component glyphName="U" x="0" y="0" flags="0x0"/>
      <component glyphName="ring.cap" x="480" y="0" flags="0x0"/>
    </TTGlyph>
    <TTGlyph name="Utilde" xMin="131" yMin="-16" xMax="1381" yMax="1975">
      <component glyphName="tilde.cap" x="457" y="0" flags="0x0"/>
      <component glyphName="U" x="0" y="0" flags="0x0"/>
    </TTGlyph>
    <TTGlyph name="V" xMin="116" yMin="0" xMax="1343" yMax="1530">
      <contour>
        <pt x="392" y="1530" on="1"/>
        <pt x="532" y="490" on="1"/>
        <pt x="553" y="248" on="1"/>
        <pt x="635" y="490" on="1"/>
        <pt x="1051" y="1530" on="1"/>
        <pt x="1343" y="1530" on="1"/>
        <pt x="665" y="0" on="1"/>
        <pt x="354" y="0" on="1"/>
        <pt x="116" y="1530" on="1"/>
      </contour>
    </TTGlyph>
    <TTGlyph name="W" xMin="112" yMin="-5" xMax="1945" yMax="1530">
      <contour>
        <pt x="1945" y="1530" on="1"/>
        <pt x="1333" y="-5" on="1"/>
        <pt x="1025" y="-5" on="1"/>
        <pt x="949" y="698" on="1"/>
        <pt x="933" y="867" on="1"/>
        <pt x="875" y="698" on="1"/>
        <pt x="610" y="-5" on="1"/>
        <pt x="320" y="-5" on="1"/>
        <pt x="112" y="1530" on="1"/>
        <pt x="389" y="1530" on="1"/>
        <pt x="489" y="493" on="1"/>
        <pt x="515" y="274" on="1"/>
        <pt x="579" y="493" on="1"/>
        <pt x="880" y="1252" on="1"/>
        <pt x="849" y="1530" on="1"/>
        <pt x="1117" y="1530" on="1"/>
        <pt x="1205" y="493" on="1"/>
        <pt x="1224" y="274" on="1"/>
        <pt x="1287" y="493" on="1"/>
        <pt x="1663" y="1530" on="1"/>
      </contour>
    </TTGlyph>
    <TTGlyph name="Wacute" xMin="118" yMin="-5" xMax="1951" yMax="2007">
      <component glyphName="acute.cap" x="916" y="0" flags="0x0"/>
      <component glyphName="W" x="6" y="0" flags="0x0"/>
    </TTGlyph>
    <TTGlyph name="Wcircumflex" xMin="112" yMin="-5" xMax="1945" yMax="2007">
      <component glyphName="W" x="0" y="0" flags="0x0"/>
      <component glyphName="circumflex.cap" x="649" y="0" flags="0x0"/>
    </TTGlyph>
    <TTGlyph name="Wdieresis" xMin="118" yMin="-5" xMax="1951" yMax="1977">
      <component glyphName="dieresis.cap" x="570" y="0" flags="0x0"/>
      <component glyphName="W" x="6" y="0" flags="0x0"/>
    </TTGlyph>
    <TTGlyph name="Wgrave" xMin="118" yMin="-5" xMax="1951" yMax="2007">
      <component glyphName="grave.cap" x="676" y="0" flags="0x0"/>
      <component glyphName="W" x="6" y="0" flags="0x0"/>
    </TTGlyph>
    <TTGlyph name="X" xMin="-79" yMin="-1" xMax="1322" yMax="1530">
      <contour>
        <pt x="162" y="1530" on="1"/>
        <pt x="461" y="1530" on="1"/>
        <pt x="664" y="985" on="1"/>
        <pt x="1017" y="1530" on="1"/>
        <pt x="1322" y="1530" on="1"/>
        <pt x="782" y="744" on="1"/>
        <pt x="1129" y="0" on="1"/>
        <pt x="822" y="-1" on="1"/>
        <pt x="597" y="575" on="1"/>
        <pt x="239" y="0" on="1"/>
        <pt x="-79" y="0" on="1"/>
        <pt x="482" y="801" on="1"/>
      </contour>
    </TTGlyph>
    <TTGlyph name="Y" xMin="83" yMin="0" xMax="1297" yMax="1530">
      <contour>
        <pt x="83" y="1530" on="1"/>
        <pt x="375" y="1530" on="1"/>
        <pt x="570" y="922" on="1"/>
        <pt x="598" y="817" on="1"/>
        <pt x="646" y="922" on="1"/>
        <pt x="994" y="1530" on="1"/>
        <pt x="1297" y="1530" on="1"/>
        <pt x="700" y="590" on="1"/>
        <pt x="620" y="0" on="1"/>
        <pt x="349" y="0" on="1"/>
        <pt x="429" y="590" on="1"/>
      </contour>
    </TTGlyph>
    <TTGlyph name="Yacute" xMin="83" yMin="0" xMax="1297" yMax="2007">
      <component glyphName="Y" x="0" y="0" flags="0x0"/>
      <component glyphName="acute.cap" x="566" y="0" flags="0x0"/>
    </TTGlyph>
    <TTGlyph name="Ycircumflex" xMin="83" yMin="0" xMax="1297" yMax="2007">
      <component glyphName="Y" x="0" y="0" flags="0x0"/>
      <component glyphName="circumflex.cap" x="305" y="0" flags="0x0"/>
    </TTGlyph>
    <TTGlyph name="Ydieresis" xMin="83" yMin="0" xMax="1297" yMax="1977">
      <component glyphName="Y" x="0" y="0" flags="0x0"/>
      <component glyphName="dieresis.cap" x="221" y="0" flags="0x0"/>
    </TTGlyph>
    <TTGlyph name="Ygrave" xMin="83" yMin="0" xMax="1297" yMax="2007">
      <component glyphName="Y" x="0" y="0" flags="0x0"/>
      <component glyphName="grave.cap" x="326" y="0" flags="0x0"/>
    </TTGlyph>
    <TTGlyph name="Z" xMin="-27" yMin="0" xMax="1220" yMax="1530">
      <contour>
        <pt x="750" y="1203" on="1"/>
        <pt x="864" y="1316" on="1"/>
        <pt x="225" y="1304" on="1"/>
        <pt x="259" y="1530" on="1"/>
        <pt x="1196" y="1530" on="1"/>
        <pt x="1220" y="1444" on="1"/>
        <pt x="459" y="330" on="1"/>
        <pt x="355" y="220" on="1"/>
        <pt x="1040" y="231" on="1"/>
        <pt x="1003" y="0" on="1"/>
        <pt x="1" y="0" on="1"/>
        <pt x="-27" y="89" on="1"/>
      </contour>
    </TTGlyph>
    <TTGlyph name="Zacute" xMin="-27" yMin="0" xMax="1220" yMax="2007">
      <component glyphName="Z" x="0" y="0" flags="0x0"/>
      <component glyphName="acute.cap" x="629" y="0" flags="0x0"/>
    </TTGlyph>
    <TTGlyph name="Zcaron" xMin="-27" yMin="0" xMax="1220" yMax="2007">
      <component glyphName="caron.cap" x="367" y="0" flags="0x0"/>
      <component glyphName="Z" x="0" y="0" flags="0x0"/>
    </TTGlyph>
    <TTGlyph name="Zdotaccent" xMin="-27" yMin="0" xMax="1220" yMax="1967">
      <component glyphName="dotaccent.cap" x="584" y="0" flags="0x0"/>
      <component glyphName="Z" x="0" y="0" flags="0x0"/>
    </TTGlyph>
    <TTGlyph name="a" xMin="76" yMin="-16" xMax="1132" yMax="1156">
      <contour>
        <pt x="1132" y="1156" on="1"/>
        <pt x="973" y="0" on="1"/>
        <pt x="727" y="0" on="1"/>
        <pt x="741" y="218" on="1"/>
        <pt x="684" y="120" on="0"/>
        <pt x="509" y="-16" on="0"/>
        <pt x="399" y="-16" on="1"/>
        <pt x="233" y="-16" on="0"/>
        <pt x="76" y="218" on="0"/>
        <pt x="76" y="414" on="1"/>
        <pt x="76" y="595" on="0"/>
        <pt x="226" y="936" on="0"/>
        <pt x="529" y="1156" on="0"/>
        <pt x="746" y="1156" on="1"/>
        <pt x="800" y="1156" on="0"/>
        <pt x="930" y="1133" on="0"/>
        <pt x="983" y="1117" on="1"/>
      </contour>
      <contour>
        <pt x="561" y="180" on="0"/>
        <pt x="714" y="368" on="0"/>
        <pt x="766" y="486" on="1"/>
        <pt x="834" y="966" on="1"/>
        <pt x="785" y="980" on="0"/>
        <pt x="718" y="980" on="1"/>
        <pt x="602" y="980" on="0"/>
        <pt x="442" y="816" on="0"/>
        <pt x="363" y="565" on="0"/>
        <pt x="363" y="437" on="1"/>
        <pt x="363" y="307" on="0"/>
        <pt x="422" y="180" on="0"/>
        <pt x="479" y="180" on="1"/>
      </contour>
    </TTGlyph>
    <TTGlyph name="aacute" xMin="76" yMin="-16" xMax="1132" yMax="1746">
      <component glyphName="a" x="0" y="0" flags="0x0"/>
      <component glyphName="acute" x="597" y="2" flags="0x4"/>
    </TTGlyph>
    <TTGlyph name="abreve" xMin="76" yMin="-16" xMax="1132" yMax="1668">
      <component glyphName="a" x="0" y="0" flags="0x0"/>
      <component glyphName="breve" x="410" y="2" flags="0x4"/>
    </TTGlyph>
    <TTGlyph name="acircumflex" xMin="76" yMin="-16" xMax="1132" yMax="1662">
      <component glyphName="a" x="0" y="0" flags="0x0"/>
      <component glyphName="circumflex" x="341" y="2" flags="0x4"/>
    </TTGlyph>
    <TTGlyph name="acute" xMin="34" yMin="1234" xMax="535" yMax="1744">
      <contour>
        <pt x="355" y="1744" on="1"/>
        <pt x="535" y="1575" on="1"/>
        <pt x="517" y="1540" on="0"/>
        <pt x="367" y="1391" on="0"/>
        <pt x="194" y="1256" on="0"/>
        <pt x="138" y="1234" on="1"/>
        <pt x="34" y="1319" on="1"/>
      </contour>
    </TTGlyph>
    <TTGlyph name="acute.cap" xMin="50" yMin="1572" xMax="494" yMax="2007">
      <contour>
        <pt x="327" y="2007" on="1"/>
        <pt x="494" y="1850" on="1"/>
        <pt x="467" y="1800" on="0"/>
        <pt x="345" y="1684" on="0"/>
        <pt x="207" y="1590" on="0"/>
        <pt x="158" y="1572" on="1"/>
        <pt x="50" y="1665" on="1"/>
      </contour>
    </TTGlyph>
    <TTGlyph name="adieresis" xMin="76" yMin="-16" xMax="1152" yMax="1678">
      <component glyphName="a" x="0" y="0" flags="0x0"/>
      <component glyphName="dieresis" x="375" y="2" flags="0x4"/>
    </TTGlyph>
    <TTGlyph name="ae" xMin="75" yMin="-16" xMax="1639" yMax="1156">
      <contour>
        <pt x="1258" y="182" on="0"/>
        <pt x="1439" y="275" on="0"/>
        <pt x="1504" y="343" on="1"/>
        <pt x="1577" y="202" on="1"/>
        <pt x="1544" y="155" on="0"/>
        <pt x="1412" y="54" on="0"/>
        <pt x="1226" y="-16" on="0"/>
        <pt x="1121" y="-16" on="1"/>
        <pt x="960" y="-16" on="0"/>
        <pt x="763" y="145" on="0"/>
        <pt x="727" y="277" on="1"/>
        <pt x="668" y="153" on="0"/>
        <pt x="496" y="-16" on="0"/>
        <pt x="383" y="-16" on="1"/>
        <pt x="219" y="-16" on="0"/>
        <pt x="75" y="214" on="0"/>
        <pt x="75" y="414" on="1"/>
        <pt x="75" y="595" on="0"/>
        <pt x="230" y="936" on="0"/>
        <pt x="544" y="1156" on="0"/>
        <pt x="770" y="1156" on="1"/>
        <pt x="847" y="1156" on="0"/>
        <pt x="982" y="1123" on="0"/>
        <pt x="1045" y="1084" on="1"/>
        <pt x="1172" y="1156" on="0"/>
        <pt x="1328" y="1156" on="1"/>
        <pt x="1483" y="1156" on="0"/>
        <pt x="1639" y="1018" on="0"/>
        <pt x="1639" y="900" on="1"/>
        <pt x="1639" y="687" on="0"/>
        <pt x="1263" y="451" on="0"/>
        <pt x="999" y="404" on="1"/>
        <pt x="993" y="182" on="0"/>
        <pt x="1176" y="182" on="1"/>
      </contour>
      <contour>
        <pt x="1190" y="984" on="0"/>
        <pt x="1073" y="847" on="0"/>
        <pt x="1005" y="650" on="0"/>
        <pt x="999" y="563" on="1"/>
        <pt x="1073" y="567" on="0"/>
        <pt x="1248" y="650" on="0"/>
        <pt x="1369" y="790" on="0"/>
        <pt x="1369" y="874" on="1"/>
        <pt x="1369" y="933" on="0"/>
        <pt x="1317" y="984" on="0"/>
        <pt x="1267" y="984" on="1"/>
      </contour>
      <contour>
        <pt x="715" y="614" on="0"/>
        <pt x="805" y="860" on="0"/>
        <pt x="883" y="951" on="1"/>
        <pt x="816" y="980" on="0"/>
        <pt x="742" y="980" on="1"/>
        <pt x="618" y="980" on="0"/>
        <pt x="446" y="816" on="0"/>
        <pt x="362" y="565" on="0"/>
        <pt x="362" y="437" on="1"/>
        <pt x="362" y="306" on="0"/>
        <pt x="412" y="191" on="0"/>
        <pt x="468" y="191" on="1"/>
        <pt x="531" y="191" on="0"/>
        <pt x="658" y="354" on="0"/>
        <pt x="709" y="469" on="1"/>
      </contour>
    </TTGlyph>
    <TTGlyph name="aeacute" xMin="75" yMin="-16" xMax="1639" yMax="1744">
      <component glyphName="acute" x="806" y="0" flags="0x0"/>
      <component glyphName="ae" x="0" y="0" flags="0x0"/>
    </TTGlyph>
    <TTGlyph name="agrave" xMin="76" yMin="-16" xMax="1132" yMax="1746">
      <component glyphName="a" x="0" y="0" flags="0x0"/>
      <component glyphName="grave" x="318" y="2" flags="0x4"/>
    </TTGlyph>
    <TTGlyph name="amacron" xMin="76" yMin="-16" xMax="1132" yMax="1596">
      <component glyphName="a" x="0" y="0" flags="0x0"/>
      <component glyphName="macron" x="440" y="2" flags="0x4"/>
    </TTGlyph>
    <TTGlyph name="ampersand" xMin="50" yMin="-18" xMax="1518" yMax="1546">
      <contour>
        <pt x="1504" y="639" on="1"/>
        <pt x="1353" y="639" on="1"/>
        <pt x="1356" y="615" on="0"/>
        <pt x="1356" y="586" on="1"/>
        <pt x="1356" y="464" on="0"/>
        <pt x="1278" y="264" on="0"/>
        <pt x="1205" y="189" on="1"/>
        <pt x="1285" y="155" on="0"/>
        <pt x="1400" y="152" on="1"/>
        <pt x="1416" y="151" on="0"/>
        <pt x="1457" y="151" on="1"/>
        <pt x="1426" y="1" on="1"/>
        <pt x="1395" y="-8" on="0"/>
        <pt x="1275" y="-18" on="0"/>
        <pt x="1225" y="-18" on="1"/>
        <pt x="1168" y="-18" on="0"/>
        <pt x="1032" y="12" on="0"/>
        <pt x="975" y="41" on="1"/>
        <pt x="821" y="-17" on="0"/>
        <pt x="629" y="-17" on="1"/>
        <pt x="367" y="-17" on="0"/>
        <pt x="50" y="171" on="0"/>
        <pt x="50" y="365" on="1"/>
        <pt x="50" y="459" on="0"/>
        <pt x="138" y="609" on="0"/>
        <pt x="281" y="724" on="0"/>
        <pt x="383" y="782" on="1"/>
        <pt x="346" y="865" on="0"/>
        <pt x="299" y="1045" on="0"/>
        <pt x="299" y="1118" on="1"/>
        <pt x="299" y="1239" on="0"/>
        <pt x="410" y="1434" on="0"/>
        <pt x="616" y="1546" on="0"/>
        <pt x="753" y="1546" on="1"/>
        <pt x="884" y="1546" on="0"/>
        <pt x="1055" y="1453" on="0"/>
        <pt x="1133" y="1312" on="0"/>
        <pt x="1133" y="1238" on="1"/>
        <pt x="1133" y="1122" on="0"/>
        <pt x="1012" y="942" on="0"/>
        <pt x="835" y="813" on="0"/>
        <pt x="698" y="736" on="1"/>
        <pt x="858" y="472" on="0"/>
        <pt x="1027" y="315" on="1"/>
        <pt x="1102" y="404" on="0"/>
        <pt x="1102" y="532" on="1"/>
        <pt x="1102" y="584" on="0"/>
        <pt x="1091" y="637" on="1"/>
        <pt x="1024" y="631" on="0"/>
        <pt x="989" y="611" on="1"/>
        <pt x="999" y="790" on="1"/>
        <pt x="1035" y="830" on="0"/>
        <pt x="1151" y="830" on="1"/>
        <pt x="1518" y="829" on="1"/>
      </contour>
      <contour>
        <pt x="554" y="1026" on="0"/>
        <pt x="607" y="902" on="1"/>
        <pt x="738" y="973" on="0"/>
        <pt x="878" y="1114" on="0"/>
        <pt x="878" y="1207" on="1"/>
        <pt x="878" y="1283" on="0"/>
        <pt x="803" y="1370" on="0"/>
        <pt x="730" y="1370" on="1"/>
        <pt x="677" y="1370" on="0"/>
        <pt x="597" y="1308" on="0"/>
        <pt x="554" y="1203" on="0"/>
        <pt x="554" y="1140" on="1"/>
      </contour>
      <contour>
        <pt x="325" y="269" on="0"/>
        <pt x="506" y="171" on="0"/>
        <pt x="649" y="171" on="1"/>
        <pt x="730" y="171" on="0"/>
        <pt x="800" y="187" on="1"/>
        <pt x="694" y="291" on="0"/>
        <pt x="561" y="472" on="0"/>
        <pt x="480" y="607" on="1"/>
        <pt x="405" y="555" on="0"/>
        <pt x="325" y="446" on="0"/>
        <pt x="325" y="382" on="1"/>
      </contour>
    </TTGlyph>
    <TTGlyph name="aogonek" xMin="84" yMin="-473" xMax="1140" yMax="1156">
      <contour>
        <pt x="847" y="-282" on="0"/>
        <pt x="912" y="-257" on="0"/>
        <pt x="953" y="-227" on="1"/>
        <pt x="999" y="-364" on="1"/>
        <pt x="949" y="-413" on="0"/>
        <pt x="804" y="-473" on="0"/>
        <pt x="712" y="-473" on="1"/>
        <pt x="649" y="-473" on="0"/>
        <pt x="557" y="-423" on="0"/>
        <pt x="509" y="-343" on="0"/>
        <pt x="509" y="-299" on="1"/>
        <pt x="509" y="-234" on="0"/>
        <pt x="597" y="-115" on="0"/>
        <pt x="716" y="-27" on="0"/>
        <pt x="771" y="0" on="1"/>
        <pt x="735" y="0" on="1"/>
        <pt x="749" y="218" on="1"/>
        <pt x="692" y="120" on="0"/>
        <pt x="517" y="-16" on="0"/>
        <pt x="407" y="-16" on="1"/>
        <pt x="241" y="-16" on="0"/>
        <pt x="84" y="218" on="0"/>
        <pt x="84" y="414" on="1"/>
        <pt x="84" y="595" on="0"/>
        <pt x="234" y="936" on="0"/>
        <pt x="537" y="1156" on="0"/>
        <pt x="754" y="1156" on="1"/>
        <pt x="808" y="1156" on="0"/>
        <pt x="938" y="1133" on="0"/>
        <pt x="991" y="1117" on="1"/>
        <pt x="1140" y="1156" on="1"/>
        <pt x="981" y="0" on="1"/>
        <pt x="973" y="0" on="1"/>
        <pt x="882" y="-47" on="0"/>
        <pt x="747" y="-165" on="0"/>
        <pt x="747" y="-213" on="1"/>
        <pt x="747" y="-251" on="0"/>
        <pt x="784" y="-282" on="0"/>
        <pt x="812" y="-282" on="1"/>
      </contour>
      <contour>
        <pt x="569" y="180" on="0"/>
        <pt x="722" y="368" on="0"/>
        <pt x="774" y="486" on="1"/>
        <pt x="842" y="966" on="1"/>
        <pt x="793" y="980" on="0"/>
        <pt x="726" y="980" on="1"/>
        <pt x="610" y="980" on="0"/>
        <pt x="450" y="816" on="0"/>
        <pt x="371" y="565" on="0"/>
        <pt x="371" y="437" on="1"/>
        <pt x="371" y="307" on="0"/>
        <pt x="430" y="180" on="0"/>
        <pt x="487" y="180" on="1"/>
      </contour>
    </TTGlyph>
    <TTGlyph name="approxequal" xMin="25" yMin="261" xMax="1079" yMax="1118">
      <component glyphName="asciitilde" x="-79" y="-435" flags="0x4"/>
      <component glyphName="asciitilde" x="-19" y="36" flags="0x4"/>
    </TTGlyph>
    <TTGlyph name="aring" xMin="76" yMin="-16" xMax="1132" yMax="1797">
      <component glyphName="a" x="0" y="0" flags="0x0"/>
      <component glyphName="ring" x="398" y="2" flags="0x4"/>
    </TTGlyph>
    <TTGlyph name="asciicircum" xMin="151" yMin="510" xMax="1166" yMax="1531">
      <contour>
        <pt x="904" y="1531" on="1"/>
        <pt x="1166" y="510" on="1"/>
        <pt x="945" y="510" on="1"/>
        <pt x="764" y="1249" on="1"/>
        <pt x="376" y="510" on="1"/>
        <pt x="151" y="510" on="1"/>
        <pt x="672" y="1531" on="1"/>
      </contour>
    </TTGlyph>
    <TTGlyph name="asciitilde" xMin="104" yMin="696" xMax="1098" yMax="1082">
      <contour>
        <pt x="120" y="917" on="0"/>
        <pt x="221" y="1017" on="0"/>
        <pt x="360" y="1082" on="0"/>
        <pt x="431" y="1082" on="1"/>
        <pt x="493" y="1082" on="0"/>
        <pt x="589" y="1032" on="0"/>
        <pt x="651" y="985" on="1"/>
        <pt x="702" y="946" on="0"/>
        <pt x="766" y="910" on="0"/>
        <pt x="803" y="910" on="1"/>
        <pt x="918" y="910" on="0"/>
        <pt x="995" y="1022" on="1"/>
        <pt x="1098" y="916" on="1"/>
        <pt x="1084" y="861" on="0"/>
        <pt x="986" y="759" on="0"/>
        <pt x="848" y="696" on="0"/>
        <pt x="776" y="696" on="1"/>
        <pt x="732" y="696" on="0"/>
        <pt x="657" y="723" on="0"/>
        <pt x="599" y="762" on="0"/>
        <pt x="560" y="794" on="1"/>
        <pt x="511" y="834" on="0"/>
        <pt x="443" y="873" on="0"/>
        <pt x="401" y="873" on="1"/>
        <pt x="344" y="873" on="0"/>
        <pt x="250" y="810" on="0"/>
        <pt x="214" y="760" on="1"/>
        <pt x="104" y="867" on="1"/>
      </contour>
    </TTGlyph>
    <TTGlyph name="asterisk" xMin="192" yMin="613" xMax="1270" yMax="1687">
      <contour>
        <pt x="495" y="1099" on="1"/>
        <pt x="631" y="1150" on="1"/>
        <pt x="506" y="1200" on="1"/>
        <pt x="229" y="1325" on="1"/>
        <pt x="351" y="1512" on="1"/>
        <pt x="589" y="1325" on="1"/>
        <pt x="688" y="1237" on="1"/>
        <pt x="682" y="1376" on="1"/>
        <pt x="679" y="1687" on="1"/>
        <pt x="894" y="1687" on="1"/>
        <pt x="826" y="1376" on="1"/>
        <pt x="788" y="1237" on="1"/>
        <pt x="909" y="1325" on="1"/>
        <pt x="1183" y="1513" on="1"/>
        <pt x="1270" y="1325" on="1"/>
        <pt x="967" y="1200" on="1"/>
        <pt x="832" y="1149" on="1"/>
        <pt x="957" y="1099" on="1"/>
        <pt x="1234" y="976" on="1"/>
        <pt x="1101" y="789" on="1"/>
        <pt x="872" y="975" on="1"/>
        <pt x="770" y="1066" on="1"/>
        <pt x="781" y="925" on="1"/>
        <pt x="788" y="613" on="1"/>
        <pt x="567" y="614" on="1"/>
        <pt x="635" y="925" on="1"/>
        <pt x="670" y="1066" on="1"/>
        <pt x="554" y="975" on="1"/>
        <pt x="284" y="787" on="1"/>
        <pt x="192" y="976" on="1"/>
      </contour>
    </TTGlyph>
    <TTGlyph name="at" xMin="112" yMin="-440" xMax="1918" yMax="1545">
      <contour>
        <pt x="1423" y="1545" on="0"/>
        <pt x="1745" y="1387" on="0"/>
        <pt x="1918" y="1095" on="0"/>
        <pt x="1918" y="899" on="1"/>
        <pt x="1918" y="631" on="0"/>
        <pt x="1728" y="227" on="0"/>
        <pt x="1438" y="11" on="0"/>
        <pt x="1293" y="11" on="1"/>
        <pt x="1234" y="11" on="0"/>
        <pt x="1188" y="108" on="0"/>
        <pt x="1188" y="195" on="1"/>
        <pt x="1188" y="253" on="0"/>
        <pt x="1200" y="371" on="1"/>
        <pt x="1129" y="204" on="0"/>
        <pt x="939" y="7" on="0"/>
        <pt x="832" y="7" on="1"/>
        <pt x="761" y="7" on="0"/>
        <pt x="626" y="100" on="0"/>
        <pt x="539" y="288" on="0"/>
        <pt x="539" y="423" on="1"/>
        <pt x="539" y="586" on="0"/>
        <pt x="665" y="899" on="0"/>
        <pt x="916" y="1102" on="0"/>
        <pt x="1094" y="1102" on="1"/>
        <pt x="1145" y="1102" on="0"/>
        <pt x="1276" y="1074" on="0"/>
        <pt x="1314" y="1048" on="1"/>
        <pt x="1494" y="1078" on="1"/>
        <pt x="1467" y="973" on="0"/>
        <pt x="1411" y="574" on="0"/>
        <pt x="1395" y="400" on="1"/>
        <pt x="1388" y="330" on="0"/>
        <pt x="1384" y="268" on="0"/>
        <pt x="1384" y="231" on="1"/>
        <pt x="1384" y="204" on="0"/>
        <pt x="1397" y="204" on="1"/>
        <pt x="1474" y="204" on="0"/>
        <pt x="1622" y="400" on="0"/>
        <pt x="1714" y="706" on="0"/>
        <pt x="1714" y="860" on="1"/>
        <pt x="1714" y="1146" on="0"/>
        <pt x="1413" y="1381" on="0"/>
        <pt x="1161" y="1381" on="1"/>
        <pt x="908" y="1381" on="0"/>
        <pt x="520" y="1103" on="0"/>
        <pt x="310" y="654" on="0"/>
        <pt x="310" y="408" on="1"/>
        <pt x="310" y="174" on="0"/>
        <pt x="480" y="-126" on="0"/>
        <pt x="763" y="-261" on="0"/>
        <pt x="937" y="-261" on="1"/>
        <pt x="1042" y="-261" on="0"/>
        <pt x="1243" y="-217" on="0"/>
        <pt x="1299" y="-190" on="1"/>
        <pt x="1345" y="-324" on="1"/>
        <pt x="1275" y="-377" on="0"/>
        <pt x="1046" y="-440" on="0"/>
        <pt x="919" y="-440" on="1"/>
        <pt x="684" y="-440" on="0"/>
        <pt x="318" y="-247" on="0"/>
        <pt x="112" y="121" on="0"/>
        <pt x="112" y="374" on="1"/>
        <pt x="112" y="727" on="0"/>
        <pt x="402" y="1259" on="0"/>
        <pt x="901" y="1545" on="0"/>
        <pt x="1206" y="1545" on="1"/>
      </contour>
      <contour>
        <pt x="939" y="228" on="0"/>
        <pt x="1088" y="456" on="0"/>
        <pt x="1209" y="764" on="0"/>
        <pt x="1222" y="866" on="1"/>
        <pt x="1201" y="895" on="0"/>
        <pt x="1110" y="925" on="0"/>
        <pt x="1069" y="925" on="1"/>
        <pt x="979" y="925" on="0"/>
        <pt x="845" y="782" on="0"/>
        <pt x="776" y="569" on="0"/>
        <pt x="776" y="466" on="1"/>
        <pt x="776" y="355" on="0"/>
        <pt x="824" y="228" on="0"/>
        <pt x="884" y="228" on="1"/>
      </contour>
    </TTGlyph>
    <TTGlyph name="atilde" xMin="76" yMin="-16" xMax="1188" yMax="1676">
      <component glyphName="a" x="0" y="0" flags="0x0"/>
      <component glyphName="tilde" x="362" y="2" flags="0x4"/>
    </TTGlyph>
    <TTGlyph name="b" xMin="80" yMin="-16" xMax="1145" yMax="1636">
      <contour>
        <pt x="987" y="1156" on="0"/>
        <pt x="1145" y="920" on="0"/>
        <pt x="1145" y="724" on="1"/>
        <pt x="1145" y="544" on="0"/>
        <pt x="993" y="203" on="0"/>
        <pt x="687" y="-16" on="0"/>
        <pt x="470" y="-16" on="1"/>
        <pt x="414" y="-16" on="0"/>
        <pt x="280" y="8" on="0"/>
        <pt x="227" y="25" on="1"/>
        <pt x="80" y="-8" on="1"/>
        <pt x="302" y="1636" on="1"/>
        <pt x="566" y="1636" on="1"/>
        <pt x="496" y="1062" on="1"/>
        <pt x="469" y="916" on="1"/>
        <pt x="526" y="1015" on="0"/>
        <pt x="708" y="1156" on="0"/>
        <pt x="822" y="1156" on="1"/>
      </contour>
      <contour>
        <pt x="613" y="161" on="0"/>
        <pt x="776" y="325" on="0"/>
        <pt x="857" y="575" on="0"/>
        <pt x="857" y="702" on="1"/>
        <pt x="857" y="958" on="0"/>
        <pt x="742" y="958" on="1"/>
        <pt x="682" y="958" on="0"/>
        <pt x="564" y="856" on="0"/>
        <pt x="470" y="709" on="0"/>
        <pt x="441" y="639" on="1"/>
        <pt x="380" y="175" on="1"/>
        <pt x="430" y="161" on="0"/>
        <pt x="497" y="161" on="1"/>
      </contour>
    </TTGlyph>
    <TTGlyph name="backslash" xMin="16" yMin="-362" xMax="814" yMax="1597">
      <contour>
        <pt x="237" y="1597" on="1"/>
        <pt x="16" y="1597" on="1"/>
        <pt x="592" y="-362" on="1"/>
        <pt x="814" y="-362" on="1"/>
      </contour>
    </TTGlyph>
    <TTGlyph name="bar" xMin="337" yMin="-186" xMax="550" yMax="1780">
      <contour>
        <pt x="550" y="1780" on="1"/>
        <pt x="550" y="-186" on="1"/>
        <pt x="337" y="-186" on="1"/>
        <pt x="337" y="1780" on="1"/>
      </contour>
    </TTGlyph>
    <TTGlyph name="braceleft" xMin="106" yMin="-231" xMax="1025" yMax="1774">
      <contour>
        <pt x="323" y="580" on="0"/>
        <pt x="295" y="619" on="0"/>
        <pt x="271" y="635" on="1"/>
        <pt x="216" y="672" on="0"/>
        <pt x="106" y="698" on="1"/>
        <pt x="131" y="861" on="1"/>
        <pt x="207" y="880" on="0"/>
        <pt x="289" y="903" on="0"/>
        <pt x="323" y="921" on="1"/>
        <pt x="350" y="935" on="0"/>
        <pt x="385" y="972" on="0"/>
        <pt x="388" y="989" on="1"/>
        <pt x="470" y="1517" on="1"/>
        <pt x="486" y="1618" on="0"/>
        <pt x="544" y="1728" on="0"/>
        <pt x="645" y="1774" on="0"/>
        <pt x="730" y="1774" on="1"/>
        <pt x="774" y="1774" on="0"/>
        <pt x="906" y="1751" on="0"/>
        <pt x="1010" y="1726" on="0"/>
        <pt x="1025" y="1722" on="1"/>
        <pt x="1022" y="1703" on="0"/>
        <pt x="1007" y="1615" on="0"/>
        <pt x="1003" y="1590" on="1"/>
        <pt x="727" y="1590" on="1"/>
        <pt x="632" y="965" on="1"/>
        <pt x="626" y="927" on="0"/>
        <pt x="582" y="873" on="0"/>
        <pt x="539" y="846" on="1"/>
        <pt x="521" y="835" on="0"/>
        <pt x="387" y="783" on="0"/>
        <pt x="364" y="774" on="1"/>
        <pt x="405" y="753" on="1"/>
        <pt x="452" y="729" on="0"/>
        <pt x="515" y="693" on="0"/>
        <pt x="530" y="678" on="1"/>
        <pt x="552" y="656" on="0"/>
        <pt x="573" y="617" on="0"/>
        <pt x="573" y="591" on="1"/>
        <pt x="573" y="585" on="0"/>
        <pt x="571" y="569" on="1"/>
        <pt x="478" y="-43" on="1"/>
        <pt x="753" y="-43" on="1"/>
        <pt x="749" y="-69" on="0"/>
        <pt x="738" y="-151" on="0"/>
        <pt x="736" y="-169" on="1"/>
        <pt x="650" y="-198" on="0"/>
        <pt x="500" y="-231" on="0"/>
        <pt x="416" y="-231" on="1"/>
        <pt x="316" y="-231" on="0"/>
        <pt x="233" y="-154" on="0"/>
        <pt x="234" y="-70" on="1"/>
        <pt x="235" y="-52" on="0"/>
        <pt x="309" y="468" on="0"/>
        <pt x="323" y="563" on="1"/>
      </contour>
    </TTGlyph>
    <TTGlyph name="braceright" xMin="48" yMin="-228" xMax="967" yMax="1777">
      <contour>
        <pt x="750" y="966" on="0"/>
        <pt x="778" y="927" on="0"/>
        <pt x="802" y="911" on="1"/>
        <pt x="857" y="874" on="0"/>
        <pt x="967" y="848" on="1"/>
        <pt x="942" y="685" on="1"/>
        <pt x="866" y="666" on="0"/>
        <pt x="784" y="643" on="0"/>
        <pt x="750" y="625" on="1"/>
        <pt x="723" y="611" on="0"/>
        <pt x="688" y="574" on="0"/>
        <pt x="685" y="557" on="1"/>
        <pt x="603" y="29" on="1"/>
        <pt x="587" y="-72" on="0"/>
        <pt x="529" y="-182" on="0"/>
        <pt x="428" y="-228" on="0"/>
        <pt x="343" y="-228" on="1"/>
        <pt x="299" y="-228" on="0"/>
        <pt x="167" y="-205" on="0"/>
        <pt x="63" y="-180" on="0"/>
        <pt x="48" y="-176" on="1"/>
        <pt x="51" y="-157" on="0"/>
        <pt x="66" y="-69" on="0"/>
        <pt x="70" y="-44" on="1"/>
        <pt x="346" y="-44" on="1"/>
        <pt x="441" y="581" on="1"/>
        <pt x="447" y="619" on="0"/>
        <pt x="491" y="673" on="0"/>
        <pt x="534" y="700" on="1"/>
        <pt x="552" y="711" on="0"/>
        <pt x="686" y="763" on="0"/>
        <pt x="709" y="772" on="1"/>
        <pt x="668" y="793" on="1"/>
        <pt x="621" y="817" on="0"/>
        <pt x="558" y="853" on="0"/>
        <pt x="543" y="868" on="1"/>
        <pt x="521" y="890" on="0"/>
        <pt x="500" y="929" on="0"/>
        <pt x="500" y="955" on="1"/>
        <pt x="500" y="961" on="0"/>
        <pt x="502" y="977" on="1"/>
        <pt x="595" y="1589" on="1"/>
        <pt x="320" y="1589" on="1"/>
        <pt x="324" y="1615" on="0"/>
        <pt x="335" y="1697" on="0"/>
        <pt x="337" y="1715" on="1"/>
        <pt x="423" y="1744" on="0"/>
        <pt x="573" y="1777" on="0"/>
        <pt x="657" y="1777" on="1"/>
        <pt x="757" y="1777" on="0"/>
        <pt x="840" y="1700" on="0"/>
        <pt x="839" y="1616" on="1"/>
        <pt x="838" y="1598" on="0"/>
        <pt x="764" y="1078" on="0"/>
        <pt x="750" y="983" on="1"/>
      </contour>
    </TTGlyph>
    <TTGlyph name="bracketleft" xMin="155" yMin="-225" xMax="902" yMax="1769">
      <contour>
        <pt x="377" y="1597" on="0"/>
        <pt x="431" y="1714" on="0"/>
        <pt x="528" y="1769" on="0"/>
        <pt x="607" y="1769" on="1"/>
        <pt x="657" y="1769" on="0"/>
        <pt x="788" y="1748" on="0"/>
        <pt x="888" y="1726" on="0"/>
        <pt x="902" y="1722" on="1"/>
        <pt x="882" y="1591" on="1"/>
        <pt x="617" y="1591" on="1"/>
        <pt x="399" y="-43" on="1"/>
        <pt x="664" y="-44" on="1"/>
        <pt x="661" y="-68" on="0"/>
        <pt x="650" y="-149" on="0"/>
        <pt x="648" y="-173" on="1"/>
        <pt x="552" y="-200" on="0"/>
        <pt x="429" y="-225" on="0"/>
        <pt x="340" y="-225" on="1"/>
        <pt x="246" y="-225" on="0"/>
        <pt x="155" y="-145" on="0"/>
        <pt x="155" y="-62" on="1"/>
        <pt x="155" y="-12" on="0"/>
        <pt x="161" y="48" on="1"/>
        <pt x="166" y="130" on="0"/>
        <pt x="239" y="648" on="0"/>
        <pt x="303" y="1081" on="1"/>
        <pt x="346" y="1367" on="0"/>
        <pt x="364" y="1498" on="1"/>
      </contour>
    </TTGlyph>
    <TTGlyph name="bracketright" xMin="14" yMin="-213" xMax="761" yMax="1781">
      <contour>
        <pt x="539" y="-41" on="0"/>
        <pt x="485" y="-158" on="0"/>
        <pt x="388" y="-213" on="0"/>
        <pt x="309" y="-213" on="1"/>
        <pt x="259" y="-213" on="0"/>
        <pt x="128" y="-192" on="0"/>
        <pt x="28" y="-170" on="0"/>
        <pt x="14" y="-166" on="1"/>
        <pt x="34" y="-35" on="1"/>
        <pt x="299" y="-35" on="1"/>
        <pt x="517" y="1599" on="1"/>
        <pt x="252" y="1600" on="1"/>
        <pt x="255" y="1624" on="0"/>
        <pt x="266" y="1705" on="0"/>
        <pt x="268" y="1729" on="1"/>
        <pt x="364" y="1756" on="0"/>
        <pt x="487" y="1781" on="0"/>
        <pt x="576" y="1781" on="1"/>
        <pt x="670" y="1781" on="0"/>
        <pt x="761" y="1701" on="0"/>
        <pt x="761" y="1618" on="1"/>
        <pt x="761" y="1568" on="0"/>
        <pt x="755" y="1508" on="1"/>
        <pt x="750" y="1426" on="0"/>
        <pt x="677" y="908" on="0"/>
        <pt x="613" y="475" on="1"/>
        <pt x="570" y="189" on="0"/>
        <pt x="552" y="58" on="1"/>
      </contour>
    </TTGlyph>
    <TTGlyph name="breve" xMin="43" yMin="1300" xMax="706" yMax="1666">
      <contour>
        <pt x="43" y="1638" on="0"/>
        <pt x="50" y="1666" on="1"/>
        <pt x="211" y="1666" on="1"/>
        <pt x="211" y="1661" on="0"/>
        <pt x="210" y="1638" on="0"/>
        <pt x="211" y="1628" on="1"/>
        <pt x="218" y="1560" on="0"/>
        <pt x="283" y="1482" on="0"/>
        <pt x="366" y="1482" on="1"/>
        <pt x="427" y="1482" on="0"/>
        <pt x="501" y="1540" on="0"/>
        <pt x="535" y="1615" on="0"/>
        <pt x="548" y="1666" on="1"/>
        <pt x="706" y="1666" on="1"/>
        <pt x="706" y="1644" on="0"/>
        <pt x="705" y="1633" on="1"/>
        <pt x="699" y="1550" on="0"/>
        <pt x="616" y="1397" on="0"/>
        <pt x="462" y="1300" on="0"/>
        <pt x="355" y="1300" on="1"/>
        <pt x="194" y="1300" on="0"/>
        <pt x="43" y="1475" on="0"/>
        <pt x="43" y="1614" on="1"/>
      </contour>
    </TTGlyph>
    <TTGlyph name="breve.cap" xMin="43" yMin="1631" xMax="706" yMax="1997">
      <contour>
        <pt x="43" y="1969" on="0"/>
        <pt x="50" y="1997" on="1"/>
        <pt x="211" y="1997" on="1"/>
        <pt x="211" y="1992" on="0"/>
        <pt x="210" y="1969" on="0"/>
        <pt x="211" y="1959" on="1"/>
        <pt x="218" y="1891" on="0"/>
        <pt x="283" y="1813" on="0"/>
        <pt x="366" y="1813" on="1"/>
        <pt x="427" y="1813" on="0"/>
        <pt x="501" y="1871" on="0"/>
        <pt x="535" y="1946" on="0"/>
        <pt x="548" y="1997" on="1"/>
        <pt x="706" y="1997" on="1"/>
        <pt x="706" y="1975" on="0"/>
        <pt x="705" y="1964" on="1"/>
        <pt x="699" y="1881" on="0"/>
        <pt x="616" y="1728" on="0"/>
        <pt x="462" y="1631" on="0"/>
        <pt x="355" y="1631" on="1"/>
        <pt x="194" y="1631" on="0"/>
        <pt x="43" y="1806" on="0"/>
        <pt x="43" y="1945" on="1"/>
      </contour>
    </TTGlyph>
    <TTGlyph name="brokenbar" xMin="337" yMin="-186" xMax="550" yMax="1780">
      <contour>
        <pt x="550" y="1780" on="1"/>
        <pt x="550" y="901" on="1"/>
        <pt x="337" y="901" on="1"/>
        <pt x="337" y="1780" on="1"/>
      </contour>
      <contour>
        <pt x="550" y="693" on="1"/>
        <pt x="550" y="-186" on="1"/>
        <pt x="337" y="-186" on="1"/>
        <pt x="337" y="693" on="1"/>
      </contour>
    </TTGlyph>
    <TTGlyph name="bullet" xMin="233" yMin="507" xMax="660" yMax="939">
      <contour>
        <pt x="233" y="743" on="0"/>
        <pt x="300" y="863" on="0"/>
        <pt x="416" y="939" on="0"/>
        <pt x="484" y="939" on="1"/>
        <pt x="534" y="939" on="0"/>
        <pt x="614" y="894" on="0"/>
        <pt x="660" y="816" on="0"/>
        <pt x="660" y="767" on="1"/>
        <pt x="660" y="706" on="0"/>
        <pt x="597" y="585" on="0"/>
        <pt x="482" y="507" on="0"/>
        <pt x="409" y="507" on="1"/>
        <pt x="360" y="507" on="0"/>
        <pt x="279" y="554" on="0"/>
        <pt x="233" y="635" on="0"/>
        <pt x="233" y="683" on="1"/>
      </contour>
    </TTGlyph>
    <TTGlyph name="c" xMin="80" yMin="-16" xMax="919" yMax="1156">
      <contour>
        <pt x="740" y="1156" on="0"/>
        <pt x="878" y="1135" on="0"/>
        <pt x="919" y="1116" on="1"/>
        <pt x="851" y="861" on="1"/>
        <pt x="816" y="891" on="0"/>
        <pt x="708" y="944" on="0"/>
        <pt x="658" y="944" on="1"/>
        <pt x="584" y="944" on="0"/>
        <pt x="447" y="829" on="0"/>
        <pt x="361" y="616" on="0"/>
        <pt x="361" y="476" on="1"/>
        <pt x="361" y="322" on="0"/>
        <pt x="445" y="187" on="0"/>
        <pt x="538" y="187" on="1"/>
        <pt x="600" y="187" on="0"/>
        <pt x="731" y="257" on="0"/>
        <pt x="787" y="314" on="1"/>
        <pt x="864" y="176" on="1"/>
        <pt x="833" y="131" on="0"/>
        <pt x="726" y="44" on="0"/>
        <pt x="569" y="-16" on="0"/>
        <pt x="475" y="-16" on="1"/>
        <pt x="342" y="-16" on="0"/>
        <pt x="164" y="104" on="0"/>
        <pt x="80" y="308" on="0"/>
        <pt x="80" y="438" on="1"/>
        <pt x="80" y="624" on="0"/>
        <pt x="228" y="954" on="0"/>
        <pt x="501" y="1156" on="0"/>
        <pt x="680" y="1156" on="1"/>
      </contour>
    </TTGlyph>
    <TTGlyph name="cacute" xMin="80" yMin="-16" xMax="1072" yMax="1744">
      <component glyphName="acute" x="537" y="0" flags="0x0"/>
      <component glyphName="c" x="0" y="0" flags="0x0"/>
    </TTGlyph>
    <TTGlyph name="caron" xMin="43" yMin="1242" xMax="791" yMax="1660">
      <contour>
        <pt x="149" y="1660" on="1"/>
        <pt x="382" y="1443" on="1"/>
        <pt x="676" y="1660" on="1"/>
        <pt x="791" y="1583" on="1"/>
        <pt x="448" y="1242" on="1"/>
        <pt x="270" y="1242" on="1"/>
        <pt x="43" y="1582" on="1"/>
      </contour>
    </TTGlyph>
    <TTGlyph name="caron.cap" xMin="53" yMin="1607" xMax="801" yMax="2007">
      <contour>
        <pt x="169" y="2007" on="1"/>
        <pt x="386" y="1801" on="1"/>
        <pt x="686" y="2007" on="1"/>
        <pt x="801" y="1930" on="1"/>
        <pt x="458" y="1607" on="1"/>
        <pt x="280" y="1607" on="1"/>
        <pt x="53" y="1924" on="1"/>
      </contour>
    </TTGlyph>
    <TTGlyph name="caronvertical" xMin="196" yMin="1036" xMax="460" yMax="1681">
      <contour>
        <pt x="214" y="1158" on="0"/>
        <pt x="237" y="1322" on="0"/>
        <pt x="237" y="1401" on="1"/>
        <pt x="237" y="1464" on="0"/>
        <pt x="223" y="1576" on="0"/>
        <pt x="209" y="1597" on="1"/>
        <pt x="223" y="1634" on="1"/>
        <pt x="426" y="1681" on="1"/>
        <pt x="460" y="1624" on="0"/>
        <pt x="460" y="1472" on="1"/>
        <pt x="460" y="1359" on="0"/>
        <pt x="388" y="1112" on="0"/>
        <pt x="327" y="1036" on="1"/>
        <pt x="202" y="1070" on="1"/>
        <pt x="196" y="1095" on="1"/>
      </contour>
    </TTGlyph>
    <TTGlyph name="ccaron" xMin="80" yMin="-16" xMax="1099" yMax="1660">
      <component glyphName="caron" x="308" y="0" flags="0x0"/>
      <component glyphName="c" x="0" y="0" flags="0x0"/>
    </TTGlyph>
    <TTGlyph name="ccedilla" xMin="80" yMin="-466" xMax="919" yMax="1156">
      <contour>
        <pt x="600" y="187" on="0"/>
        <pt x="731" y="257" on="0"/>
        <pt x="787" y="314" on="1"/>
        <pt x="864" y="176" on="1"/>
        <pt x="825" y="120" on="0"/>
        <pt x="680" y="16" on="0"/>
        <pt x="583" y="-5" on="1"/>
        <pt x="598" y="-43" on="0"/>
        <pt x="617" y="-152" on="0"/>
        <pt x="617" y="-200" on="1"/>
        <pt x="617" y="-332" on="0"/>
        <pt x="468" y="-466" on="0"/>
        <pt x="328" y="-466" on="1"/>
        <pt x="285" y="-466" on="0"/>
        <pt x="149" y="-445" on="0"/>
        <pt x="133" y="-434" on="1"/>
        <pt x="164" y="-257" on="1"/>
        <pt x="192" y="-272" on="0"/>
        <pt x="239" y="-272" on="1"/>
        <pt x="319" y="-272" on="0"/>
        <pt x="408" y="-207" on="0"/>
        <pt x="410" y="-120" on="1"/>
        <pt x="411" y="-74" on="1"/>
        <pt x="411" y="-50" on="0"/>
        <pt x="409" y="-12" on="1"/>
        <pt x="298" y="2" on="0"/>
        <pt x="150" y="127" on="0"/>
        <pt x="80" y="320" on="0"/>
        <pt x="80" y="438" on="1"/>
        <pt x="80" y="624" on="0"/>
        <pt x="228" y="954" on="0"/>
        <pt x="501" y="1156" on="0"/>
        <pt x="680" y="1156" on="1"/>
        <pt x="740" y="1156" on="0"/>
        <pt x="878" y="1135" on="0"/>
        <pt x="919" y="1116" on="1"/>
        <pt x="851" y="861" on="1"/>
        <pt x="816" y="891" on="0"/>
        <pt x="708" y="944" on="0"/>
        <pt x="658" y="944" on="1"/>
        <pt x="584" y="944" on="0"/>
        <pt x="447" y="829" on="0"/>
        <pt x="361" y="616" on="0"/>
        <pt x="361" y="476" on="1"/>
        <pt x="361" y="322" on="0"/>
        <pt x="445" y="187" on="0"/>
        <pt x="538" y="187" on="1"/>
      </contour>
    </TTGlyph>
    <TTGlyph name="ccircumflex" xMin="80" yMin="-16" xMax="1051" yMax="1660">
      <component glyphName="circumflex" x="280" y="0" flags="0x0"/>
      <component glyphName="c" x="0" y="0" flags="0x0"/>
    </TTGlyph>
    <TTGlyph name="cdotaccent" xMin="80" yMin="-16" xMax="919" yMax="1668">
      <component glyphName="c" x="0" y="0" flags="0x0"/>
      <component glyphName="dotaccent" x="531" y="2" flags="0x4"/>
    </TTGlyph>
    <TTGlyph name="cedilla" xMin="-30" yMin="-468" xMax="454" yMax="34">
      <contour>
        <pt x="401" y="30" on="1"/>
        <pt x="422" y="1" on="0"/>
        <pt x="454" y="-138" on="0"/>
        <pt x="454" y="-202" on="1"/>
        <pt x="454" y="-334" on="0"/>
        <pt x="305" y="-468" on="0"/>
        <pt x="165" y="-468" on="1"/>
        <pt x="122" y="-468" on="0"/>
        <pt x="-14" y="-447" on="0"/>
        <pt x="-30" y="-436" on="1"/>
        <pt x="1" y="-259" on="1"/>
        <pt x="29" y="-274" on="0"/>
        <pt x="76" y="-274" on="1"/>
        <pt x="156" y="-274" on="0"/>
        <pt x="245" y="-209" on="0"/>
        <pt x="247" y="-122" on="1"/>
        <pt x="248" y="-105" on="0"/>
        <pt x="248" y="-71" on="1"/>
        <pt x="248" y="1" on="0"/>
        <pt x="241" y="30" on="1"/>
        <pt x="330" y="34" on="1"/>
      </contour>
    </TTGlyph>
    <TTGlyph name="cent" xMin="114" yMin="-245" xMax="953" yMax="1393">
      <contour>
        <pt x="634" y="187" on="0"/>
        <pt x="765" y="257" on="0"/>
        <pt x="821" y="314" on="1"/>
        <pt x="898" y="176" on="1"/>
        <pt x="854" y="112" on="0"/>
        <pt x="682" y="0" on="0"/>
        <pt x="566" y="-13" on="1"/>
        <pt x="523" y="-245" on="1"/>
        <pt x="328" y="-245" on="1"/>
        <pt x="374" y="3" on="1"/>
        <pt x="244" y="44" on="0"/>
        <pt x="114" y="276" on="0"/>
        <pt x="114" y="438" on="1"/>
        <pt x="114" y="600" on="0"/>
        <pt x="227" y="896" on="0"/>
        <pt x="439" y="1105" on="0"/>
        <pt x="581" y="1140" on="1"/>
        <pt x="641" y="1393" on="1"/>
        <pt x="836" y="1393" on="1"/>
        <pt x="779" y="1153" on="1"/>
        <pt x="830" y="1149" on="0"/>
        <pt x="923" y="1130" on="0"/>
        <pt x="953" y="1116" on="1"/>
        <pt x="885" y="861" on="1"/>
        <pt x="850" y="891" on="0"/>
        <pt x="742" y="944" on="0"/>
        <pt x="692" y="944" on="1"/>
        <pt x="618" y="944" on="0"/>
        <pt x="481" y="829" on="0"/>
        <pt x="395" y="616" on="0"/>
        <pt x="395" y="476" on="1"/>
        <pt x="395" y="322" on="0"/>
        <pt x="479" y="187" on="0"/>
        <pt x="572" y="187" on="1"/>
      </contour>
    </TTGlyph>
    <TTGlyph name="circumflex" xMin="42" yMin="1214" xMax="771" yMax="1660">
      <contour>
        <pt x="391" y="1660" on="1"/>
        <pt x="570" y="1660" on="1"/>
        <pt x="771" y="1286" on="1"/>
        <pt x="647" y="1218" on="1"/>
        <pt x="451" y="1437" on="1"/>
        <pt x="150" y="1214" on="1"/>
        <pt x="42" y="1286" on="1"/>
      </contour>
    </TTGlyph>
    <TTGlyph name="circumflex.cap" xMin="34" yMin="1589" xMax="763" yMax="2007">
      <contour>
        <pt x="383" y="2007" on="1"/>
        <pt x="562" y="2007" on="1"/>
        <pt x="763" y="1667" on="1"/>
        <pt x="644" y="1594" on="1"/>
        <pt x="447" y="1794" on="1"/>
        <pt x="147" y="1589" on="1"/>
        <pt x="34" y="1661" on="1"/>
      </contour>
    </TTGlyph>
    <TTGlyph name="colon" xMin="39" yMin="-26" xMax="454" yMax="1103">
      <component glyphName="period" x="-21" y="0" flags="0x0"/>
      <component glyphName="period" x="72" y="809" flags="0x4"/>
    </TTGlyph>
    <TTGlyph name="colonmonetary" xMin="171" yMin="-346" xMax="1341" yMax="1814">
      <contour>
        <pt x="762" y="-15" on="1"/>
        <pt x="749" y="-16" on="0"/>
        <pt x="721" y="-16" on="1"/>
        <pt x="693" y="-16" on="0"/>
        <pt x="643" y="-12" on="1"/>
        <pt x="587" y="-346" on="1"/>
        <pt x="475" y="-346" on="1"/>
        <pt x="535" y="12" on="1"/>
        <pt x="408" y="54" on="0"/>
        <pt x="245" y="249" on="0"/>
        <pt x="171" y="504" on="0"/>
        <pt x="171" y="644" on="1"/>
        <pt x="171" y="873" on="0"/>
        <pt x="327" y="1244" on="0"/>
        <pt x="606" y="1486" on="0"/>
        <pt x="788" y="1527" on="1"/>
        <pt x="836" y="1814" on="1"/>
        <pt x="948" y="1814" on="1"/>
        <pt x="903" y="1544" on="1"/>
        <pt x="943" y="1546" on="0"/>
        <pt x="965" y="1546" on="1"/>
        <pt x="1023" y="1545" on="1"/>
        <pt x="1068" y="1814" on="1"/>
        <pt x="1179" y="1814" on="1"/>
        <pt x="1132" y="1533" on="1"/>
        <pt x="1208" y="1521" on="0"/>
        <pt x="1313" y="1490" on="1"/>
        <pt x="1341" y="1482" on="1"/>
        <pt x="1271" y="1261" on="1"/>
        <pt x="1256" y="1276" on="0"/>
        <pt x="1159" y="1312" on="0"/>
        <pt x="1097" y="1324" on="1"/>
        <pt x="908" y="190" on="1"/>
        <pt x="977" y="201" on="0"/>
        <pt x="1091" y="248" on="0"/>
        <pt x="1148" y="285" on="1"/>
        <pt x="1212" y="127" on="1"/>
        <pt x="1163" y="79" on="0"/>
        <pt x="989" y="9" on="0"/>
        <pt x="875" y="-6" on="1"/>
        <pt x="818" y="-346" on="1"/>
        <pt x="707" y="-346" on="1"/>
      </contour>
      <contour>
        <pt x="903" y="1339" on="0"/>
        <pt x="867" y="1332" on="1"/>
        <pt x="677" y="192" on="1"/>
        <pt x="717" y="179" on="0"/>
        <pt x="770" y="179" on="1"/>
        <pt x="795" y="179" on="1"/>
        <pt x="988" y="1338" on="1"/>
        <pt x="975" y="1339" on="0"/>
        <pt x="947" y="1339" on="1"/>
      </contour>
      <contour>
        <pt x="463" y="363" on="0"/>
        <pt x="575" y="252" on="1"/>
        <pt x="748" y="1290" on="1"/>
        <pt x="612" y="1216" on="0"/>
        <pt x="463" y="871" on="0"/>
        <pt x="463" y="632" on="1"/>
      </contour>
    </TTGlyph>
    <TTGlyph name="comma" xMin="-22" yMin="-510" xMax="388" yMax="280">
      <contour>
        <pt x="61" y="122" on="1"/>
        <pt x="192" y="280" on="1"/>
        <pt x="263" y="253" on="0"/>
        <pt x="351" y="146" on="0"/>
        <pt x="388" y="22" on="0"/>
        <pt x="388" y="-36" on="1"/>
        <pt x="388" y="-146" on="0"/>
        <pt x="307" y="-338" on="0"/>
        <pt x="159" y="-477" on="0"/>
        <pt x="61" y="-510" on="1"/>
        <pt x="-22" y="-402" on="1"/>
        <pt x="-19" y="-381" on="1"/>
        <pt x="54" y="-344" on="0"/>
        <pt x="145" y="-195" on="0"/>
        <pt x="145" y="-113" on="1"/>
        <pt x="145" y="-48" on="0"/>
        <pt x="93" y="54" on="0"/>
        <pt x="54" y="68" on="1"/>
      </contour>
    </TTGlyph>
    <TTGlyph name="copyright" xMin="185" yMin="83" xMax="1926" yMax="1839">
      <contour>
        <pt x="1294" y="1839" on="0"/>
        <pt x="1694" y="1604" on="0"/>
        <pt x="1926" y="1202" on="0"/>
        <pt x="1926" y="963" on="1"/>
        <pt x="1926" y="723" on="0"/>
        <pt x="1694" y="319" on="0"/>
        <pt x="1294" y="83" on="0"/>
        <pt x="1055" y="83" on="1"/>
        <pt x="816" y="83" on="0"/>
        <pt x="417" y="319" on="0"/>
        <pt x="185" y="723" on="0"/>
        <pt x="185" y="963" on="1"/>
        <pt x="185" y="1202" on="0"/>
        <pt x="417" y="1604" on="0"/>
        <pt x="816" y="1839" on="0"/>
        <pt x="1055" y="1839" on="1"/>
      </contour>
      <contour>
        <pt x="1260" y="212" on="0"/>
        <pt x="1593" y="414" on="0"/>
        <pt x="1783" y="758" on="0"/>
        <pt x="1783" y="963" on="1"/>
        <pt x="1783" y="1168" on="0"/>
        <pt x="1593" y="1512" on="0"/>
        <pt x="1260" y="1713" on="0"/>
        <pt x="1055" y="1713" on="1"/>
        <pt x="850" y="1713" on="0"/>
        <pt x="517" y="1512" on="0"/>
        <pt x="327" y="1168" on="0"/>
        <pt x="327" y="963" on="1"/>
        <pt x="327" y="758" on="0"/>
        <pt x="517" y="414" on="0"/>
        <pt x="850" y="212" on="0"/>
        <pt x="1055" y="212" on="1"/>
      </contour>
      <contour>
        <pt x="1186" y="1453" on="0"/>
        <pt x="1315" y="1418" on="0"/>
        <pt x="1352" y="1397" on="1"/>
        <pt x="1317" y="1213" on="1"/>
        <pt x="1279" y="1239" on="0"/>
        <pt x="1163" y="1272" on="0"/>
        <pt x="1098" y="1272" on="1"/>
        <pt x="1017" y="1272" on="0"/>
        <pt x="897" y="1196" on="0"/>
        <pt x="833" y="1063" on="0"/>
        <pt x="833" y="979" on="1"/>
        <pt x="833" y="822" on="0"/>
        <pt x="975" y="660" on="0"/>
        <pt x="1094" y="660" on="1"/>
        <pt x="1166" y="660" on="0"/>
        <pt x="1290" y="697" on="0"/>
        <pt x="1330" y="722" on="1"/>
        <pt x="1374" y="574" on="1"/>
        <pt x="1324" y="531" on="0"/>
        <pt x="1152" y="475" on="0"/>
        <pt x="1056" y="475" on="1"/>
        <pt x="922" y="475" on="0"/>
        <pt x="719" y="608" on="0"/>
        <pt x="610" y="829" on="0"/>
        <pt x="610" y="957" on="1"/>
        <pt x="610" y="1099" on="0"/>
        <pt x="725" y="1324" on="0"/>
        <pt x="949" y="1453" on="0"/>
        <pt x="1106" y="1453" on="1"/>
      </contour>
    </TTGlyph>
    <TTGlyph name="currency" xMin="215" yMin="116" xMax="1355" yMax="1263">
      <contour>
        <pt x="1222" y="559" on="0"/>
        <pt x="1151" y="450" on="1"/>
        <pt x="1353" y="248" on="1"/>
        <pt x="1225" y="121" on="1"/>
        <pt x="1023" y="323" on="1"/>
        <pt x="914" y="252" on="0"/>
        <pt x="782" y="252" on="1"/>
        <pt x="655" y="252" on="0"/>
        <pt x="548" y="318" on="1"/>
        <pt x="346" y="116" on="1"/>
        <pt x="218" y="243" on="1"/>
        <pt x="418" y="443" on="1"/>
        <pt x="381" y="496" on="0"/>
        <pt x="342" y="622" on="0"/>
        <pt x="342" y="690" on="1"/>
        <pt x="342" y="757" on="0"/>
        <pt x="380" y="881" on="0"/>
        <pt x="416" y="934" on="1"/>
        <pt x="215" y="1135" on="1"/>
        <pt x="342" y="1263" on="1"/>
        <pt x="545" y="1059" on="1"/>
        <pt x="597" y="1092" on="0"/>
        <pt x="717" y="1128" on="0"/>
        <pt x="782" y="1128" on="1"/>
        <pt x="918" y="1128" on="0"/>
        <pt x="1030" y="1052" on="1"/>
        <pt x="1228" y="1250" on="1"/>
        <pt x="1355" y="1122" on="1"/>
        <pt x="1155" y="922" on="1"/>
        <pt x="1222" y="818" on="0"/>
        <pt x="1222" y="690" on="1"/>
      </contour>
      <contour>
        <pt x="850" y="430" on="0"/>
        <pt x="964" y="501" on="0"/>
        <pt x="1031" y="620" on="0"/>
        <pt x="1031" y="690" on="1"/>
        <pt x="1031" y="760" on="0"/>
        <pt x="964" y="880" on="0"/>
        <pt x="850" y="951" on="0"/>
        <pt x="782" y="951" on="1"/>
        <pt x="714" y="951" on="0"/>
        <pt x="600" y="880" on="0"/>
        <pt x="533" y="760" on="0"/>
        <pt x="533" y="690" on="1"/>
        <pt x="533" y="620" on="0"/>
        <pt x="600" y="501" on="0"/>
        <pt x="714" y="430" on="0"/>
        <pt x="782" y="430" on="1"/>
      </contour>
    </TTGlyph>
    <TTGlyph name="d" xMin="75" yMin="-16" xMax="1199" yMax="1636">
      <contour>
        <pt x="1199" y="1636" on="1"/>
        <pt x="983" y="0" on="1"/>
        <pt x="736" y="0" on="1"/>
        <pt x="751" y="230" on="1"/>
        <pt x="694" y="128" on="0"/>
        <pt x="512" y="-16" on="0"/>
        <pt x="398" y="-16" on="1"/>
        <pt x="232" y="-16" on="0"/>
        <pt x="75" y="218" on="0"/>
        <pt x="75" y="414" on="1"/>
        <pt x="75" y="594" on="0"/>
        <pt x="227" y="936" on="0"/>
        <pt x="533" y="1156" on="0"/>
        <pt x="750" y="1156" on="1"/>
        <pt x="799" y="1156" on="0"/>
        <pt x="862" y="1146" on="1"/>
        <pt x="929" y="1636" on="1"/>
      </contour>
      <contour>
        <pt x="535" y="182" on="0"/>
        <pt x="649" y="279" on="0"/>
        <pt x="741" y="421" on="0"/>
        <pt x="773" y="493" on="1"/>
        <pt x="837" y="962" on="1"/>
        <pt x="785" y="980" on="0"/>
        <pt x="722" y="980" on="1"/>
        <pt x="606" y="980" on="0"/>
        <pt x="443" y="815" on="0"/>
        <pt x="362" y="564" on="0"/>
        <pt x="362" y="437" on="1"/>
        <pt x="362" y="182" on="0"/>
        <pt x="478" y="182" on="1"/>
      </contour>
    </TTGlyph>
    <TTGlyph name="dagger" xMin="129" yMin="151" xMax="880" yMax="1646">
      <contour>
        <pt x="388" y="1095" on="1"/>
        <pt x="129" y="1095" on="1"/>
        <pt x="157" y="1277" on="1"/>
        <pt x="432" y="1277" on="1"/>
        <pt x="444" y="1469" on="1"/>
        <pt x="468" y="1646" on="1"/>
        <pt x="688" y="1646" on="1"/>
        <pt x="658" y="1469" on="1"/>
        <pt x="607" y="1277" on="1"/>
        <pt x="880" y="1277" on="1"/>
        <pt x="853" y="1095" on="1"/>
        <pt x="597" y="1095" on="1"/>
        <pt x="586" y="976" on="1"/>
        <pt x="437" y="151" on="1"/>
        <pt x="270" y="151" on="1"/>
        <pt x="367" y="976" on="1"/>
      </contour>
    </TTGlyph>
    <TTGlyph name="daggerdbl" xMin="97" yMin="-51" xMax="880" yMax="1646">
      <contour>
        <pt x="326" y="603" on="1"/>
        <pt x="97" y="603" on="1"/>
        <pt x="124" y="779" on="1"/>
        <pt x="357" y="779" on="1"/>
        <pt x="367" y="963" on="1"/>
        <pt x="395" y="1095" on="1"/>
        <pt x="152" y="1095" on="1"/>
        <pt x="178" y="1277" on="1"/>
        <pt x="438" y="1277" on="1"/>
        <pt x="450" y="1469" on="1"/>
        <pt x="474" y="1646" on="1"/>
        <pt x="694" y="1646" on="1"/>
        <pt x="664" y="1469" on="1"/>
        <pt x="614" y="1277" on="1"/>
        <pt x="880" y="1277" on="1"/>
        <pt x="853" y="1095" on="1"/>
        <pt x="603" y="1095" on="1"/>
        <pt x="592" y="963" on="1"/>
        <pt x="549" y="779" on="1"/>
        <pt x="790" y="779" on="1"/>
        <pt x="766" y="603" on="1"/>
        <pt x="527" y="603" on="1"/>
        <pt x="512" y="431" on="1"/>
        <pt x="403" y="-51" on="1"/>
        <pt x="259" y="-51" on="1"/>
        <pt x="292" y="425" on="1"/>
      </contour>
    </TTGlyph>
    <TTGlyph name="dcaron" xMin="75" yMin="-16" xMax="1568" yMax="1666">
      <component glyphName="d" x="0" y="0" flags="0x0"/>
      <component glyphName="caronvertical" x="1108" y="-15" flags="0x4"/>
    </TTGlyph>
    <TTGlyph name="dcroat" xMin="75" yMin="-16" xMax="1313" yMax="1636">
      <contour>
        <pt x="1297" y="1262" on="1"/>
        <pt x="1150" y="1262" on="1"/>
        <pt x="983" y="0" on="1"/>
        <pt x="736" y="0" on="1"/>
        <pt x="751" y="230" on="1"/>
        <pt x="694" y="128" on="0"/>
        <pt x="512" y="-16" on="0"/>
        <pt x="398" y="-16" on="1"/>
        <pt x="232" y="-16" on="0"/>
        <pt x="75" y="218" on="0"/>
        <pt x="75" y="414" on="1"/>
        <pt x="75" y="594" on="0"/>
        <pt x="227" y="936" on="0"/>
        <pt x="533" y="1156" on="0"/>
        <pt x="750" y="1156" on="1"/>
        <pt x="799" y="1156" on="0"/>
        <pt x="862" y="1146" on="1"/>
        <pt x="878" y="1262" on="1"/>
        <pt x="635" y="1262" on="1"/>
        <pt x="651" y="1392" on="1"/>
        <pt x="896" y="1392" on="1"/>
        <pt x="929" y="1636" on="1"/>
        <pt x="1199" y="1636" on="1"/>
        <pt x="1167" y="1392" on="1"/>
        <pt x="1313" y="1392" on="1"/>
      </contour>
      <contour>
        <pt x="535" y="182" on="0"/>
        <pt x="649" y="279" on="0"/>
        <pt x="741" y="421" on="0"/>
        <pt x="773" y="493" on="1"/>
        <pt x="837" y="962" on="1"/>
        <pt x="785" y="980" on="0"/>
        <pt x="722" y="980" on="1"/>
        <pt x="606" y="980" on="0"/>
        <pt x="443" y="815" on="0"/>
        <pt x="362" y="564" on="0"/>
        <pt x="362" y="437" on="1"/>
        <pt x="362" y="182" on="0"/>
        <pt x="478" y="182" on="1"/>
      </contour>
    </TTGlyph>
    <TTGlyph name="degree" xMin="175" yMin="935" xMax="873" yMax="1617">
      <contour>
        <pt x="175" y="1368" on="0"/>
        <pt x="268" y="1526" on="0"/>
        <pt x="432" y="1617" on="0"/>
        <pt x="533" y="1617" on="1"/>
        <pt x="628" y="1617" on="0"/>
        <pt x="783" y="1528" on="0"/>
        <pt x="873" y="1375" on="0"/>
        <pt x="873" y="1284" on="1"/>
        <pt x="873" y="1186" on="0"/>
        <pt x="779" y="1026" on="0"/>
        <pt x="614" y="935" on="0"/>
        <pt x="512" y="935" on="1"/>
        <pt x="417" y="935" on="0"/>
        <pt x="263" y="1025" on="0"/>
        <pt x="175" y="1179" on="0"/>
        <pt x="175" y="1271" on="1"/>
      </contour>
      <contour>
        <pt x="701" y="1331" on="0"/>
        <pt x="655" y="1415" on="0"/>
        <pt x="575" y="1464" on="0"/>
        <pt x="527" y="1464" on="1"/>
        <pt x="476" y="1464" on="0"/>
        <pt x="394" y="1414" on="0"/>
        <pt x="347" y="1327" on="0"/>
        <pt x="347" y="1273" on="1"/>
        <pt x="347" y="1223" on="0"/>
        <pt x="393" y="1139" on="0"/>
        <pt x="472" y="1089" on="0"/>
        <pt x="520" y="1089" on="1"/>
        <pt x="572" y="1089" on="0"/>
        <pt x="654" y="1139" on="0"/>
        <pt x="701" y="1227" on="0"/>
        <pt x="701" y="1281" on="1"/>
      </contour>
    </TTGlyph>
    <TTGlyph name="dieresis" xMin="27" yMin="1363" xMax="777" yMax="1676">
      <contour>
        <pt x="27" y="1549" on="0"/>
        <pt x="70" y="1629" on="0"/>
        <pt x="145" y="1676" on="0"/>
        <pt x="191" y="1676" on="1"/>
        <pt x="232" y="1676" on="0"/>
        <pt x="295" y="1638" on="0"/>
        <pt x="330" y="1577" on="0"/>
        <pt x="330" y="1542" on="1"/>
        <pt x="330" y="1494" on="0"/>
        <pt x="288" y="1412" on="0"/>
        <pt x="210" y="1363" on="0"/>
        <pt x="159" y="1363" on="1"/>
        <pt x="125" y="1363" on="0"/>
        <pt x="64" y="1402" on="0"/>
        <pt x="27" y="1467" on="0"/>
        <pt x="27" y="1502" on="1"/>
      </contour>
      <contour>
        <pt x="474" y="1549" on="0"/>
        <pt x="516" y="1629" on="0"/>
        <pt x="591" y="1676" on="0"/>
        <pt x="637" y="1676" on="1"/>
        <pt x="678" y="1676" on="0"/>
        <pt x="742" y="1638" on="0"/>
        <pt x="777" y="1577" on="0"/>
        <pt x="777" y="1542" on="1"/>
        <pt x="777" y="1494" on="0"/>
        <pt x="735" y="1412" on="0"/>
        <pt x="656" y="1363" on="0"/>
        <pt x="605" y="1363" on="1"/>
        <pt x="570" y="1363" on="0"/>
        <pt x="510" y="1402" on="0"/>
        <pt x="474" y="1466" on="0"/>
        <pt x="474" y="1502" on="1"/>
      </contour>
    </TTGlyph>
    <TTGlyph name="dieresis.cap" xMin="115" yMin="1664" xMax="864" yMax="1977">
      <contour>
        <pt x="115" y="1850" on="0"/>
        <pt x="159" y="1930" on="0"/>
        <pt x="235" y="1977" on="0"/>
        <pt x="279" y="1977" on="1"/>
        <pt x="320" y="1977" on="0"/>
        <pt x="382" y="1939" on="0"/>
        <pt x="417" y="1878" on="0"/>
        <pt x="417" y="1843" on="1"/>
        <pt x="417" y="1795" on="0"/>
        <pt x="375" y="1713" on="0"/>
        <pt x="298" y="1664" on="0"/>
        <pt x="247" y="1664" on="1"/>
        <pt x="212" y="1664" on="0"/>
        <pt x="151" y="1704" on="0"/>
        <pt x="115" y="1768" on="0"/>
        <pt x="115" y="1804" on="1"/>
      </contour>
      <contour>
        <pt x="561" y="1851" on="0"/>
        <pt x="605" y="1930" on="0"/>
        <pt x="680" y="1977" on="0"/>
        <pt x="724" y="1977" on="1"/>
        <pt x="765" y="1977" on="0"/>
        <pt x="829" y="1939" on="0"/>
        <pt x="864" y="1878" on="0"/>
        <pt x="864" y="1843" on="1"/>
        <pt x="864" y="1795" on="0"/>
        <pt x="822" y="1713" on="0"/>
        <pt x="743" y="1664" on="0"/>
        <pt x="692" y="1664" on="1"/>
        <pt x="657" y="1664" on="0"/>
        <pt x="597" y="1704" on="0"/>
        <pt x="561" y="1769" on="0"/>
        <pt x="561" y="1805" on="1"/>
      </contour>
    </TTGlyph>
    <TTGlyph name="divide" xMin="233" yMin="198" xMax="1174" yMax="1360">
      <contour>
        <pt x="597" y="1221" on="0"/>
        <pt x="649" y="1308" on="0"/>
        <pt x="738" y="1360" on="0"/>
        <pt x="789" y="1360" on="1"/>
        <pt x="860" y="1360" on="0"/>
        <pt x="930" y="1289" on="0"/>
        <pt x="930" y="1233" on="1"/>
        <pt x="930" y="1177" on="0"/>
        <pt x="878" y="1090" on="0"/>
        <pt x="789" y="1041" on="0"/>
        <pt x="736" y="1041" on="1"/>
        <pt x="675" y="1041" on="0"/>
        <pt x="597" y="1113" on="0"/>
        <pt x="597" y="1171" on="1"/>
      </contour>
      <contour>
        <pt x="1174" y="885" on="1"/>
        <pt x="1148" y="675" on="1"/>
        <pt x="233" y="675" on="1"/>
        <pt x="260" y="886" on="1"/>
      </contour>
      <contour>
        <pt x="493" y="378" on="0"/>
        <pt x="545" y="465" on="0"/>
        <pt x="633" y="517" on="0"/>
        <pt x="685" y="517" on="1"/>
        <pt x="756" y="517" on="0"/>
        <pt x="825" y="447" on="0"/>
        <pt x="825" y="390" on="1"/>
        <pt x="825" y="334" on="0"/>
        <pt x="774" y="247" on="0"/>
        <pt x="685" y="198" on="0"/>
        <pt x="632" y="198" on="1"/>
        <pt x="571" y="198" on="0"/>
        <pt x="493" y="270" on="0"/>
        <pt x="493" y="328" on="1"/>
      </contour>
    </TTGlyph>
    <TTGlyph name="dollar" xMin="101" yMin="-253" xMax="1106" yMax="1761">
      <contour>
        <pt x="822" y="801" on="0"/>
        <pt x="946" y="684" on="0"/>
        <pt x="1032" y="525" on="0"/>
        <pt x="1032" y="428" on="1"/>
        <pt x="1032" y="241" on="0"/>
        <pt x="811" y="17" on="0"/>
        <pt x="617" y="-11" on="1"/>
        <pt x="575" y="-253" on="1"/>
        <pt x="365" y="-253" on="1"/>
        <pt x="406" y="-15" on="1"/>
        <pt x="308" y="-5" on="0"/>
        <pt x="130" y="48" on="0"/>
        <pt x="101" y="73" on="1"/>
        <pt x="186" y="294" on="1"/>
        <pt x="211" y="271" on="0"/>
        <pt x="310" y="226" on="0"/>
        <pt x="430" y="197" on="0"/>
        <pt x="484" y="197" on="1"/>
        <pt x="606" y="197" on="0"/>
        <pt x="750" y="292" on="0"/>
        <pt x="750" y="387" on="1"/>
        <pt x="750" y="464" on="0"/>
        <pt x="659" y="595" on="0"/>
        <pt x="546" y="673" on="1"/>
        <pt x="415" y="765" on="0"/>
        <pt x="254" y="979" on="0"/>
        <pt x="254" y="1124" on="1"/>
        <pt x="254" y="1235" on="0"/>
        <pt x="352" y="1408" on="0"/>
        <pt x="528" y="1518" on="0"/>
        <pt x="644" y="1537" on="1"/>
        <pt x="681" y="1761" on="1"/>
        <pt x="892" y="1761" on="1"/>
        <pt x="855" y="1542" on="1"/>
        <pt x="942" y="1533" on="0"/>
        <pt x="1068" y="1488" on="0"/>
        <pt x="1106" y="1461" on="1"/>
        <pt x="1020" y="1245" on="1"/>
        <pt x="982" y="1284" on="0"/>
        <pt x="822" y="1331" on="0"/>
        <pt x="751" y="1331" on="1"/>
        <pt x="649" y="1331" on="0"/>
        <pt x="517" y="1246" on="0"/>
        <pt x="517" y="1157" on="1"/>
        <pt x="517" y="1097" on="0"/>
        <pt x="561" y="1008" on="0"/>
        <pt x="650" y="925" on="0"/>
        <pt x="735" y="863" on="1"/>
      </contour>
    </TTGlyph>
    <TTGlyph name="dong" xMin="36" yMin="0" xMax="1300" yMax="1690">
      <contour>
        <pt x="873" y="1522" on="1"/>
        <pt x="895" y="1690" on="1"/>
        <pt x="1145" y="1690" on="1"/>
        <pt x="1123" y="1522" on="1"/>
        <pt x="1300" y="1522" on="1"/>
        <pt x="1280" y="1363" on="1"/>
        <pt x="1102" y="1363" on="1"/>
        <pt x="969" y="319" on="1"/>
        <pt x="769" y="319" on="1"/>
        <pt x="750" y="319" on="0"/>
        <pt x="753" y="353" on="1"/>
        <pt x="753" y="355" on="0"/>
        <pt x="759" y="403" on="0"/>
        <pt x="761" y="429" on="1"/>
        <pt x="712" y="383" on="0"/>
        <pt x="578" y="319" on="0"/>
        <pt x="472" y="319" on="1"/>
        <pt x="382" y="319" on="0"/>
        <pt x="232" y="407" on="0"/>
        <pt x="143" y="577" on="0"/>
        <pt x="143" y="693" on="1"/>
        <pt x="143" y="865" on="0"/>
        <pt x="278" y="1116" on="0"/>
        <pt x="522" y="1248" on="0"/>
        <pt x="681" y="1248" on="1"/>
        <pt x="778" y="1248" on="0"/>
        <pt x="842" y="1217" on="1"/>
        <pt x="852" y="1363" on="1"/>
        <pt x="607" y="1363" on="1"/>
        <pt x="628" y="1522" on="1"/>
      </contour>
      <contour>
        <pt x="529" y="1064" on="0"/>
        <pt x="408" y="874" on="0"/>
        <pt x="408" y="719" on="1"/>
        <pt x="408" y="621" on="0"/>
        <pt x="474" y="519" on="0"/>
        <pt x="535" y="519" on="1"/>
        <pt x="624" y="519" on="0"/>
        <pt x="715" y="553" on="0"/>
        <pt x="748" y="578" on="1"/>
        <pt x="805" y="1027" on="1"/>
        <pt x="793" y="1041" on="0"/>
        <pt x="724" y="1064" on="0"/>
        <pt x="660" y="1064" on="1"/>
      </contour>
      <contour>
        <pt x="1055" y="188" on="1"/>
        <pt x="1030" y="0" on="1"/>
        <pt x="36" y="0" on="1"/>
        <pt x="60" y="188" on="1"/>
      </contour>
    </TTGlyph>
    <TTGlyph name="dotaccent" xMin="31" yMin="1351" xMax="358" yMax="1666">
      <contour>
        <pt x="31" y="1536" on="0"/>
        <pt x="78" y="1617" on="0"/>
        <pt x="159" y="1666" on="0"/>
        <pt x="208" y="1666" on="1"/>
        <pt x="252" y="1666" on="0"/>
        <pt x="321" y="1629" on="0"/>
        <pt x="358" y="1567" on="0"/>
        <pt x="358" y="1530" on="1"/>
        <pt x="358" y="1481" on="0"/>
        <pt x="312" y="1399" on="0"/>
        <pt x="227" y="1351" on="0"/>
        <pt x="173" y="1351" on="1"/>
        <pt x="135" y="1351" on="0"/>
        <pt x="70" y="1388" on="0"/>
        <pt x="31" y="1451" on="0"/>
        <pt x="31" y="1489" on="1"/>
      </contour>
    </TTGlyph>
    <TTGlyph name="dotaccent.cap" xMin="27" yMin="1654" xMax="356" yMax="1967">
      <contour>
        <pt x="27" y="1840" on="0"/>
        <pt x="75" y="1920" on="0"/>
        <pt x="157" y="1967" on="0"/>
        <pt x="204" y="1967" on="1"/>
        <pt x="273" y="1967" on="0"/>
        <pt x="356" y="1890" on="0"/>
        <pt x="356" y="1833" on="1"/>
        <pt x="356" y="1785" on="0"/>
        <pt x="309" y="1703" on="0"/>
        <pt x="225" y="1654" on="0"/>
        <pt x="171" y="1654" on="1"/>
        <pt x="131" y="1654" on="0"/>
        <pt x="65" y="1692" on="0"/>
        <pt x="27" y="1755" on="0"/>
        <pt x="27" y="1793" on="1"/>
      </contour>
    </TTGlyph>
    <TTGlyph name="dotlessi" xMin="102" yMin="0" xMax="535" yMax="1140">
      <contour>
        <pt x="535" y="1140" on="1"/>
        <pt x="378" y="0" on="1"/>
        <pt x="102" y="0" on="1"/>
        <pt x="258" y="1140" on="1"/>
      </contour>
    </TTGlyph>
    <TTGlyph name="e" xMin="80" yMin="-16" xMax="1011" yMax="1156">
      <contour>
        <pt x="855" y="1156" on="0"/>
        <pt x="1011" y="1018" on="0"/>
        <pt x="1011" y="900" on="1"/>
        <pt x="1011" y="687" on="0"/>
        <pt x="635" y="451" on="0"/>
        <pt x="371" y="404" on="1"/>
        <pt x="365" y="182" on="0"/>
        <pt x="548" y="182" on="1"/>
        <pt x="630" y="182" on="0"/>
        <pt x="811" y="275" on="0"/>
        <pt x="876" y="343" on="1"/>
        <pt x="949" y="202" on="1"/>
        <pt x="916" y="155" on="0"/>
        <pt x="784" y="54" on="0"/>
        <pt x="598" y="-16" on="0"/>
        <pt x="493" y="-16" on="1"/>
        <pt x="354" y="-16" on="0"/>
        <pt x="168" y="107" on="0"/>
        <pt x="80" y="310" on="0"/>
        <pt x="80" y="430" on="1"/>
        <pt x="80" y="633" on="0"/>
        <pt x="241" y="965" on="0"/>
        <pt x="524" y="1156" on="0"/>
        <pt x="700" y="1156" on="1"/>
      </contour>
      <contour>
        <pt x="741" y="933" on="0"/>
        <pt x="689" y="984" on="0"/>
        <pt x="639" y="984" on="1"/>
        <pt x="562" y="984" on="0"/>
        <pt x="445" y="847" on="0"/>
        <pt x="377" y="650" on="0"/>
        <pt x="371" y="563" on="1"/>
        <pt x="445" y="567" on="0"/>
        <pt x="620" y="650" on="0"/>
        <pt x="741" y="790" on="0"/>
        <pt x="741" y="874" on="1"/>
      </contour>
    </TTGlyph>
    <TTGlyph name="eacute" xMin="80" yMin="-16" xMax="1061" yMax="1744">
      <component glyphName="acute" x="526" y="0" flags="0x0"/>
      <component glyphName="e" x="0" y="0" flags="0x0"/>
    </TTGlyph>
    <TTGlyph name="ebreve" xMin="80" yMin="-16" xMax="1045" yMax="1668">
      <component glyphName="e" x="0" y="0" flags="0x0"/>
      <component glyphName="breve" x="339" y="2" flags="0x4"/>
    </TTGlyph>
    <TTGlyph name="ecaron" xMin="80" yMin="-16" xMax="1088" yMax="1660">
      <component glyphName="caron" x="297" y="0" flags="0x0"/>
      <component glyphName="e" x="0" y="0" flags="0x0"/>
    </TTGlyph>
    <TTGlyph name="ecircumflex" xMin="80" yMin="-16" xMax="1041" yMax="1660">
      <component glyphName="circumflex" x="270" y="0" flags="0x0"/>
      <component glyphName="e" x="0" y="0" flags="0x0"/>
    </TTGlyph>
    <TTGlyph name="edieresis" xMin="80" yMin="-16" xMax="1081" yMax="1676">
      <component glyphName="dieresis" x="304" y="0" flags="0x0"/>
      <component glyphName="e" x="0" y="0" flags="0x0"/>
    </TTGlyph>
    <TTGlyph name="edotaccent" xMin="80" yMin="-16" xMax="1011" yMax="1668">
      <component glyphName="e" x="0" y="0" flags="0x0"/>
      <component glyphName="dotaccent" x="520" y="2" flags="0x4"/>
    </TTGlyph>
    <TTGlyph name="egrave" xMin="80" yMin="-16" xMax="1011" yMax="1746">
      <component glyphName="e" x="0" y="0" flags="0x0"/>
      <component glyphName="grave" x="247" y="2" flags="0x4"/>
    </TTGlyph>
    <TTGlyph name="eight" xMin="125" yMin="-18" xMax="1219" yMax="1559">
      <contour>
        <pt x="406" y="872" on="0"/>
        <pt x="309" y="1033" on="0"/>
        <pt x="309" y="1136" on="1"/>
        <pt x="309" y="1267" on="0"/>
        <pt x="432" y="1458" on="0"/>
        <pt x="653" y="1559" on="0"/>
        <pt x="796" y="1559" on="1"/>
        <pt x="916" y="1559" on="0"/>
        <pt x="1109" y="1476" on="0"/>
        <pt x="1219" y="1324" on="0"/>
        <pt x="1219" y="1225" on="1"/>
        <pt x="1219" y="1122" on="0"/>
        <pt x="1126" y="955" on="0"/>
        <pt x="973" y="839" on="0"/>
        <pt x="883" y="808" on="1"/>
        <pt x="1006" y="718" on="0"/>
        <pt x="1149" y="524" on="0"/>
        <pt x="1149" y="405" on="1"/>
        <pt x="1149" y="275" on="0"/>
        <pt x="1005" y="84" on="0"/>
        <pt x="754" y="-18" on="0"/>
        <pt x="598" y="-18" on="1"/>
        <pt x="470" y="-18" on="0"/>
        <pt x="254" y="68" on="0"/>
        <pt x="125" y="235" on="0"/>
        <pt x="125" y="351" on="1"/>
        <pt x="125" y="458" on="0"/>
        <pt x="225" y="634" on="0"/>
        <pt x="392" y="758" on="0"/>
        <pt x="494" y="796" on="1"/>
      </contour>
      <contour>
        <pt x="965" y="1262" on="0"/>
        <pt x="913" y="1346" on="0"/>
        <pt x="827" y="1390" on="0"/>
        <pt x="777" y="1390" on="1"/>
        <pt x="716" y="1390" on="0"/>
        <pt x="624" y="1332" on="0"/>
        <pt x="574" y="1231" on="0"/>
        <pt x="574" y="1169" on="1"/>
        <pt x="574" y="1093" on="0"/>
        <pt x="672" y="966" on="0"/>
        <pt x="766" y="897" on="1"/>
        <pt x="855" y="944" on="0"/>
        <pt x="965" y="1101" on="0"/>
        <pt x="965" y="1203" on="1"/>
      </contour>
      <contour>
        <pt x="703" y="158" on="0"/>
        <pt x="807" y="212" on="0"/>
        <pt x="865" y="310" on="0"/>
        <pt x="865" y="372" on="1"/>
        <pt x="865" y="461" on="0"/>
        <pt x="735" y="616" on="0"/>
        <pt x="608" y="707" on="1"/>
        <pt x="516" y="655" on="0"/>
        <pt x="399" y="493" on="0"/>
        <pt x="398" y="388" on="1"/>
        <pt x="398" y="322" on="0"/>
        <pt x="461" y="217" on="0"/>
        <pt x="570" y="158" on="0"/>
        <pt x="635" y="158" on="1"/>
      </contour>
    </TTGlyph>
    <TTGlyph name="ellipsis" xMin="59" yMin="-26" xMax="1435" yMax="294">
      <contour>
        <pt x="314" y="294" on="0"/>
        <pt x="383" y="224" on="0"/>
        <pt x="383" y="167" on="1"/>
        <pt x="383" y="111" on="0"/>
        <pt x="333" y="23" on="0"/>
        <pt x="245" y="-26" on="0"/>
        <pt x="192" y="-26" on="1"/>
        <pt x="132" y="-26" on="0"/>
        <pt x="59" y="44" on="0"/>
        <pt x="59" y="102" on="1"/>
        <pt x="59" y="153" on="0"/>
        <pt x="107" y="241" on="0"/>
        <pt x="190" y="294" on="0"/>
        <pt x="242" y="294" on="1"/>
      </contour>
      <contour>
        <pt x="840" y="294" on="0"/>
        <pt x="909" y="224" on="0"/>
        <pt x="909" y="167" on="1"/>
        <pt x="909" y="111" on="0"/>
        <pt x="859" y="23" on="0"/>
        <pt x="771" y="-26" on="0"/>
        <pt x="718" y="-26" on="1"/>
        <pt x="658" y="-26" on="0"/>
        <pt x="585" y="44" on="0"/>
        <pt x="585" y="102" on="1"/>
        <pt x="585" y="153" on="0"/>
        <pt x="633" y="241" on="0"/>
        <pt x="716" y="294" on="0"/>
        <pt x="768" y="294" on="1"/>
      </contour>
      <contour>
        <pt x="1366" y="294" on="0"/>
        <pt x="1435" y="224" on="0"/>
        <pt x="1435" y="167" on="1"/>
        <pt x="1435" y="111" on="0"/>
        <pt x="1385" y="23" on="0"/>
        <pt x="1297" y="-26" on="0"/>
        <pt x="1244" y="-26" on="1"/>
        <pt x="1184" y="-26" on="0"/>
        <pt x="1111" y="44" on="0"/>
        <pt x="1111" y="102" on="1"/>
        <pt x="1111" y="153" on="0"/>
        <pt x="1159" y="241" on="0"/>
        <pt x="1242" y="294" on="0"/>
        <pt x="1294" y="294" on="1"/>
      </contour>
    </TTGlyph>
    <TTGlyph name="emacron" xMin="80" yMin="-16" xMax="1011" yMax="1596">
      <component glyphName="e" x="0" y="0" flags="0x0"/>
      <component glyphName="macron" x="369" y="2" flags="0x4"/>
    </TTGlyph>
    <TTGlyph name="emdash" xMin="221" yMin="671" xMax="1875" yMax="874">
      <contour>
        <pt x="1875" y="874" on="1"/>
        <pt x="1842" y="671" on="1"/>
        <pt x="221" y="671" on="1"/>
        <pt x="254" y="874" on="1"/>
      </contour>
    </TTGlyph>
    <TTGlyph name="endash" xMin="221" yMin="671" xMax="1352" yMax="874">
      <contour>
        <pt x="1352" y="874" on="1"/>
        <pt x="1319" y="671" on="1"/>
        <pt x="221" y="671" on="1"/>
        <pt x="254" y="874" on="1"/>
      </contour>
    </TTGlyph>
    <TTGlyph name="eng" xMin="80" yMin="-523" xMax="1136" yMax="1156">
      <contour>
        <pt x="1011" y="1156" on="0"/>
        <pt x="1136" y="1017" on="0"/>
        <pt x="1136" y="860" on="1"/>
        <pt x="1136" y="785" on="0"/>
        <pt x="1065" y="268" on="0"/>
        <pt x="1022" y="0" on="1"/>
        <pt x="991" y="-193" on="0"/>
        <pt x="864" y="-423" on="0"/>
        <pt x="672" y="-523" on="0"/>
        <pt x="536" y="-523" on="1"/>
        <pt x="481" y="-523" on="0"/>
        <pt x="384" y="-503" on="0"/>
        <pt x="368" y="-486" on="1"/>
        <pt x="405" y="-385" on="1"/>
        <pt x="417" y="-390" on="0"/>
        <pt x="465" y="-397" on="0"/>
        <pt x="477" y="-397" on="1"/>
        <pt x="560" y="-397" on="0"/>
        <pt x="668" y="-290" on="0"/>
        <pt x="730" y="-103" on="0"/>
        <pt x="750" y="33" on="1"/>
        <pt x="794" y="316" on="0"/>
        <pt x="848" y="721" on="0"/>
        <pt x="851" y="821" on="1"/>
        <pt x="852" y="885" on="0"/>
        <pt x="807" y="931" on="0"/>
        <pt x="758" y="931" on="1"/>
        <pt x="713" y="931" on="0"/>
        <pt x="602" y="871" on="0"/>
        <pt x="494" y="770" on="0"/>
        <pt x="453" y="709" on="1"/>
        <pt x="356" y="0" on="1"/>
        <pt x="80" y="0" on="1"/>
        <pt x="235" y="1140" on="1"/>
        <pt x="498" y="1140" on="1"/>
        <pt x="482" y="926" on="1"/>
        <pt x="561" y="1030" on="0"/>
        <pt x="774" y="1156" on="0"/>
        <pt x="887" y="1156" on="1"/>
      </contour>
    </TTGlyph>
    <TTGlyph name="eogonek" xMin="80" yMin="-473" xMax="1011" yMax="1156">
      <contour>
        <pt x="630" y="182" on="0"/>
        <pt x="811" y="275" on="0"/>
        <pt x="876" y="343" on="1"/>
        <pt x="949" y="202" on="1"/>
        <pt x="927" y="171" on="0"/>
        <pt x="851" y="103" on="0"/>
        <pt x="802" y="73" on="1"/>
        <pt x="709" y="-4" on="0"/>
        <pt x="552" y="-172" on="0"/>
        <pt x="552" y="-213" on="1"/>
        <pt x="552" y="-251" on="0"/>
        <pt x="589" y="-282" on="0"/>
        <pt x="617" y="-282" on="1"/>
        <pt x="653" y="-282" on="0"/>
        <pt x="718" y="-258" on="0"/>
        <pt x="759" y="-227" on="1"/>
        <pt x="805" y="-364" on="1"/>
        <pt x="754" y="-413" on="0"/>
        <pt x="610" y="-473" on="0"/>
        <pt x="518" y="-473" on="1"/>
        <pt x="455" y="-473" on="0"/>
        <pt x="363" y="-423" on="0"/>
        <pt x="315" y="-343" on="0"/>
        <pt x="315" y="-299" on="1"/>
        <pt x="315" y="-215" on="0"/>
        <pt x="462" y="-63" on="0"/>
        <pt x="551" y="-13" on="1"/>
        <pt x="523" y="-16" on="0"/>
        <pt x="493" y="-16" on="1"/>
        <pt x="354" y="-16" on="0"/>
        <pt x="168" y="107" on="0"/>
        <pt x="80" y="310" on="0"/>
        <pt x="80" y="430" on="1"/>
        <pt x="80" y="633" on="0"/>
        <pt x="241" y="965" on="0"/>
        <pt x="524" y="1156" on="0"/>
        <pt x="700" y="1156" on="1"/>
        <pt x="855" y="1156" on="0"/>
        <pt x="1011" y="1018" on="0"/>
        <pt x="1011" y="900" on="1"/>
        <pt x="1011" y="687" on="0"/>
        <pt x="635" y="451" on="0"/>
        <pt x="371" y="404" on="1"/>
        <pt x="365" y="182" on="0"/>
        <pt x="548" y="182" on="1"/>
      </contour>
      <contour>
        <pt x="562" y="984" on="0"/>
        <pt x="445" y="847" on="0"/>
        <pt x="377" y="650" on="0"/>
        <pt x="371" y="563" on="1"/>
        <pt x="445" y="567" on="0"/>
        <pt x="620" y="650" on="0"/>
        <pt x="741" y="790" on="0"/>
        <pt x="741" y="874" on="1"/>
        <pt x="741" y="933" on="0"/>
        <pt x="689" y="984" on="0"/>
        <pt x="639" y="984" on="1"/>
      </contour>
    </TTGlyph>
    <TTGlyph name="equal" xMin="101" yMin="327" xMax="1019" yMax="1031">
      <contour>
        <pt x="1019" y="1031" on="1"/>
        <pt x="991" y="828" on="1"/>
        <pt x="164" y="828" on="1"/>
        <pt x="191" y="1031" on="1"/>
      </contour>
      <contour>
        <pt x="956" y="530" on="1"/>
        <pt x="929" y="327" on="1"/>
        <pt x="101" y="327" on="1"/>
        <pt x="129" y="530" on="1"/>
      </contour>
    </TTGlyph>
    <TTGlyph name="estimated" xMin="120" yMin="-16" xMax="1298" yMax="1359">
      <contour>
        <pt x="438" y="622" on="1"/>
        <pt x="438" y="241" on="1"/>
        <pt x="551" y="124" on="0"/>
        <pt x="770" y="124" on="1"/>
        <pt x="876" y="124" on="0"/>
        <pt x="1080" y="190" on="0"/>
        <pt x="1144" y="231" on="1"/>
        <pt x="1200" y="99" on="1"/>
        <pt x="1133" y="52" on="0"/>
        <pt x="878" y="-16" on="0"/>
        <pt x="755" y="-16" on="1"/>
        <pt x="556" y="-16" on="0"/>
        <pt x="271" y="148" on="0"/>
        <pt x="120" y="457" on="0"/>
        <pt x="120" y="671" on="1"/>
        <pt x="120" y="871" on="0"/>
        <pt x="261" y="1177" on="0"/>
        <pt x="546" y="1353" on="0"/>
        <pt x="754" y="1356" on="1"/>
        <pt x="902" y="1359" on="0"/>
        <pt x="1147" y="1232" on="0"/>
        <pt x="1293" y="992" on="0"/>
        <pt x="1298" y="832" on="1"/>
        <pt x="1298" y="749" on="0"/>
        <pt x="1295" y="656" on="0"/>
        <pt x="1288" y="622" on="1"/>
      </contour>
      <contour>
        <pt x="544" y="1216" on="0"/>
        <pt x="438" y="1097" on="1"/>
        <pt x="438" y="768" on="1"/>
        <pt x="995" y="768" on="1"/>
        <pt x="995" y="1143" on="1"/>
        <pt x="906" y="1216" on="0"/>
        <pt x="740" y="1216" on="1"/>
      </contour>
    </TTGlyph>
    <TTGlyph name="eth" xMin="78" yMin="-16" xMax="1117" yMax="1819">
      <contour>
        <pt x="976" y="1420" on="0"/>
        <pt x="1117" y="1047" on="0"/>
        <pt x="1117" y="836" on="1"/>
        <pt x="1117" y="596" on="0"/>
        <pt x="976" y="209" on="0"/>
        <pt x="701" y="-16" on="0"/>
        <pt x="506" y="-16" on="1"/>
        <pt x="367" y="-16" on="0"/>
        <pt x="174" y="115" on="0"/>
        <pt x="78" y="322" on="0"/>
        <pt x="78" y="435" on="1"/>
        <pt x="78" y="656" on="0"/>
        <pt x="225" y="984" on="0"/>
        <pt x="479" y="1157" on="0"/>
        <pt x="635" y="1157" on="1"/>
        <pt x="707" y="1157" on="0"/>
        <pt x="824" y="1117" on="0"/>
        <pt x="853" y="1077" on="1"/>
        <pt x="842" y="1187" on="0"/>
        <pt x="766" y="1347" on="0"/>
        <pt x="699" y="1420" on="1"/>
        <pt x="571" y="1277" on="1"/>
        <pt x="455" y="1378" on="1"/>
        <pt x="594" y="1520" on="1"/>
        <pt x="472" y="1618" on="0"/>
        <pt x="359" y="1649" on="1"/>
        <pt x="411" y="1798" on="1"/>
        <pt x="480" y="1780" on="0"/>
        <pt x="640" y="1703" on="0"/>
        <pt x="712" y="1654" on="1"/>
        <pt x="762" y="1710" on="0"/>
        <pt x="842" y="1803" on="0"/>
        <pt x="855" y="1819" on="1"/>
        <pt x="963" y="1717" on="1"/>
        <pt x="826" y="1563" on="1"/>
      </contour>
      <contour>
        <pt x="837" y="857" on="0"/>
        <pt x="790" y="937" on="0"/>
        <pt x="701" y="995" on="0"/>
        <pt x="641" y="995" on="1"/>
        <pt x="552" y="995" on="0"/>
        <pt x="430" y="824" on="0"/>
        <pt x="370" y="561" on="0"/>
        <pt x="370" y="423" on="1"/>
        <pt x="370" y="349" on="0"/>
        <pt x="409" y="226" on="0"/>
        <pt x="483" y="152" on="0"/>
        <pt x="535" y="152" on="1"/>
        <pt x="600" y="152" on="0"/>
        <pt x="714" y="265" on="0"/>
        <pt x="794" y="458" on="0"/>
        <pt x="811" y="575" on="1"/>
        <pt x="818" y="623" on="0"/>
        <pt x="837" y="796" on="0"/>
        <pt x="837" y="826" on="1"/>
      </contour>
    </TTGlyph>
    <TTGlyph name="exclam" xMin="113" yMin="-26" xMax="665" yMax="1778">
      <contour>
        <pt x="665" y="1778" on="1"/>
        <pt x="432" y="488" on="1"/>
        <pt x="224" y="488" on="1"/>
        <pt x="370" y="1778" on="1"/>
      </contour>
      <contour>
        <pt x="378" y="294" on="0"/>
        <pt x="446" y="224" on="0"/>
        <pt x="446" y="167" on="1"/>
        <pt x="446" y="110" on="0"/>
        <pt x="395" y="23" on="0"/>
        <pt x="307" y="-26" on="0"/>
        <pt x="251" y="-26" on="1"/>
        <pt x="190" y="-26" on="0"/>
        <pt x="113" y="45" on="0"/>
        <pt x="113" y="103" on="1"/>
        <pt x="113" y="154" on="0"/>
        <pt x="164" y="242" on="0"/>
        <pt x="252" y="294" on="0"/>
        <pt x="306" y="294" on="1"/>
      </contour>
    </TTGlyph>
    <TTGlyph name="exclamdbl" xMin="113" yMin="-26" xMax="1283" yMax="1778">
      <component glyphName="exclam" x="618" y="0" flags="0x0"/>
      <component glyphName="exclam" x="0" y="0" flags="0x0"/>
    </TTGlyph>
    <TTGlyph name="exclamdown" xMin="55" yMin="-434" xMax="607" yMax="1370">
      <contour>
        <pt x="342" y="1050" on="0"/>
        <pt x="274" y="1120" on="0"/>
        <pt x="274" y="1177" on="1"/>
        <pt x="274" y="1234" on="0"/>
        <pt x="325" y="1321" on="0"/>
        <pt x="413" y="1370" on="0"/>
        <pt x="469" y="1370" on="1"/>
        <pt x="530" y="1370" on="0"/>
        <pt x="607" y="1299" on="0"/>
        <pt x="607" y="1241" on="1"/>
        <pt x="607" y="1190" on="0"/>
        <pt x="556" y="1102" on="0"/>
        <pt x="468" y="1050" on="0"/>
        <pt x="414" y="1050" on="1"/>
      </contour>
      <contour>
        <pt x="55" y="-434" on="1"/>
        <pt x="288" y="856" on="1"/>
        <pt x="496" y="856" on="1"/>
        <pt x="350" y="-434" on="1"/>
      </contour>
    </TTGlyph>
    <TTGlyph name="f" xMin="129" yMin="0" xMax="921" yMax="1676">
      <contour>
        <pt x="129" y="954" on="1"/>
        <pt x="163" y="1140" on="1"/>
        <pt x="285" y="1140" on="1"/>
        <pt x="301" y="1240" on="1"/>
        <pt x="319" y="1370" on="0"/>
        <pt x="438" y="1567" on="0"/>
        <pt x="631" y="1676" on="0"/>
        <pt x="757" y="1676" on="1"/>
        <pt x="861" y="1676" on="0"/>
        <pt x="921" y="1650" on="1"/>
        <pt x="865" y="1451" on="1"/>
        <pt x="847" y="1466" on="0"/>
        <pt x="785" y="1491" on="0"/>
        <pt x="744" y="1491" on="1"/>
        <pt x="678" y="1491" on="0"/>
        <pt x="593" y="1392" on="0"/>
        <pt x="578" y="1295" on="1"/>
        <pt x="554" y="1140" on="1"/>
        <pt x="754" y="1140" on="1"/>
        <pt x="734" y="954" on="1"/>
        <pt x="531" y="954" on="1"/>
        <pt x="401" y="0" on="1"/>
        <pt x="129" y="0" on="1"/>
        <pt x="259" y="954" on="1"/>
      </contour>
    </TTGlyph>
    <TTGlyph name="f_f" xMin="129" yMin="0" xMax="1651" yMax="1676">
      <component glyphName="f" x="0" y="0" flags="0x0"/>
      <component glyphName="f" x="730" y="0" flags="0x0"/>
    </TTGlyph>
    <TTGlyph name="f_f_i" xMin="102" yMin="0" xMax="2275" yMax="1676">
      <component glyphName="dotlessi" x="0" y="0" flags="0x0"/>
      <component glyphName="dotaccent" x="268" y="2" flags="0x4"/>
      <component glyphName="f" x="624" y="0" flags="0x0"/>
      <component glyphName="f" x="1354" y="0" flags="0x0"/>
    </TTGlyph>
    <TTGlyph name="f_f_i_trk" xMin="129" yMin="0" xMax="2080" yMax="1676">
      <component glyphName="f" x="0" y="0" flags="0x0"/>
      <component glyphName="f" x="730" y="0" flags="0x0"/>
      <component glyphName="dotlessi" x="1460" y="0" flags="0x0"/>
      <component glyphName="dotaccent" x="1722" y="2" flags="0x4"/>
    </TTGlyph>
    <TTGlyph name="f_f_l" xMin="104" yMin="0" xMax="2276" yMax="1676">
      <component glyphName="l" x="0" y="0" flags="0x0"/>
      <component glyphName="f" x="625" y="0" flags="0x0"/>
      <component glyphName="f" x="1355" y="0" flags="0x0"/>
    </TTGlyph>
    <TTGlyph name="f_i_trk" xMin="129" yMin="0" xMax="1356" yMax="1676">
      <component glyphName="f" x="0" y="0" flags="0x0"/>
      <component glyphName="dotlessi" x="730" y="0" flags="0x0"/>
      <component glyphName="dotaccent" x="998" y="2" flags="0x4"/>
    </TTGlyph>
    <TTGlyph name="ffi_dflt" xMin="102" yMin="0" xMax="2275" yMax="1676">
      <component glyphName="dotlessi" x="0" y="0" flags="0x0"/>
      <component glyphName="dotaccent" x="268" y="2" flags="0x4"/>
      <component glyphName="f" x="624" y="0" flags="0x0"/>
      <component glyphName="f" x="1354" y="0" flags="0x0"/>
    </TTGlyph>
    <TTGlyph name="fi" xMin="102" yMin="0" xMax="1545" yMax="1676">
      <component glyphName="dotlessi" x="0" y="0" flags="0x0"/>
      <component glyphName="dotaccent" x="268" y="2" flags="0x4"/>
      <component glyphName="f" x="624" y="0" flags="0x0"/>
    </TTGlyph>
    <TTGlyph name="fi_trk" xMin="102" yMin="0" xMax="1545" yMax="1676">
      <component glyphName="dotlessi" x="0" y="0" flags="0x0"/>
      <component glyphName="dotaccent" x="268" y="2" flags="0x4"/>
      <component glyphName="f" x="624" y="0" flags="0x0"/>
    </TTGlyph>
    <TTGlyph name="five" xMin="40" yMin="-356" xMax="1065" yMax="1159">
      <contour>
        <pt x="283" y="-160" on="0"/>
        <pt x="532" y="-87" on="0"/>
        <pt x="693" y="68" on="0"/>
        <pt x="693" y="186" on="1"/>
        <pt x="693" y="291" on="0"/>
        <pt x="588" y="402" on="0"/>
        <pt x="474" y="402" on="1"/>
        <pt x="420" y="402" on="0"/>
        <pt x="278" y="371" on="0"/>
        <pt x="230" y="349" on="1"/>
        <pt x="131" y="454" on="1"/>
        <pt x="288" y="1143" on="1"/>
        <pt x="855" y="1143" on="1"/>
        <pt x="877" y="1159" on="1"/>
        <pt x="1065" y="1159" on="1"/>
        <pt x="1005" y="921" on="1"/>
        <pt x="498" y="921" on="1"/>
        <pt x="401" y="561" on="1"/>
        <pt x="442" y="574" on="0"/>
        <pt x="567" y="593" on="0"/>
        <pt x="624" y="593" on="1"/>
        <pt x="806" y="593" on="0"/>
        <pt x="1004" y="405" on="0"/>
        <pt x="1004" y="225" on="1"/>
        <pt x="1004" y="50" on="0"/>
        <pt x="787" y="-213" on="0"/>
        <pt x="408" y="-356" on="0"/>
        <pt x="170" y="-356" on="1"/>
        <pt x="89" y="-356" on="0"/>
        <pt x="40" y="-339" on="1"/>
        <pt x="70" y="-153" on="1"/>
        <pt x="113" y="-160" on="0"/>
        <pt x="149" y="-160" on="1"/>
      </contour>
    </TTGlyph>
    <TTGlyph name="fl" xMin="104" yMin="0" xMax="1546" yMax="1676">
      <component glyphName="l" x="0" y="0" flags="0x0"/>
      <component glyphName="f" x="625" y="0" flags="0x0"/>
    </TTGlyph>
    <TTGlyph name="florin" xMin="191" yMin="-356" xMax="1037" yMax="1674">
      <contour>
        <pt x="191" y="969" on="1"/>
        <pt x="208" y="1113" on="1"/>
        <pt x="402" y="1155" on="1"/>
        <pt x="415" y="1238" on="1"/>
        <pt x="433" y="1370" on="0"/>
        <pt x="566" y="1568" on="0"/>
        <pt x="760" y="1674" on="0"/>
        <pt x="870" y="1674" on="1"/>
        <pt x="986" y="1674" on="0"/>
        <pt x="1037" y="1653" on="1"/>
        <pt x="1000" y="1449" on="1"/>
        <pt x="977" y="1465" on="0"/>
        <pt x="919" y="1488" on="0"/>
        <pt x="873" y="1488" on="1"/>
        <pt x="822" y="1488" on="0"/>
        <pt x="753" y="1457" on="0"/>
        <pt x="706" y="1372" on="0"/>
        <pt x="693" y="1294" on="1"/>
        <pt x="671" y="1155" on="1"/>
        <pt x="902" y="1155" on="1"/>
        <pt x="882" y="969" on="1"/>
        <pt x="648" y="969" on="1"/>
        <pt x="605" y="655" on="0"/>
        <pt x="489" y="-217" on="0"/>
        <pt x="471" y="-356" on="1"/>
        <pt x="198" y="-356" on="1"/>
        <pt x="376" y="969" on="1"/>
      </contour>
    </TTGlyph>
    <TTGlyph name="four" xMin="11" yMin="-375" xMax="1185" yMax="1256">
      <contour>
        <pt x="811" y="1256" on="1"/>
        <pt x="923" y="1167" on="1"/>
        <pt x="370" y="282" on="1"/>
        <pt x="291" y="177" on="1"/>
        <pt x="701" y="194" on="1"/>
        <pt x="756" y="614" on="1"/>
        <pt x="1014" y="649" on="1"/>
        <pt x="959" y="203" on="1"/>
        <pt x="1185" y="218" on="1"/>
        <pt x="1156" y="0" on="1"/>
        <pt x="931" y="0" on="1"/>
        <pt x="884" y="-375" on="1"/>
        <pt x="625" y="-375" on="1"/>
        <pt x="674" y="0" on="1"/>
        <pt x="68" y="0" on="1"/>
        <pt x="11" y="129" on="1"/>
        <pt x="74" y="238" on="1"/>
        <pt x="257" y="552" on="0"/>
        <pt x="513" y="1009" on="0"/>
        <pt x="639" y="1256" on="1"/>
      </contour>
    </TTGlyph>
    <TTGlyph name="four.numr" xMin="92" yMin="441" xMax="1141" yMax="1760">
      <contour>
        <pt x="1119" y="759" on="1"/>
        <pt x="890" y="759" on="1"/>
        <pt x="849" y="441" on="1"/>
        <pt x="609" y="441" on="1"/>
        <pt x="653" y="759" on="1"/>
        <pt x="141" y="759" on="1"/>
        <pt x="92" y="871" on="1"/>
        <pt x="670" y="1759" on="1"/>
        <pt x="728" y="1760" on="1"/>
        <pt x="901" y="1656" on="1"/>
        <pt x="433" y="1017" on="1"/>
        <pt x="360" y="928" on="1"/>
        <pt x="678" y="940" on="1"/>
        <pt x="713" y="1191" on="1"/>
        <pt x="948" y="1214" on="1"/>
        <pt x="914" y="949" on="1"/>
        <pt x="1141" y="958" on="1"/>
      </contour>
    </TTGlyph>
    <TTGlyph name="fraction" xMin="110" yMin="0" xMax="1000" yMax="1530">
      <contour>
        <pt x="1000" y="1530" on="1"/>
        <pt x="319" y="0" on="1"/>
        <pt x="110" y="0" on="1"/>
        <pt x="791" y="1530" on="1"/>
      </contour>
    </TTGlyph>
    <TTGlyph name="franc" xMin="-27" yMin="0" xMax="1172" yMax="1530">
      <contour>
        <pt x="205" y="402" on="1"/>
        <pt x="358" y="1530" on="1"/>
        <pt x="1172" y="1530" on="1"/>
        <pt x="1142" y="1307" on="1"/>
        <pt x="613" y="1313" on="1"/>
        <pt x="555" y="872" on="1"/>
        <pt x="1001" y="879" on="1"/>
        <pt x="976" y="642" on="1"/>
        <pt x="524" y="653" on="1"/>
        <pt x="490" y="402" on="1"/>
        <pt x="773" y="402" on="1"/>
        <pt x="753" y="228" on="1"/>
        <pt x="467" y="228" on="1"/>
        <pt x="436" y="0" on="1"/>
        <pt x="151" y="0" on="1"/>
        <pt x="182" y="228" on="1"/>
        <pt x="-27" y="228" on="1"/>
        <pt x="-8" y="402" on="1"/>
      </contour>
    </TTGlyph>
    <TTGlyph name="g" xMin="75" yMin="-511" xMax="1139" yMax="1156">
      <contour>
        <pt x="1139" y="1156" on="1"/>
        <pt x="972" y="-61" on="1"/>
        <pt x="948" y="-227" on="0"/>
        <pt x="770" y="-428" on="0"/>
        <pt x="526" y="-511" on="0"/>
        <pt x="392" y="-511" on="1"/>
        <pt x="324" y="-511" on="0"/>
        <pt x="154" y="-485" on="0"/>
        <pt x="122" y="-471" on="1"/>
        <pt x="173" y="-261" on="1"/>
        <pt x="212" y="-284" on="0"/>
        <pt x="371" y="-332" on="0"/>
        <pt x="445" y="-332" on="1"/>
        <pt x="556" y="-332" on="0"/>
        <pt x="667" y="-213" on="0"/>
        <pt x="690" y="-97" on="1"/>
        <pt x="745" y="219" on="1"/>
        <pt x="686" y="120" on="0"/>
        <pt x="508" y="-16" on="0"/>
        <pt x="398" y="-16" on="1"/>
        <pt x="232" y="-16" on="0"/>
        <pt x="75" y="218" on="0"/>
        <pt x="75" y="414" on="1"/>
        <pt x="75" y="594" on="0"/>
        <pt x="227" y="936" on="0"/>
        <pt x="533" y="1156" on="0"/>
        <pt x="750" y="1156" on="1"/>
        <pt x="804" y="1156" on="0"/>
        <pt x="934" y="1133" on="0"/>
        <pt x="987" y="1117" on="1"/>
      </contour>
      <contour>
        <pt x="836" y="967" on="1"/>
        <pt x="787" y="980" on="0"/>
        <pt x="722" y="980" on="1"/>
        <pt x="606" y="980" on="0"/>
        <pt x="443" y="815" on="0"/>
        <pt x="362" y="564" on="0"/>
        <pt x="362" y="437" on="1"/>
        <pt x="362" y="182" on="0"/>
        <pt x="478" y="182" on="1"/>
        <pt x="560" y="182" on="0"/>
        <pt x="716" y="369" on="0"/>
        <pt x="770" y="486" on="1"/>
      </contour>
    </TTGlyph>
    <TTGlyph name="gbreve" xMin="75" yMin="-511" xMax="1139" yMax="1668">
      <component glyphName="g" x="0" y="0" flags="0x0"/>
      <component glyphName="breve" x="415" y="2" flags="0x4"/>
    </TTGlyph>
    <TTGlyph name="gcircumflex" xMin="75" yMin="-511" xMax="1139" yMax="1660">
      <component glyphName="circumflex" x="345" y="0" flags="0x0"/>
      <component glyphName="g" x="0" y="0" flags="0x0"/>
    </TTGlyph>
    <TTGlyph name="gcommaaccent" xMin="75" yMin="-511" xMax="1139" yMax="1759">
      <contour>
        <pt x="689" y="1252" on="0"/>
        <pt x="622" y="1316" on="0"/>
        <pt x="585" y="1409" on="0"/>
        <pt x="585" y="1459" on="1"/>
        <pt x="585" y="1538" on="0"/>
        <pt x="647" y="1668" on="0"/>
        <pt x="742" y="1750" on="0"/>
        <pt x="790" y="1759" on="1"/>
        <pt x="881" y="1699" on="1"/>
        <pt x="878" y="1673" on="1"/>
        <pt x="809" y="1625" on="0"/>
        <pt x="809" y="1534" on="1"/>
        <pt x="809" y="1497" on="0"/>
        <pt x="850" y="1433" on="0"/>
        <pt x="879" y="1429" on="1"/>
        <pt x="871" y="1355" on="1"/>
        <pt x="731" y="1243" on="1"/>
      </contour>
      <contour>
        <pt x="1139" y="1156" on="1"/>
        <pt x="972" y="-61" on="1"/>
        <pt x="948" y="-227" on="0"/>
        <pt x="770" y="-428" on="0"/>
        <pt x="526" y="-511" on="0"/>
        <pt x="392" y="-511" on="1"/>
        <pt x="324" y="-511" on="0"/>
        <pt x="154" y="-485" on="0"/>
        <pt x="122" y="-471" on="1"/>
        <pt x="173" y="-261" on="1"/>
        <pt x="212" y="-284" on="0"/>
        <pt x="371" y="-332" on="0"/>
        <pt x="445" y="-332" on="1"/>
        <pt x="556" y="-332" on="0"/>
        <pt x="667" y="-213" on="0"/>
        <pt x="690" y="-97" on="1"/>
        <pt x="745" y="219" on="1"/>
        <pt x="686" y="120" on="0"/>
        <pt x="508" y="-16" on="0"/>
        <pt x="398" y="-16" on="1"/>
        <pt x="232" y="-16" on="0"/>
        <pt x="75" y="218" on="0"/>
        <pt x="75" y="414" on="1"/>
        <pt x="75" y="594" on="0"/>
        <pt x="227" y="936" on="0"/>
        <pt x="533" y="1156" on="0"/>
        <pt x="750" y="1156" on="1"/>
        <pt x="804" y="1156" on="0"/>
        <pt x="934" y="1133" on="0"/>
        <pt x="987" y="1117" on="1"/>
      </contour>
      <contour>
        <pt x="836" y="967" on="1"/>
        <pt x="787" y="980" on="0"/>
        <pt x="722" y="980" on="1"/>
        <pt x="606" y="980" on="0"/>
        <pt x="443" y="815" on="0"/>
        <pt x="362" y="564" on="0"/>
        <pt x="362" y="437" on="1"/>
        <pt x="362" y="182" on="0"/>
        <pt x="478" y="182" on="1"/>
        <pt x="560" y="182" on="0"/>
        <pt x="716" y="369" on="0"/>
        <pt x="770" y="486" on="1"/>
      </contour>
    </TTGlyph>
    <TTGlyph name="gdotaccent" xMin="75" yMin="-511" xMax="1139" yMax="1668">
      <component glyphName="g" x="0" y="0" flags="0x0"/>
      <component glyphName="dotaccent" x="596" y="2" flags="0x4"/>
    </TTGlyph>
    <TTGlyph name="germandbls" xMin="71" yMin="-16" xMax="1190" yMax="1587">
      <contour>
        <pt x="230" y="1208" on="0"/>
        <pt x="431" y="1498" on="0"/>
        <pt x="676" y="1587" on="0"/>
        <pt x="826" y="1587" on="1"/>
        <pt x="933" y="1587" on="0"/>
        <pt x="1098" y="1519" on="0"/>
        <pt x="1190" y="1385" on="0"/>
        <pt x="1190" y="1290" on="1"/>
        <pt x="1190" y="1212" on="0"/>
        <pt x="1146" y="1095" on="0"/>
        <pt x="1085" y="1020" on="0"/>
        <pt x="1037" y="972" on="1"/>
        <pt x="990" y="927" on="0"/>
        <pt x="946" y="864" on="0"/>
        <pt x="946" y="824" on="1"/>
        <pt x="946" y="792" on="0"/>
        <pt x="993" y="712" on="0"/>
        <pt x="1047" y="639" on="1"/>
        <pt x="1105" y="560" on="0"/>
        <pt x="1172" y="412" on="0"/>
        <pt x="1172" y="322" on="1"/>
        <pt x="1172" y="218" on="0"/>
        <pt x="1071" y="66" on="0"/>
        <pt x="880" y="-16" on="0"/>
        <pt x="748" y="-16" on="1"/>
        <pt x="665" y="-16" on="0"/>
        <pt x="523" y="12" on="0"/>
        <pt x="487" y="31" on="1"/>
        <pt x="512" y="257" on="1"/>
        <pt x="538" y="229" on="0"/>
        <pt x="652" y="181" on="0"/>
        <pt x="705" y="181" on="1"/>
        <pt x="803" y="181" on="0"/>
        <pt x="894" y="245" on="0"/>
        <pt x="894" y="324" on="1"/>
        <pt x="894" y="373" on="0"/>
        <pt x="844" y="464" on="0"/>
        <pt x="798" y="527" on="1"/>
        <pt x="674" y="688" on="0"/>
        <pt x="674" y="789" on="1"/>
        <pt x="674" y="853" on="0"/>
        <pt x="733" y="950" on="0"/>
        <pt x="791" y="1011" on="1"/>
        <pt x="857" y="1075" on="0"/>
        <pt x="925" y="1195" on="0"/>
        <pt x="925" y="1269" on="1"/>
        <pt x="925" y="1328" on="0"/>
        <pt x="844" y="1406" on="0"/>
        <pt x="772" y="1406" on="1"/>
        <pt x="654" y="1406" on="0"/>
        <pt x="492" y="1164" on="0"/>
        <pt x="455" y="869" on="1"/>
        <pt x="342" y="2" on="1"/>
        <pt x="71" y="2" on="1"/>
        <pt x="192" y="929" on="1"/>
      </contour>
    </TTGlyph>
    <TTGlyph name="grave" xMin="19" yMin="1234" xMax="511" yMax="1744">
      <contour>
        <pt x="200" y="1744" on="1"/>
        <pt x="511" y="1318" on="1"/>
        <pt x="407" y="1234" on="1"/>
        <pt x="358" y="1253" on="0"/>
        <pt x="192" y="1383" on="0"/>
        <pt x="43" y="1531" on="0"/>
        <pt x="19" y="1575" on="1"/>
      </contour>
    </TTGlyph>
    <TTGlyph name="grave.cap" xMin="30" yMin="1572" xMax="474" yMax="2007">
      <contour>
        <pt x="197" y="2007" on="1"/>
        <pt x="474" y="1665" on="1"/>
        <pt x="366" y="1572" on="1"/>
        <pt x="317" y="1590" on="0"/>
        <pt x="179" y="1684" on="0"/>
        <pt x="57" y="1800" on="0"/>
        <pt x="30" y="1850" on="1"/>
      </contour>
    </TTGlyph>
    <TTGlyph name="greater" xMin="252" yMin="181" xMax="1287" yMax="1340">
      <contour>
        <pt x="252" y="181" on="1"/>
        <pt x="282" y="433" on="1"/>
        <pt x="981" y="771" on="1"/>
        <pt x="365" y="1110" on="1"/>
        <pt x="388" y="1340" on="1"/>
        <pt x="1287" y="825" on="1"/>
        <pt x="1271" y="696" on="1"/>
      </contour>
    </TTGlyph>
    <TTGlyph name="greaterequal" xMin="152" yMin="-1" xMax="1218" yMax="1230">
      <contour>
        <pt x="1218" y="768" on="1"/>
        <pt x="318" y="1230" on="1"/>
        <pt x="290" y="1000" on="1"/>
        <pt x="827" y="743" on="1"/>
        <pt x="223" y="496" on="1"/>
        <pt x="193" y="249" on="1"/>
        <pt x="1205" y="679" on="1"/>
      </contour>
      <contour>
        <pt x="1117" y="178" on="1"/>
        <pt x="171" y="178" on="1"/>
        <pt x="152" y="-1" on="1"/>
        <pt x="1099" y="-1" on="1"/>
      </contour>
    </TTGlyph>
    <TTGlyph name="guillemotleft" xMin="209" yMin="142" xMax="1742" yMax="1101">
      <component glyphName="guilsinglleft" x="5" y="0" flags="0x0"/>
      <component glyphName="guilsinglleft" x="746" y="0" flags="0x0"/>
    </TTGlyph>
    <TTGlyph name="guillemotright" xMin="215" yMin="137" xMax="1748" yMax="1096">
      <contour>
        <pt x="263" y="137" on="1"/>
        <pt x="215" y="297" on="1"/>
        <pt x="685" y="628" on="1"/>
        <pt x="296" y="954" on="1"/>
        <pt x="386" y="1096" on="1"/>
        <pt x="1007" y="708" on="1"/>
        <pt x="980" y="533" on="1"/>
      </contour>
      <contour>
        <pt x="1004" y="137" on="1"/>
        <pt x="956" y="297" on="1"/>
        <pt x="1426" y="628" on="1"/>
        <pt x="1037" y="954" on="1"/>
        <pt x="1127" y="1096" on="1"/>
        <pt x="1748" y="708" on="1"/>
        <pt x="1721" y="533" on="1"/>
      </contour>
    </TTGlyph>
    <TTGlyph name="guilsinglleft" xMin="204" yMin="142" xMax="996" yMax="1101">
      <contour>
        <pt x="948" y="1101" on="1"/>
        <pt x="996" y="941" on="1"/>
        <pt x="526" y="610" on="1"/>
        <pt x="915" y="284" on="1"/>
        <pt x="825" y="142" on="1"/>
        <pt x="204" y="530" on="1"/>
        <pt x="231" y="705" on="1"/>
      </contour>
    </TTGlyph>
    <TTGlyph name="guilsinglright" xMin="194" yMin="137" xMax="986" yMax="1096">
      <contour>
        <pt x="242" y="137" on="1"/>
        <pt x="194" y="297" on="1"/>
        <pt x="664" y="628" on="1"/>
        <pt x="275" y="954" on="1"/>
        <pt x="365" y="1096" on="1"/>
        <pt x="986" y="708" on="1"/>
        <pt x="959" y="533" on="1"/>
      </contour>
    </TTGlyph>
    <TTGlyph name="h" xMin="83" yMin="0" xMax="1133" yMax="1636">
      <contour>
        <pt x="1007" y="1156" on="0"/>
        <pt x="1133" y="1017" on="0"/>
        <pt x="1133" y="860" on="1"/>
        <pt x="1133" y="823" on="0"/>
        <pt x="1113" y="662" on="0"/>
        <pt x="1093" y="513" on="1"/>
        <pt x="1045" y="186" on="1"/>
        <pt x="1018" y="0" on="1"/>
        <pt x="742" y="0" on="1"/>
        <pt x="754" y="94" on="0"/>
        <pt x="774" y="224" on="1"/>
        <pt x="797" y="386" on="0"/>
        <pt x="814" y="512" on="1"/>
        <pt x="831" y="638" on="0"/>
        <pt x="848" y="784" on="0"/>
        <pt x="848" y="828" on="1"/>
        <pt x="848" y="887" on="0"/>
        <pt x="802" y="931" on="0"/>
        <pt x="755" y="931" on="1"/>
        <pt x="710" y="931" on="0"/>
        <pt x="599" y="873" on="0"/>
        <pt x="492" y="774" on="0"/>
        <pt x="452" y="714" on="1"/>
        <pt x="354" y="0" on="1"/>
        <pt x="83" y="0" on="1"/>
        <pt x="297" y="1636" on="1"/>
        <pt x="569" y="1636" on="1"/>
        <pt x="505" y="1116" on="1"/>
        <pt x="471" y="918" on="1"/>
        <pt x="550" y="1025" on="0"/>
        <pt x="767" y="1156" on="0"/>
        <pt x="883" y="1156" on="1"/>
      </contour>
    </TTGlyph>
    <TTGlyph name="hbar" xMin="83" yMin="0" xMax="1133" yMax="1636">
      <contour>
        <pt x="1007" y="1156" on="0"/>
        <pt x="1133" y="1017" on="0"/>
        <pt x="1133" y="860" on="1"/>
        <pt x="1133" y="823" on="0"/>
        <pt x="1113" y="662" on="0"/>
        <pt x="1093" y="513" on="1"/>
        <pt x="1045" y="186" on="1"/>
        <pt x="1018" y="0" on="1"/>
        <pt x="742" y="0" on="1"/>
        <pt x="754" y="94" on="0"/>
        <pt x="774" y="224" on="1"/>
        <pt x="797" y="386" on="0"/>
        <pt x="814" y="512" on="1"/>
        <pt x="831" y="638" on="0"/>
        <pt x="848" y="784" on="0"/>
        <pt x="848" y="828" on="1"/>
        <pt x="848" y="887" on="0"/>
        <pt x="802" y="931" on="0"/>
        <pt x="755" y="931" on="1"/>
        <pt x="710" y="931" on="0"/>
        <pt x="599" y="873" on="0"/>
        <pt x="492" y="774" on="0"/>
        <pt x="452" y="714" on="1"/>
        <pt x="354" y="0" on="1"/>
        <pt x="83" y="0" on="1"/>
        <pt x="248" y="1262" on="1"/>
        <pt x="129" y="1262" on="1"/>
        <pt x="145" y="1392" on="1"/>
        <pt x="265" y="1392" on="1"/>
        <pt x="297" y="1636" on="1"/>
        <pt x="569" y="1636" on="1"/>
        <pt x="539" y="1392" on="1"/>
        <pt x="777" y="1392" on="1"/>
        <pt x="761" y="1262" on="1"/>
        <pt x="523" y="1262" on="1"/>
        <pt x="505" y="1116" on="1"/>
        <pt x="471" y="918" on="1"/>
        <pt x="550" y="1025" on="0"/>
        <pt x="767" y="1156" on="0"/>
        <pt x="883" y="1156" on="1"/>
      </contour>
    </TTGlyph>
    <TTGlyph name="hcircumflex" xMin="83" yMin="0" xMax="1198" yMax="1805">
      <contour>
        <pt x="1007" y="1156" on="0"/>
        <pt x="1133" y="1017" on="0"/>
        <pt x="1133" y="860" on="1"/>
        <pt x="1133" y="823" on="0"/>
        <pt x="1113" y="662" on="0"/>
        <pt x="1093" y="513" on="1"/>
        <pt x="1045" y="186" on="1"/>
        <pt x="1018" y="0" on="1"/>
        <pt x="742" y="0" on="1"/>
        <pt x="754" y="94" on="0"/>
        <pt x="774" y="224" on="1"/>
        <pt x="797" y="386" on="0"/>
        <pt x="814" y="512" on="1"/>
        <pt x="831" y="638" on="0"/>
        <pt x="848" y="784" on="0"/>
        <pt x="848" y="828" on="1"/>
        <pt x="848" y="887" on="0"/>
        <pt x="802" y="931" on="0"/>
        <pt x="755" y="931" on="1"/>
        <pt x="710" y="931" on="0"/>
        <pt x="599" y="873" on="0"/>
        <pt x="492" y="774" on="0"/>
        <pt x="452" y="714" on="1"/>
        <pt x="354" y="0" on="1"/>
        <pt x="83" y="0" on="1"/>
        <pt x="297" y="1636" on="1"/>
        <pt x="569" y="1636" on="1"/>
        <pt x="558" y="1547" on="1"/>
        <pt x="818" y="1805" on="1"/>
        <pt x="997" y="1805" on="1"/>
        <pt x="1198" y="1465" on="1"/>
        <pt x="1079" y="1392" on="1"/>
        <pt x="882" y="1592" on="1"/>
        <pt x="582" y="1387" on="1"/>
        <pt x="542" y="1413" on="1"/>
        <pt x="505" y="1116" on="1"/>
        <pt x="471" y="918" on="1"/>
        <pt x="550" y="1025" on="0"/>
        <pt x="767" y="1156" on="0"/>
        <pt x="883" y="1156" on="1"/>
      </contour>
    </TTGlyph>
    <TTGlyph name="hungarumlaut" xMin="95" yMin="1233" xMax="990" yMax="1733">
      <contour>
        <pt x="346" y="1733" on="1"/>
        <pt x="523" y="1606" on="1"/>
        <pt x="503" y="1551" on="0"/>
        <pt x="391" y="1394" on="0"/>
        <pt x="260" y="1258" on="0"/>
        <pt x="212" y="1233" on="1"/>
        <pt x="95" y="1301" on="1"/>
      </contour>
      <contour>
        <pt x="810" y="1733" on="1"/>
        <pt x="990" y="1602" on="1"/>
        <pt x="972" y="1551" on="0"/>
        <pt x="850" y="1391" on="0"/>
        <pt x="709" y="1253" on="0"/>
        <pt x="664" y="1233" on="1"/>
        <pt x="552" y="1301" on="1"/>
      </contour>
    </TTGlyph>
    <TTGlyph name="hungarumlaut.cap" xMin="5" yMin="1560" xMax="915" yMax="2007">
      <contour>
        <pt x="303" y="2007" on="1"/>
        <pt x="461" y="1877" on="1"/>
        <pt x="436" y="1822" on="0"/>
        <pt x="309" y="1687" on="0"/>
        <pt x="163" y="1579" on="0"/>
        <pt x="113" y="1560" on="1"/>
        <pt x="5" y="1635" on="1"/>
      </contour>
      <contour>
        <pt x="758" y="2007" on="1"/>
        <pt x="915" y="1876" on="1"/>
        <pt x="884" y="1819" on="0"/>
        <pt x="756" y="1685" on="0"/>
        <pt x="611" y="1579" on="0"/>
        <pt x="555" y="1560" on="1"/>
        <pt x="459" y="1635" on="1"/>
      </contour>
    </TTGlyph>
    <TTGlyph name="hyphen" xMin="221" yMin="671" xMax="1017" yMax="874">
      <contour>
        <pt x="1017" y="874" on="1"/>
        <pt x="989" y="671" on="1"/>
        <pt x="221" y="671" on="1"/>
        <pt x="248" y="874" on="1"/>
      </contour>
    </TTGlyph>
    <TTGlyph name="i" xMin="102" yMin="0" xMax="626" yMax="1668">
      <component glyphName="dotlessi" x="0" y="0" flags="0x0"/>
      <component glyphName="dotaccent" x="268" y="2" flags="0x4"/>
    </TTGlyph>
    <TTGlyph name="i.cy" xMin="102" yMin="0" xMax="626" yMax="1668">
      <component glyphName="dotlessi" x="0" y="0" flags="0x0"/>
      <component glyphName="dotaccent" x="268" y="2" flags="0x4"/>
    </TTGlyph>
    <TTGlyph name="i.dot" xMin="102" yMin="0" xMax="626" yMax="1668">
      <component glyphName="dotlessi" x="0" y="0" flags="0x0"/>
      <component glyphName="dotaccent" x="268" y="2" flags="0x4"/>
    </TTGlyph>
    <TTGlyph name="iacute" xMin="102" yMin="0" xMax="809" yMax="1744">
      <component glyphName="acute" x="274" y="0" flags="0x0"/>
      <component glyphName="dotlessi" x="0" y="0" flags="0x0"/>
    </TTGlyph>
    <TTGlyph name="ibreve" xMin="102" yMin="0" xMax="793" yMax="1668">
      <component glyphName="dotlessi" x="0" y="0" flags="0x0"/>
      <component glyphName="breve" x="87" y="2" flags="0x4"/>
    </TTGlyph>
    <TTGlyph name="icircumflex" xMin="60" yMin="0" xMax="789" yMax="1660">
      <component glyphName="circumflex" x="18" y="0" flags="0x0"/>
      <component glyphName="dotlessi" x="0" y="0" flags="0x0"/>
    </TTGlyph>
    <TTGlyph name="idieresis" xMin="79" yMin="0" xMax="829" yMax="1676">
      <component glyphName="dieresis" x="52" y="0" flags="0x0"/>
      <component glyphName="dotlessi" x="0" y="0" flags="0x0"/>
    </TTGlyph>
    <TTGlyph name="igrave" xMin="14" yMin="0" xMax="535" yMax="1746">
      <component glyphName="dotlessi" x="0" y="0" flags="0x0"/>
      <component glyphName="grave" x="-5" y="2" flags="0x4"/>
    </TTGlyph>
    <TTGlyph name="ij" xMin="-252" yMin="-521" xMax="1248" yMax="1668">
      <contour>
        <pt x="1142" y="1668" on="0"/>
        <pt x="1211" y="1631" on="0"/>
        <pt x="1248" y="1569" on="0"/>
        <pt x="1248" y="1532" on="1"/>
        <pt x="1248" y="1483" on="0"/>
        <pt x="1202" y="1401" on="0"/>
        <pt x="1117" y="1353" on="0"/>
        <pt x="1063" y="1353" on="1"/>
        <pt x="1025" y="1353" on="0"/>
        <pt x="960" y="1390" on="0"/>
        <pt x="921" y="1453" on="0"/>
        <pt x="921" y="1491" on="1"/>
        <pt x="921" y="1538" on="0"/>
        <pt x="968" y="1619" on="0"/>
        <pt x="1049" y="1668" on="0"/>
        <pt x="1098" y="1668" on="1"/>
      </contour>
      <contour>
        <pt x="257" y="1140" on="1"/>
        <pt x="534" y="1140" on="1"/>
        <pt x="378" y="2" on="1"/>
        <pt x="356" y="-161" on="0"/>
        <pt x="221" y="-397" on="0"/>
        <pt x="22" y="-521" on="0"/>
        <pt x="-95" y="-521" on="1"/>
        <pt x="-146" y="-521" on="0"/>
        <pt x="-230" y="-501" on="0"/>
        <pt x="-252" y="-485" on="1"/>
        <pt x="-182" y="-339" on="1"/>
        <pt x="-174" y="-345" on="0"/>
        <pt x="-146" y="-350" on="0"/>
        <pt x="-136" y="-350" on="1"/>
        <pt x="-52" y="-350" on="0"/>
        <pt x="45" y="-241" on="0"/>
        <pt x="91" y="-70" on="0"/>
        <pt x="110" y="67" on="1"/>
      </contour>
      <contour>
        <pt x="880" y="1140" on="1"/>
        <pt x="1157" y="1140" on="1"/>
        <pt x="1000" y="0" on="1"/>
        <pt x="724" y="0" on="1"/>
      </contour>
    </TTGlyph>
    <TTGlyph name="ij_acutecomb" xMin="102" yMin="-521" xMax="1420" yMax="1746">
      <contour>
        <pt x="629" y="1746" on="1"/>
        <pt x="809" y="1577" on="1"/>
        <pt x="791" y="1542" on="0"/>
        <pt x="641" y="1393" on="0"/>
        <pt x="468" y="1258" on="0"/>
        <pt x="412" y="1236" on="1"/>
        <pt x="308" y="1321" on="1"/>
      </contour>
      <contour>
        <pt x="1240" y="1744" on="1"/>
        <pt x="1420" y="1575" on="1"/>
        <pt x="1402" y="1540" on="0"/>
        <pt x="1252" y="1391" on="0"/>
        <pt x="1079" y="1256" on="0"/>
        <pt x="1023" y="1234" on="1"/>
        <pt x="919" y="1319" on="1"/>
      </contour>
      <contour>
        <pt x="535" y="1140" on="1"/>
        <pt x="378" y="0" on="1"/>
        <pt x="102" y="0" on="1"/>
        <pt x="258" y="1140" on="1"/>
      </contour>
      <contour>
        <pt x="1158" y="1140" on="1"/>
        <pt x="1002" y="2" on="1"/>
        <pt x="980" y="-161" on="0"/>
        <pt x="845" y="-397" on="0"/>
        <pt x="646" y="-521" on="0"/>
        <pt x="529" y="-521" on="1"/>
        <pt x="478" y="-521" on="0"/>
        <pt x="394" y="-501" on="0"/>
        <pt x="372" y="-485" on="1"/>
        <pt x="442" y="-339" on="1"/>
        <pt x="450" y="-345" on="0"/>
        <pt x="478" y="-350" on="0"/>
        <pt x="488" y="-350" on="1"/>
        <pt x="572" y="-350" on="0"/>
        <pt x="669" y="-241" on="0"/>
        <pt x="715" y="-70" on="0"/>
        <pt x="734" y="67" on="1"/>
        <pt x="881" y="1140" on="1"/>
      </contour>
    </TTGlyph>
    <TTGlyph name="imacron" xMin="102" yMin="0" xMax="705" yMax="1596">
      <component glyphName="dotlessi" x="0" y="0" flags="0x0"/>
      <component glyphName="macron" x="117" y="2" flags="0x4"/>
    </TTGlyph>
    <TTGlyph name="infinity" xMin="81" yMin="185" xMax="1886" yMax="1046">
      <contour>
        <pt x="81" y="744" on="0"/>
        <pt x="198" y="940" on="0"/>
        <pt x="408" y="1046" on="0"/>
        <pt x="544" y="1046" on="1"/>
        <pt x="700" y="1046" on="0"/>
        <pt x="915" y="917" on="0"/>
        <pt x="999" y="804" on="1"/>
        <pt x="1084" y="911" on="0"/>
        <pt x="1302" y="1044" on="0"/>
        <pt x="1430" y="1044" on="1"/>
        <pt x="1581" y="1044" on="0"/>
        <pt x="1787" y="927" on="0"/>
        <pt x="1886" y="735" on="0"/>
        <pt x="1886" y="622" on="1"/>
        <pt x="1886" y="493" on="0"/>
        <pt x="1773" y="295" on="0"/>
        <pt x="1560" y="185" on="0"/>
        <pt x="1415" y="185" on="1"/>
        <pt x="1259" y="185" on="0"/>
        <pt x="1053" y="310" on="0"/>
        <pt x="970" y="420" on="1"/>
        <pt x="888" y="316" on="0"/>
        <pt x="673" y="188" on="0"/>
        <pt x="543" y="188" on="1"/>
        <pt x="397" y="188" on="0"/>
        <pt x="188" y="304" on="0"/>
        <pt x="81" y="498" on="0"/>
        <pt x="81" y="613" on="1"/>
      </contour>
      <contour>
        <pt x="1493" y="389" on="0"/>
        <pt x="1583" y="449" on="0"/>
        <pt x="1631" y="554" on="0"/>
        <pt x="1631" y="619" on="1"/>
        <pt x="1631" y="680" on="0"/>
        <pt x="1576" y="779" on="0"/>
        <pt x="1467" y="837" on="0"/>
        <pt x="1390" y="837" on="1"/>
        <pt x="1316" y="837" on="0"/>
        <pt x="1181" y="741" on="0"/>
        <pt x="1112" y="647" on="1"/>
        <pt x="1182" y="533" on="0"/>
        <pt x="1338" y="389" on="0"/>
        <pt x="1432" y="389" on="1"/>
      </contour>
      <contour>
        <pt x="789" y="693" on="0"/>
        <pt x="641" y="835" on="0"/>
        <pt x="553" y="835" on="1"/>
        <pt x="484" y="835" on="0"/>
        <pt x="385" y="777" on="0"/>
        <pt x="334" y="676" on="0"/>
        <pt x="334" y="614" on="1"/>
        <pt x="334" y="552" on="0"/>
        <pt x="387" y="449" on="0"/>
        <pt x="496" y="388" on="0"/>
        <pt x="574" y="388" on="1"/>
        <pt x="648" y="388" on="0"/>
        <pt x="788" y="485" on="0"/>
        <pt x="858" y="579" on="1"/>
      </contour>
    </TTGlyph>
    <TTGlyph name="integral" xMin="109" yMin="-518" xMax="996" yMax="1685">
      <contour>
        <pt x="530" y="-314" on="0"/>
        <pt x="629" y="-180" on="0"/>
        <pt x="628" y="-28" on="1"/>
        <pt x="628" y="63" on="0"/>
        <pt x="573" y="253" on="0"/>
        <pt x="494" y="426" on="0"/>
        <pt x="426" y="559" on="1"/>
        <pt x="356" y="696" on="0"/>
        <pt x="272" y="883" on="0"/>
        <pt x="214" y="1091" on="0"/>
        <pt x="213" y="1192" on="1"/>
        <pt x="211" y="1335" on="0"/>
        <pt x="314" y="1557" on="0"/>
        <pt x="526" y="1685" on="0"/>
        <pt x="684" y="1685" on="1"/>
        <pt x="787" y="1685" on="0"/>
        <pt x="956" y="1616" on="0"/>
        <pt x="996" y="1553" on="1"/>
        <pt x="874" y="1405" on="1"/>
        <pt x="856" y="1435" on="0"/>
        <pt x="754" y="1485" on="0"/>
        <pt x="691" y="1485" on="1"/>
        <pt x="580" y="1485" on="0"/>
        <pt x="472" y="1335" on="0"/>
        <pt x="474" y="1199" on="1"/>
        <pt x="474" y="1109" on="0"/>
        <pt x="529" y="922" on="0"/>
        <pt x="606" y="751" on="0"/>
        <pt x="674" y="619" on="1"/>
        <pt x="743" y="485" on="0"/>
        <pt x="829" y="296" on="0"/>
        <pt x="888" y="86" on="0"/>
        <pt x="889" y="-16" on="1"/>
        <pt x="890" y="-157" on="0"/>
        <pt x="799" y="-383" on="0"/>
        <pt x="597" y="-518" on="0"/>
        <pt x="439" y="-518" on="1"/>
        <pt x="373" y="-518" on="0"/>
        <pt x="239" y="-484" on="0"/>
        <pt x="134" y="-425" on="0"/>
        <pt x="109" y="-391" on="1"/>
        <pt x="202" y="-218" on="1"/>
        <pt x="217" y="-237" on="0"/>
        <pt x="282" y="-282" on="0"/>
        <pt x="369" y="-314" on="0"/>
        <pt x="416" y="-314" on="1"/>
      </contour>
    </TTGlyph>
    <TTGlyph name="iogonek" xMin="-94" yMin="-473" xMax="653" yMax="1666">
      <contour>
        <pt x="547" y="1666" on="0"/>
        <pt x="616" y="1629" on="0"/>
        <pt x="653" y="1567" on="0"/>
        <pt x="653" y="1530" on="1"/>
        <pt x="653" y="1481" on="0"/>
        <pt x="607" y="1399" on="0"/>
        <pt x="522" y="1351" on="0"/>
        <pt x="468" y="1351" on="1"/>
        <pt x="430" y="1351" on="0"/>
        <pt x="365" y="1388" on="0"/>
        <pt x="326" y="1451" on="0"/>
        <pt x="326" y="1489" on="1"/>
        <pt x="326" y="1536" on="0"/>
        <pt x="373" y="1617" on="0"/>
        <pt x="454" y="1666" on="0"/>
        <pt x="503" y="1666" on="1"/>
      </contour>
      <contour>
        <pt x="279" y="-47" on="0"/>
        <pt x="144" y="-165" on="0"/>
        <pt x="144" y="-213" on="1"/>
        <pt x="144" y="-251" on="0"/>
        <pt x="181" y="-282" on="0"/>
        <pt x="209" y="-282" on="1"/>
        <pt x="244" y="-282" on="0"/>
        <pt x="309" y="-257" on="0"/>
        <pt x="350" y="-227" on="1"/>
        <pt x="396" y="-364" on="1"/>
        <pt x="346" y="-413" on="0"/>
        <pt x="201" y="-473" on="0"/>
        <pt x="109" y="-473" on="1"/>
        <pt x="46" y="-473" on="0"/>
        <pt x="-46" y="-423" on="0"/>
        <pt x="-94" y="-343" on="0"/>
        <pt x="-94" y="-299" on="1"/>
        <pt x="-94" y="-234" on="0"/>
        <pt x="-6" y="-115" on="0"/>
        <pt x="113" y="-27" on="0"/>
        <pt x="168" y="0" on="1"/>
        <pt x="113" y="0" on="1"/>
        <pt x="269" y="1140" on="1"/>
        <pt x="546" y="1140" on="1"/>
        <pt x="389" y="0" on="1"/>
        <pt x="370" y="0" on="1"/>
      </contour>
    </TTGlyph>
    <TTGlyph name="itilde" xMin="21" yMin="0" xMax="865" yMax="1676">
      <component glyphName="dotlessi" x="0" y="0" flags="0x0"/>
      <component glyphName="tilde" x="39" y="2" flags="0x4"/>
    </TTGlyph>
    <TTGlyph name="j" xMin="-252" yMin="-521" xMax="612" yMax="1668">
      <component glyphName="uni0237" x="0" y="0" flags="0x0"/>
      <component glyphName="dotaccent" x="254" y="2" flags="0x4"/>
    </TTGlyph>
    <TTGlyph name="jcircumflex" xMin="-252" yMin="-521" xMax="775" yMax="1662">
      <component glyphName="uni0237" x="0" y="0" flags="0x0"/>
      <component glyphName="circumflex" x="4" y="2" flags="0x4"/>
    </TTGlyph>
    <TTGlyph name="k" xMin="83" yMin="0" xMax="1135" yMax="1636">
      <contour>
        <pt x="569" y="1636" on="1"/>
        <pt x="355" y="0" on="1"/>
        <pt x="83" y="0" on="1"/>
        <pt x="297" y="1636" on="1"/>
      </contour>
      <contour>
        <pt x="994" y="811" on="0"/>
        <pt x="825" y="652" on="0"/>
        <pt x="748" y="612" on="1"/>
        <pt x="1092" y="2" on="1"/>
        <pt x="774" y="2" on="1"/>
        <pt x="473" y="632" on="1"/>
        <pt x="475" y="633" on="1"/>
        <pt x="473" y="633" on="1"/>
        <pt x="555" y="679" on="0"/>
        <pt x="684" y="814" on="0"/>
        <pt x="745" y="911" on="1"/>
        <pt x="786" y="967" on="0"/>
        <pt x="844" y="1076" on="0"/>
        <pt x="865" y="1140" on="1"/>
        <pt x="1135" y="1140" on="1"/>
        <pt x="1130" y="1079" on="0"/>
        <pt x="1088" y="970" on="0"/>
        <pt x="1051" y="912" on="1"/>
      </contour>
    </TTGlyph>
    <TTGlyph name="kcommaaccent" xMin="83" yMin="-560" xMax="1135" yMax="1636">
      <component glyphName="uni0326" x="765" y="0" flags="0x0"/>
      <component glyphName="k" x="0" y="0" flags="0x0"/>
    </TTGlyph>
    <TTGlyph name="kgreenlandic" xMin="80" yMin="0" xMax="1137" yMax="1148">
      <contour>
        <pt x="511" y="1148" on="1"/>
        <pt x="356" y="0" on="1"/>
        <pt x="80" y="0" on="1"/>
        <pt x="236" y="1148" on="1"/>
      </contour>
      <contour>
        <pt x="1065" y="909" on="0"/>
        <pt x="945" y="755" on="0"/>
        <pt x="809" y="641" on="0"/>
        <pt x="748" y="609" on="1"/>
        <pt x="1090" y="0" on="1"/>
        <pt x="784" y="0" on="1"/>
        <pt x="473" y="630" on="1"/>
        <pt x="475" y="631" on="1"/>
        <pt x="473" y="631" on="1"/>
        <pt x="578" y="689" on="0"/>
        <pt x="742" y="869" on="0"/>
        <pt x="807" y="995" on="1"/>
        <pt x="844" y="1071" on="0"/>
        <pt x="867" y="1148" on="1"/>
        <pt x="1137" y="1148" on="1"/>
        <pt x="1131" y="1071" on="0"/>
        <pt x="1100" y="996" on="1"/>
      </contour>
    </TTGlyph>
    <TTGlyph name="l" xMin="104" yMin="2" xMax="603" yMax="1636">
      <contour>
        <pt x="603" y="1636" on="1"/>
        <pt x="380" y="2" on="1"/>
        <pt x="104" y="2" on="1"/>
        <pt x="326" y="1636" on="1"/>
      </contour>
    </TTGlyph>
    <TTGlyph name="lacute" xMin="104" yMin="0" xMax="803" yMax="2007">
      <contour>
        <pt x="636" y="2007" on="1"/>
        <pt x="803" y="1850" on="1"/>
        <pt x="776" y="1800" on="0"/>
        <pt x="654" y="1684" on="0"/>
        <pt x="516" y="1590" on="0"/>
        <pt x="467" y="1572" on="1"/>
        <pt x="359" y="1665" on="1"/>
      </contour>
      <contour>
        <pt x="589" y="1526" on="1"/>
        <pt x="380" y="0" on="1"/>
        <pt x="104" y="0" on="1"/>
        <pt x="312" y="1526" on="1"/>
      </contour>
    </TTGlyph>
    <TTGlyph name="lcaron" xMin="104" yMin="2" xMax="983" yMax="1651">
      <component glyphName="l" x="0" y="0" flags="0x0"/>
      <component glyphName="caronvertical" x="523" y="-30" flags="0x4"/>
    </TTGlyph>
    <TTGlyph name="lcommaaccent" xMin="70" yMin="-560" xMax="603" yMax="1636">
      <component glyphName="uni0326" x="420" y="0" flags="0x0"/>
      <component glyphName="l" x="0" y="0" flags="0x0"/>
    </TTGlyph>
    <TTGlyph name="ldot" xMin="104" yMin="2" xMax="942" yMax="1636">
      <component glyphName="l" x="0" y="0" flags="0x0"/>
      <component glyphName="period" x="560" y="649" flags="0x4"/>
    </TTGlyph>
    <TTGlyph name="less" xMin="197" yMin="178" xMax="1232" yMax="1337">
      <contour>
        <pt x="1232" y="1337" on="1"/>
        <pt x="1202" y="1085" on="1"/>
        <pt x="503" y="747" on="1"/>
        <pt x="1119" y="408" on="1"/>
        <pt x="1096" y="178" on="1"/>
        <pt x="197" y="693" on="1"/>
        <pt x="213" y="822" on="1"/>
      </contour>
    </TTGlyph>
    <TTGlyph name="lessequal" xMin="146" yMin="-1" xMax="1217" yMax="1216">
      <contour>
        <pt x="1217" y="1216" on="1"/>
        <pt x="1187" y="980" on="1"/>
        <pt x="581" y="729" on="1"/>
        <pt x="1130" y="475" on="1"/>
        <pt x="1104" y="249" on="1"/>
        <pt x="202" y="696" on="1"/>
        <pt x="209" y="775" on="1"/>
      </contour>
      <contour>
        <pt x="1110" y="178" on="1"/>
        <pt x="1093" y="-1" on="1"/>
        <pt x="146" y="-1" on="1"/>
        <pt x="164" y="178" on="1"/>
      </contour>
    </TTGlyph>
    <TTGlyph name="lira" xMin="-3" yMin="-20" xMax="1423" yMax="1545">
      <contour>
        <pt x="290" y="286" on="0"/>
        <pt x="333" y="412" on="0"/>
        <pt x="345" y="486" on="1"/>
        <pt x="360" y="582" on="1"/>
        <pt x="167" y="582" on="1"/>
        <pt x="184" y="731" on="1"/>
        <pt x="382" y="731" on="1"/>
        <pt x="404" y="878" on="1"/>
        <pt x="227" y="878" on="1"/>
        <pt x="242" y="1027" on="1"/>
        <pt x="427" y="1027" on="1"/>
        <pt x="429" y="1041" on="1"/>
        <pt x="450" y="1176" on="0"/>
        <pt x="578" y="1403" on="0"/>
        <pt x="808" y="1545" on="0"/>
        <pt x="972" y="1545" on="1"/>
        <pt x="1092" y="1545" on="0"/>
        <pt x="1274" y="1484" on="0"/>
        <pt x="1317" y="1443" on="1"/>
        <pt x="1184" y="1230" on="1"/>
        <pt x="1176" y="1246" on="0"/>
        <pt x="1117" y="1300" on="0"/>
        <pt x="1024" y="1343" on="0"/>
        <pt x="968" y="1343" on="1"/>
        <pt x="892" y="1343" on="0"/>
        <pt x="801" y="1303" on="0"/>
        <pt x="739" y="1178" on="0"/>
        <pt x="721" y="1051" on="1"/>
        <pt x="718" y="1027" on="1"/>
        <pt x="1020" y="1027" on="1"/>
        <pt x="1004" y="878" on="1"/>
        <pt x="696" y="878" on="1"/>
        <pt x="674" y="731" on="1"/>
        <pt x="961" y="731" on="1"/>
        <pt x="945" y="582" on="1"/>
        <pt x="652" y="582" on="1"/>
        <pt x="631" y="462" on="0"/>
        <pt x="558" y="305" on="0"/>
        <pt x="505" y="231" on="1"/>
        <pt x="567" y="211" on="0"/>
        <pt x="775" y="185" on="0"/>
        <pt x="866" y="185" on="1"/>
        <pt x="979" y="185" on="0"/>
        <pt x="1104" y="227" on="0"/>
        <pt x="1151" y="302" on="0"/>
        <pt x="1151" y="358" on="1"/>
        <pt x="1151" y="397" on="0"/>
        <pt x="1099" y="479" on="0"/>
        <pt x="1071" y="495" on="1"/>
        <pt x="1257" y="642" on="1"/>
        <pt x="1327" y="600" on="0"/>
        <pt x="1423" y="448" on="0"/>
        <pt x="1423" y="372" on="1"/>
        <pt x="1423" y="221" on="0"/>
        <pt x="1215" y="-20" on="0"/>
        <pt x="924" y="-20" on="1"/>
        <pt x="820" y="-20" on="0"/>
        <pt x="645" y="15" on="0"/>
        <pt x="523" y="49" on="1"/>
        <pt x="406" y="82" on="0"/>
        <pt x="345" y="92" on="1"/>
        <pt x="306" y="43" on="0"/>
        <pt x="180" y="-20" on="0"/>
        <pt x="124" y="-20" on="1"/>
        <pt x="64" y="-20" on="0"/>
        <pt x="-3" y="35" on="0"/>
        <pt x="-3" y="81" on="1"/>
        <pt x="-3" y="133" on="0"/>
        <pt x="79" y="215" on="0"/>
        <pt x="203" y="260" on="0"/>
        <pt x="262" y="260" on="1"/>
      </contour>
    </TTGlyph>
    <TTGlyph name="logicalnot" xMin="207" yMin="322" xMax="1188" yMax="853">
      <contour>
        <pt x="1188" y="853" on="1"/>
        <pt x="1126" y="322" on="1"/>
        <pt x="909" y="322" on="1"/>
        <pt x="950" y="664" on="1"/>
        <pt x="207" y="664" on="1"/>
        <pt x="228" y="853" on="1"/>
      </contour>
    </TTGlyph>
    <TTGlyph name="lozenge" xMin="68" yMin="-1" xMax="1222" yMax="1533">
      <contour>
        <pt x="68" y="778" on="1"/>
        <pt x="643" y="1533" on="1"/>
        <pt x="647" y="1533" on="1"/>
        <pt x="1222" y="778" on="1"/>
        <pt x="1222" y="765" on="1"/>
        <pt x="647" y="-1" on="1"/>
        <pt x="642" y="-1" on="1"/>
        <pt x="68" y="765" on="1"/>
      </contour>
      <contour>
        <pt x="942" y="771" on="1"/>
        <pt x="942" y="774" on="1"/>
        <pt x="646" y="1171" on="1"/>
        <pt x="643" y="1171" on="1"/>
        <pt x="348" y="774" on="1"/>
        <pt x="348" y="769" on="1"/>
        <pt x="643" y="354" on="1"/>
        <pt x="646" y="354" on="1"/>
      </contour>
    </TTGlyph>
    <TTGlyph name="lslash" xMin="41" yMin="2" xMax="683" yMax="1636">
      <contour>
        <pt x="683" y="972" on="1"/>
        <pt x="503" y="901" on="1"/>
        <pt x="380" y="2" on="1"/>
        <pt x="104" y="2" on="1"/>
        <pt x="210" y="786" on="1"/>
        <pt x="41" y="719" on="1"/>
        <pt x="41" y="886" on="1"/>
        <pt x="235" y="965" on="1"/>
        <pt x="326" y="1636" on="1"/>
        <pt x="603" y="1636" on="1"/>
        <pt x="528" y="1085" on="1"/>
        <pt x="683" y="1149" on="1"/>
      </contour>
    </TTGlyph>
    <TTGlyph name="m" xMin="80" yMin="2" xMax="1747" yMax="1156">
      <contour>
        <pt x="1624" y="1156" on="0"/>
        <pt x="1747" y="1017" on="0"/>
        <pt x="1747" y="860" on="1"/>
        <pt x="1747" y="791" on="0"/>
        <pt x="1707" y="513" on="1"/>
        <pt x="1693" y="408" on="0"/>
        <pt x="1655" y="152" on="1"/>
        <pt x="1633" y="2" on="1"/>
        <pt x="1357" y="2" on="1"/>
        <pt x="1379" y="160" on="0"/>
        <pt x="1398" y="291" on="1"/>
        <pt x="1400" y="308" on="0"/>
        <pt x="1429" y="512" on="1"/>
        <pt x="1446" y="638" on="0"/>
        <pt x="1463" y="784" on="0"/>
        <pt x="1463" y="828" on="1"/>
        <pt x="1463" y="887" on="0"/>
        <pt x="1417" y="931" on="0"/>
        <pt x="1370" y="931" on="1"/>
        <pt x="1312" y="931" on="0"/>
        <pt x="1169" y="831" on="0"/>
        <pt x="1111" y="753" on="1"/>
        <pt x="1107" y="716" on="0"/>
        <pt x="1090" y="591" on="0"/>
        <pt x="1085" y="554" on="1"/>
        <pt x="1079" y="513" on="1"/>
        <pt x="1065" y="408" on="0"/>
        <pt x="1027" y="152" on="1"/>
        <pt x="1005" y="2" on="1"/>
        <pt x="729" y="2" on="1"/>
        <pt x="737" y="65" on="0"/>
        <pt x="754" y="178" on="0"/>
        <pt x="761" y="227" on="1"/>
        <pt x="786" y="400" on="0"/>
        <pt x="801" y="512" on="1"/>
        <pt x="834" y="752" on="0"/>
        <pt x="834" y="828" on="1"/>
        <pt x="834" y="887" on="0"/>
        <pt x="788" y="931" on="0"/>
        <pt x="741" y="931" on="1"/>
        <pt x="677" y="931" on="0"/>
        <pt x="513" y="808" on="0"/>
        <pt x="454" y="717" on="1"/>
        <pt x="356" y="2" on="1"/>
        <pt x="80" y="2" on="1"/>
        <pt x="235" y="1140" on="1"/>
        <pt x="500" y="1140" on="1"/>
        <pt x="483" y="933" on="1"/>
        <pt x="560" y="1034" on="0"/>
        <pt x="764" y="1156" on="0"/>
        <pt x="873" y="1156" on="1"/>
        <pt x="979" y="1156" on="0"/>
        <pt x="1099" y="1053" on="0"/>
        <pt x="1114" y="939" on="1"/>
        <pt x="1192" y="1038" on="0"/>
        <pt x="1394" y="1156" on="0"/>
        <pt x="1502" y="1156" on="1"/>
      </contour>
    </TTGlyph>
    <TTGlyph name="macron" xMin="34" yMin="1415" xMax="588" yMax="1594">
      <contour>
        <pt x="588" y="1594" on="1"/>
        <pt x="577" y="1415" on="1"/>
        <pt x="34" y="1415" on="1"/>
        <pt x="45" y="1594" on="1"/>
      </contour>
    </TTGlyph>
    <TTGlyph name="macron.cap" xMin="36" yMin="1718" xMax="592" yMax="1897">
      <contour>
        <pt x="592" y="1897" on="1"/>
        <pt x="579" y="1718" on="1"/>
        <pt x="36" y="1718" on="1"/>
        <pt x="48" y="1897" on="1"/>
      </contour>
    </TTGlyph>
    <TTGlyph name="minus" xMin="221" yMin="671" xMax="1087" yMax="874">
      <contour>
        <pt x="1087" y="874" on="1"/>
        <pt x="1059" y="671" on="1"/>
        <pt x="221" y="671" on="1"/>
        <pt x="248" y="874" on="1"/>
      </contour>
    </TTGlyph>
    <TTGlyph name="minute" xMin="250" yMin="1190" xMax="632" yMax="1782">
      <contour>
        <pt x="632" y="1782" on="1"/>
        <pt x="438" y="1190" on="1"/>
        <pt x="250" y="1190" on="1"/>
        <pt x="377" y="1782" on="1"/>
      </contour>
    </TTGlyph>
    <TTGlyph name="multiply" xMin="199" yMin="281" xMax="1244" yMax="1264">
      <contour>
        <pt x="583" y="778" on="1"/>
        <pt x="276" y="1110" on="1"/>
        <pt x="446" y="1264" on="1"/>
        <pt x="732" y="908" on="1"/>
        <pt x="1106" y="1264" on="1"/>
        <pt x="1244" y="1099" on="1"/>
        <pt x="856" y="767" on="1"/>
        <pt x="1167" y="435" on="1"/>
        <pt x="996" y="281" on="1"/>
        <pt x="706" y="637" on="1"/>
        <pt x="336" y="282" on="1"/>
        <pt x="199" y="446" on="1"/>
      </contour>
    </TTGlyph>
    <TTGlyph name="n" xMin="80" yMin="2" xMax="1136" yMax="1156">
      <contour>
        <pt x="1011" y="1156" on="0"/>
        <pt x="1136" y="1017" on="0"/>
        <pt x="1136" y="860" on="1"/>
        <pt x="1136" y="791" on="0"/>
        <pt x="1096" y="513" on="1"/>
        <pt x="1082" y="408" on="0"/>
        <pt x="1044" y="152" on="1"/>
        <pt x="1022" y="2" on="1"/>
        <pt x="746" y="2" on="1"/>
        <pt x="754" y="65" on="0"/>
        <pt x="771" y="178" on="0"/>
        <pt x="778" y="227" on="1"/>
        <pt x="803" y="400" on="0"/>
        <pt x="818" y="512" on="1"/>
        <pt x="851" y="752" on="0"/>
        <pt x="851" y="828" on="1"/>
        <pt x="851" y="887" on="0"/>
        <pt x="805" y="931" on="0"/>
        <pt x="758" y="931" on="1"/>
        <pt x="713" y="931" on="0"/>
        <pt x="602" y="872" on="0"/>
        <pt x="494" y="772" on="0"/>
        <pt x="453" y="711" on="1"/>
        <pt x="356" y="2" on="1"/>
        <pt x="80" y="2" on="1"/>
        <pt x="235" y="1140" on="1"/>
        <pt x="498" y="1140" on="1"/>
        <pt x="482" y="928" on="1"/>
        <pt x="561" y="1031" on="0"/>
        <pt x="773" y="1156" on="0"/>
        <pt x="887" y="1156" on="1"/>
      </contour>
    </TTGlyph>
</ttFont>
